<svg width="89" height="100" viewBox="0 0 89 100" fill="none" xmlns="http://www.w3.org/2000/svg">
<path d="M48.0308 0.769531C50.2824 1.18505 52.5743 1.42382 54.7639 2.13083C69.7746 6.98685 78.8369 17.102 81.7305 32.6593C82.1709 35.0284 82.1802 37.4192 81.9972 39.8472C80.7815 30.0173 76.3868 21.9984 68.3325 16.1966C60.2409 10.3668 51.2159 8.67685 41.4837 10.7514C26.3924 13.967 15.3297 28.2002 15.8631 43.7729C16.4245 60.0992 28.8828 74.0068 46.3436 75.6751C44.5696 75.8301 42.7832 75.889 41.0123 75.7154C33.172 74.9495 26.1411 72.1555 20.0903 67.0701C12.5788 60.7566 8.08794 52.7191 6.866 42.9822C5.51069 32.2003 8.37637 22.5317 15.3297 14.2151C21.7558 6.52792 30.0737 2.13083 40.0478 0.927677C40.2804 0.899769 40.5037 0.822247 40.7332 0.769531C43.1647 0.769531 45.5962 0.769531 48.0277 0.769531H48.0308Z" fill="white"/>
<path d="M0 89.9294C1.39563 86.9959 3.36811 86.0626 6.32994 86.9339C7.17972 87.1851 7.53328 87.9107 7.23245 88.7293C7.06187 89.1976 6.74242 89.0705 6.40747 89.0146C5.68175 88.8906 4.96223 88.6549 4.21169 88.8441C3.95117 88.9092 3.66274 88.934 3.43944 89.0673C1.99419 89.9356 2.447 91.3589 2.48111 92.621C2.50903 93.6412 3.17583 94.1931 4.16517 94.3203C4.80095 94.4009 5.43364 94.3513 6.07252 94.2366C6.4602 94.1683 7.06187 93.6753 7.22624 94.4567C7.3596 95.0893 7.46815 95.8025 6.59046 96.1467C3.85193 97.2227 1.24676 96.1467 0.142665 93.4458C0.105448 93.3528 0.0496229 93.266 0.00310205 93.176C0.00310205 92.0938 0.00310205 91.0147 0.00310205 89.9325L0 89.9294Z" fill="white"/>
<path d="M63.0702 21.4177C61.8792 22.0502 60.7255 22.5929 59.7238 23.4115C54.5258 27.6691 53.8218 35.4989 58.2227 40.4076C62.8934 45.6172 70.7802 45.9396 75.668 41.1332C76.0433 40.7642 76.3813 40.0045 76.8372 40.1503C77.3955 40.3301 77.2032 41.1363 77.2714 41.6852C78.9462 55.537 69.2698 68.5794 54.8143 70.8555C40.2129 73.1532 26.0985 62.4644 24.4796 47.856C22.873 33.3593 32.7541 20.599 47.1693 18.5276C52.3983 17.7772 57.3853 18.5555 62.1615 20.7727C62.4592 20.9122 62.8034 20.9959 63.0702 21.4239V21.4177Z" fill="white"/>
<path d="M44.8092 89.8012C44.8092 87.9779 44.8402 86.1576 44.7968 84.3343C44.772 83.2893 45.3799 83.2428 46.1707 83.2273C47.0143 83.2087 47.3121 83.5498 47.2748 84.3684C47.2407 85.1064 47.0608 86.0088 47.4051 86.5453C47.8269 87.2027 48.7635 86.5918 49.4799 86.6538C51.7781 86.846 53.2109 88.1856 53.2977 90.4524C53.3598 92.068 53.2884 93.6928 53.3226 95.3115C53.3412 96.1953 52.8325 96.279 52.1471 96.2666C51.4834 96.2511 50.8352 96.3224 50.8538 95.3301C50.8818 93.7456 50.8538 92.1579 50.8569 90.5733C50.8569 89.9314 50.7825 89.3237 50.0847 89.0756C49.238 88.7748 48.3665 88.6663 47.5323 89.0942C47.1818 89.2741 47.2686 89.6865 47.2686 90.0152C47.2593 91.7362 47.2221 93.4572 47.2779 95.1782C47.3121 96.1457 46.8282 96.2666 46.0374 96.279C45.2155 96.2914 44.772 96.1054 44.7937 95.1689C44.8371 93.3828 44.8061 91.5935 44.8092 89.8043V89.8012Z" fill="white"/>
<path d="M79.6556 91.6373C79.6804 95.253 77.1931 97.1817 73.7071 96.2701C72.0448 95.8359 70.9717 94.577 70.7484 92.6916C70.6647 91.9939 70.6615 91.2683 70.7422 90.5706C71.0275 88.1085 72.7178 86.6635 75.2175 86.6759C77.711 86.6883 79.3703 88.1643 79.6494 90.6264C79.6866 90.9582 79.6556 91.2993 79.6556 91.6373ZM73.152 91.5815C73.152 91.5815 73.1613 91.5815 73.1675 91.5815C73.1675 91.7148 73.1675 91.8513 73.1675 91.9846C73.2109 93.7676 73.7195 94.3754 75.1679 94.3816C76.6441 94.3878 77.1714 93.7893 77.2117 92.028C77.2241 91.5226 77.2272 91.0171 77.1776 90.5148C77.0628 89.3302 76.4394 88.769 75.264 88.7473C74.0111 88.7225 73.3443 89.2744 73.2078 90.4714C73.1644 90.8373 73.1706 91.2094 73.1551 91.5815H73.152Z" fill="white"/>
<path d="M26.1285 92.0503C26.1285 90.9712 26.1223 89.892 26.1285 88.8129C26.1347 87.8423 26.6186 87.2315 27.549 86.971C28.9012 86.5927 30.2844 86.5306 31.6552 86.7725C33.454 87.0888 34.3255 88.1152 34.4248 90.0998C34.5085 91.8487 34.4341 93.6038 34.4589 95.3589C34.4744 96.2737 33.8851 96.2644 33.24 96.2644C32.598 96.2644 32.0026 96.2861 32.015 95.3682C32.0367 93.7154 32.015 92.0658 32.015 90.413C32.015 89.8672 32.0336 89.2501 31.3792 89.0672C30.5325 88.8315 29.6424 88.7292 28.8268 89.1571C28.5011 89.3277 28.5848 89.7618 28.5848 90.0905C28.5786 91.7774 28.5445 93.4612 28.591 95.1481C28.6159 96.069 28.2096 96.2923 27.3691 96.2799C26.5813 96.2675 26.0603 96.159 26.113 95.1884C26.1689 94.1465 26.1254 93.0984 26.1254 92.0534H26.1285V92.0503Z" fill="white"/>
<path d="M18.265 90.2809C18.265 91.0562 18.2402 91.8345 18.2712 92.6066C18.3177 93.7447 18.7581 94.1447 19.9242 94.1726C21.2299 94.2036 21.782 93.8036 21.8285 92.6345C21.8843 91.1182 21.8874 89.5988 21.844 88.0824C21.8192 87.1924 22.0859 86.8265 23.0442 86.8203C24.0243 86.8172 24.3685 87.149 24.3189 88.1103C24.232 89.8592 24.4243 91.6174 24.1483 93.3633C23.8847 95.0377 23.0566 95.9742 21.4098 96.3277C20.3057 96.5634 19.1892 96.5386 18.1099 96.1882C16.9872 95.8254 16.3142 95.0098 16.0599 93.878C15.5854 91.7787 15.8273 89.6453 15.8273 87.5273C15.8273 86.6963 16.5282 86.8637 17.0368 86.8606C17.5548 86.8575 18.2092 86.718 18.2309 87.549C18.2557 88.4576 18.2371 89.3693 18.2371 90.2809H18.2619H18.265Z" fill="white"/>
<path d="M59.0766 92.6872C59.5883 91.0872 60.0939 89.4871 60.6118 87.8901C60.9126 86.9692 62.1811 86.4606 63.0495 86.9103C63.5581 87.1738 63.2418 87.5614 63.127 87.8715C61.9733 90.9693 60.8041 94.0578 59.638 97.1495C59.4488 97.6549 59.2379 98.151 59.0425 98.6534C58.5711 99.8596 57.8764 100.201 56.6296 99.8969C56.0931 99.7666 56.2202 99.441 56.3412 99.1278C56.6699 98.2782 57.0018 97.4285 57.3832 96.6037C57.6593 96.0114 57.6686 95.4874 57.4236 94.8703C56.549 92.6779 55.7085 90.4732 54.9052 88.253C54.7564 87.8405 54.1051 87.2607 54.9425 86.9041C55.8295 86.5257 56.9273 86.9041 57.1662 87.6173C57.6655 89.084 58.1276 90.5662 58.6114 92.0392C58.6827 92.2593 58.7758 92.4733 58.8564 92.6904C58.9308 92.6904 59.0022 92.6904 59.0766 92.6904V92.6872Z" fill="white"/>
<path d="M40.3707 96.4541C37.322 96.4541 35.5511 94.5067 35.6783 91.3934C35.8334 87.6475 38.7766 85.7033 42.3215 86.9746C43.2581 87.3095 43.041 88.029 42.9604 88.6522C42.8642 89.3965 42.2873 88.922 41.9121 88.9437C41.847 88.9468 41.7787 88.9251 41.7136 88.9127C38.9316 88.4073 37.6601 89.7158 38.2121 92.5191C38.4633 93.7935 39.0681 94.3114 40.3645 94.3517C40.9041 94.3672 41.4376 94.3269 41.9741 94.2184C42.3122 94.147 42.8611 93.7873 42.9541 94.4416C43.0379 95.0246 43.2984 95.775 42.4641 96.1099C41.7663 96.389 41.0282 96.482 40.3707 96.4541Z" fill="white"/>
<path d="M83.9132 89.7814C83.9132 91.5706 83.876 93.363 83.9287 95.1522C83.9535 96.0856 83.5317 96.2933 82.7006 96.2778C81.9314 96.2623 81.4166 96.1941 81.4259 95.2018C81.4662 91.5551 81.4631 87.9085 81.4259 84.2587C81.4166 83.223 82.0307 83.254 82.7502 83.2323C83.5317 83.2075 83.9442 83.4277 83.9225 84.3114C83.8791 86.1347 83.9101 87.9581 83.9101 89.7814H83.9132Z" fill="white"/>
<path d="M86.3087 89.832C86.3087 88.0087 86.3459 86.1853 86.2932 84.362C86.2653 83.4286 86.6902 83.2147 87.5152 83.2271C88.2874 83.2395 88.7992 83.3294 88.7898 84.3093C88.7526 87.9218 88.7464 91.5344 88.7898 95.147C88.8023 96.1858 88.2719 96.2571 87.4625 96.2757C86.5755 96.2974 86.2684 95.9718 86.2901 95.0942C86.3366 93.3391 86.3056 91.584 86.3056 89.8289L86.3087 89.832Z" fill="white"/>
<path d="M64.8276 91.8346C64.8276 90.7245 64.84 89.6113 64.8214 88.5011C64.809 87.7569 65.1346 87.2794 65.8387 87.0623C66.9459 86.7181 68.081 86.6251 69.2347 86.6778C69.9108 86.7088 69.9356 87.1863 69.9294 87.6794C69.9232 88.1879 69.979 88.743 69.2161 88.7585C69.0145 88.7616 68.8129 88.7864 68.6113 88.7926C67.684 88.8298 67.2343 89.2205 67.2808 90.2407C67.3552 91.8873 67.2622 93.5432 67.3118 95.1898C67.3428 96.1635 66.8311 96.2658 66.0495 96.272C65.2432 96.2782 64.7625 96.1201 64.8121 95.165C64.871 94.0549 64.8245 92.9416 64.8276 91.8315V91.8346Z" fill="white"/>
<path d="M12.8108 86.6657C14.1382 86.6471 14.2592 86.7681 14.2499 87.8472C14.2437 88.4767 14.0111 88.7247 13.3691 88.7837C11.7346 88.9356 11.7377 88.9666 11.7377 90.6132C11.7377 92.1636 11.7067 93.711 11.7439 95.2615C11.7657 96.1855 11.2508 96.2879 10.5158 96.2692C9.82728 96.2537 9.25042 96.2693 9.26593 95.2956C9.30625 93.0071 9.29695 90.7155 9.26903 88.4271C9.25973 87.6518 9.61639 87.2394 10.3204 87.044C11.1361 86.8177 11.9641 86.6874 12.8077 86.6688L12.8108 86.6657Z" fill="white"/>
</svg>
