<svg fill="none" height="47" viewBox="0 0 166 47" width="166" xmlns="http://www.w3.org/2000/svg"><g fill="#fff"><path d="m165.736 12.4904c-.376.1499-.775.0999-1.159.1024-2.115.0175-4.23.1099-6.347.0825-.402-.005-.389.0025-.414.3922-.121 1.9234.062 3.8444-.018 5.7678-.01.2623.091.3497.351.3472 1.792-.015 3.581-.0175 5.372-.0249.163 0 .323-.025.487-.04.253-.025.376.0774.368.3397-.007.3722 0 .7419 0 1.1141 0 1.6012-.005 3.1999.003 4.8012.002.5895.037 1.179.047 1.7685.011.4771-.02.4996-.494.5071-1.819.03-3.638-.04-5.456-.0599-.437-.005-.429-.005-.444.4121-.071 1.8011.077 3.5971.112 5.3957.005.2898.113.3997.407.4122 1.375.0624 2.752.1349 4.127.2248.82.0549 1.643.0974 2.466.1199.457.0125.499.0499.479.5046-.148 3.4747-.088 6.9519-.103 10.4266 0 .3447-.065.3847-.411.3597-1.212-.0874-2.424-.1574-3.635-.2473-1.27-.0949-2.534-.2098-3.804-.3023-.8-.0599-1.603-.0899-2.406-.1473-1.154-.0825-2.305-.1874-3.462-.2598-1.089-.07-2.175-.1674-3.266-.1774-.314-.0025-.402-.0674-.399-.3772.01-1.4763.07-2.9501.158-4.4214.058-.9393.085-1.8835.13-2.8228.116-2.4655.168-4.931.106-7.3965-.051-1.9434-.02-3.8844-.053-5.8278-.035-2.1982-.05-4.399-.055-6.5972-.005-1.3614-.053-2.7228-.091-4.0842-.015-.5521.036-1.1041.023-1.6562-.063-2.56042-.085-5.12336-.11-7.6838-.005-.41216.022-.44214.421-.45713.898-.03247 1.791-.15487 2.685-.2498 1.51-.16237 3.023-.33223 4.533-.4921 1.227-.1299 2.451-.27728 3.68-.3697 1.308-.09742 2.607-.26729 3.917-.31975.572-.02248 1.144-.08493 1.718-.10741.454-.01998.499.03497.484.48461-.1 2.89517-.035 5.79034-.04 8.68548 0 .4172.06.8319.093 1.249v.6295z"/><path d="m.532515 46.7311c-.132967-.1249-.132967-.2848-.132967-.4497.002509-1.0391.017561-2.0758.005017-3.1149-.065229-4.7712-.022578-9.5449-.075263-14.316-.020071-1.7236.01756-3.4472-.050177-5.1709-.070247-1.791-.02007-3.5796-.050176-5.3706-.037632-2.3407-.012544-4.6838-.072756-7.0244-.032614-1.31393.010035-2.63037-.055194-3.94181-.0551938-1.08663.007528-2.17325-.0577015-3.25488-.0577027-.93425-.0250896-1.8635-.04265132-2.79525-.00752644-.417165.04515992-.467124.45409682-.47212 2.298077-.017486 4.596147-.082435 6.891707-.032475 2.1626.047462 4.32265-.004995 6.48525.039969 1.272.027477 2.5465.07244 3.8184.039966.3262-.007494.6498-.032472.9735-.04746.2659-.009992.3738.117406.3663.38469-.1155 3.17994-.123 6.35988-.1155 9.53977 0 .4847-.0125.4647-.4992.4522-1.0336-.025-2.0673-.0275-3.1009-.02-1.5028.01-3.0056-.005-4.5083.0699-.3337.0175-.3814.05-.3814.3847v6.2c0 .4422.0377.4647.4742.4722 1.2745.0224 2.5464-.015 3.8184-.07.6774-.03 1.3598.01 2.0321-.0924.143-.0225.2183.035.2208.1848.0126 1.1891.0803 2.3806.0201 3.5697-.0351.6944-.0201 1.3889-.0677 2.0833-.0628.9292-.0979 1.8635-.0854 2.7977.0026.2773.0176.5496.0527.8269.0352.2798-.0727.4022-.3236.3797-1.2619-.1124-2.5264-.015-3.7883-.05-.6122-.0175-1.2243.0375-1.8365.06-.1655.005-.2433.0549-.2433.2323 0 1.4863-.0126 2.9701.0301 4.4564.0426 1.4938.005 2.9901.0376 4.4864.0452 2.0458.0201 4.0942.0577 6.14.005.2748.0276.5521.0527.8269.0276.3022-.1003.4546-.3989.5146-1.425.2922-2.84499.5945-4.26748.8942-1.71352.3597-3.42453.722-5.13554 1.0842-.11039.0224-.218268.0674-.328656.0999h-.173109z"/><path d="m104.528 22.0233c.06-.9967-.025-1.9909-.08-2.9876-.045-.8068-.116-1.6137-.148-2.423-.066-1.5588-.216-3.1125-.344-4.6688-.125-1.5462-.273-3.09-.419-4.63376-.103-1.07913-.213-2.15826-.326-3.23739-.035-.32973.02-.66446-.068-.9942-.043-.16487.093-.20983.231-.21233.258 0 .517-.00499.775.0075 2.057.08743 4.117.03996 6.174.04496.527 0 1.052.01499 1.578-.03747.399-.03997.414-.01249.414.39968v28.06741c0 1.6112.01 3.2199-.002 4.8311-.013 1.5438.035 3.085.053 4.6288.005.4096.002.4196-.392.4646-1.691.1923-3.382.3772-5.075.5621-.647.0699-1.295.1323-1.94.2023-.368.04-.439.0025-.564-.3597-.735-2.1358-1.4-4.2991-2.303-6.3699-1.578-3.6221-2.835-7.3616-4.2124-11.0561-.0201-.0525-.0401-.1049-.1079-.1574 0 .3897-.0376.7819.0076 1.1641.0828.6944.0401 1.3889.0803 2.0833.0727 1.274.0852 2.5505.1455 3.8244.0752 1.6162.1731 3.2299.2634 4.8461.0602 1.0842.1279 2.1658.1882 3.2499.0225.3897.0376.7794.0602 1.1691.015.2423-.0703.3647-.3362.3822-.7476.0499-1.4928-.03-2.2379-.0425-.1806-.0025-.3638-.0275-.5444-.025-1.0913.0125-2.1802-.0749-3.2715-.1024-.8505-.02-1.7035.02-2.5565.0275-.5519.005-.577-.015-.5695-.5546.0728-5.2582.1079-10.5165.0477-15.7748-.0702-6.3149-.0176-12.6323-.0477-18.94721-.0025-.57204 0-.57204.567-.65448 1.696-.2423 3.3643-.63698 5.0528-.91926.9985-.16736 2.002-.31474 3.003-.47961.2333-.03747.3538.04996.4315.26479 1.0813 2.9826 2.1478 5.97019 3.1608 8.97777 1.064 3.16 2.203 6.2949 3.309 9.4399z"/><path d="m49.2172 41.2063c-1.3021 0-2.6042-.0025-3.9063 0-.449 0-.8981.0325-1.3497.0399-.3537.005-.4089-.0474-.4064-.3896.0225-3.1525.0301-6.305.0803-9.4574.02-1.2465-.0076-2.4955.01-3.742.0376-2.9252.0351-5.8478.0527-8.773.0025-.4746.0251-.9517.0301-1.4288.0251-2.0484.0125-4.0967.0803-6.1426.0426-1.36136.0075-2.72526.0552-4.08417.0351-.96172.0526-1.92345.0501-2.88518 0-.50959.0552-.57953.5695-.60201 1.3297-.05496 2.6569-.14738 3.989-.1299 2.0397.02748 4.0794.01749 6.1165.07244 1.4802.03997 2.9654.09992 4.4105.48212 1.2946.34222 2.4511.94174 3.4271 1.84351 1.5855 1.46382 2.9277 3.11499 3.7958 5.11089.6774 1.5537 1.0738 3.1724 1.0913 4.8711.0151 1.4763.0126 2.9551-.3161 4.4064-.5394 2.3856-1.8766 4.2691-3.7582 5.7904-.2634.2123-.3111.3897-.2132.6994 1.3472 4.3015 2.8876 8.5356 4.5108 12.7422.2559.667.5018 1.339.7451 2.0109.1305.3622.0678.4522-.3086.4597-1.7812.0324-3.5499.2198-5.3262.3397-1.1264.0749-2.2529.1274-3.3818.1898-.286.015-.5721.0425-.8606.05-.4741.015-.4942 0-.6021-.4521-.3387-1.4164-.6849-2.8328-1.0838-4.2341-.7853-2.7478-1.5304-5.5056-2.2604-8.2659-.0502-.1848-.0853-.3697-.3563-.3672-.3362.0025-.4014.0475-.4039.3897-.0075 2.1907.0351 4.3815.0853 6.5722.0351 1.5113.0075 3.0276.1179 4.5364.0126.1673-.0527.2797-.2333.2972-.1129.0125-.2283.025-.3437.025-1.3698 0-2.7396 0-4.1095 0v.02zm4.2574-26.761c-.0752 1.0592.0928 2.2907.1054 3.5272.015 1.4463.0426 2.8927.0627 4.339v.0849c.0151.1949.1129.2723.3086.2223.1656-.0424.3362-.0749.5018-.1199 1.2368-.3297 1.8966-1.2115 2.1927-2.378.4967-1.9685.3788-3.9319-.2359-5.8528-.3763-1.1766-1.1741-1.916-2.4712-2.0259-.3913-.0325-.4691.015-.4691.3947v1.8085z"/><path d="m18.3786 23.662c-.0627-1.4764-.0251-2.9502.0677-4.424.1706-2.7128.5043-5.4006 1.3774-7.9935.5293-1.57628 1.2694-3.0476 2.3583-4.31657 1.4626-1.70363 3.294-2.78526 5.5244-3.18744 2.2203-.39968 4.428-.35471 6.5981.2473 2.7698.76439 4.7417 2.50549 6.0087 5.06343.9659 1.94598 1.4551 4.02178 1.7235 6.16008.4064 3.2573.5294 6.5272.4441 9.8046-.0828 3.2149-.429 6.3998-1.4175 9.4823-.4039 1.259-.9609 2.4456-1.7085 3.5422-1.1842 1.7336-2.7873 2.8852-4.8069 3.4572-2.3608.667-4.7517.7594-7.1551.2648-2.8325-.5845-4.9223-2.1957-6.3649-4.6613-1.0738-1.8335-1.6959-3.8294-2.0572-5.9052-.3613-2.0833-.5745-4.1841-.5896-6.3024-.0025-.4097 0-.8194 0-1.2265zm10.5571-2.9926c-.0602 2.2656-.0502 4.5288.0276 6.7945.0577 1.7036.1179 3.4023.3161 5.0959.0652.557.1455 1.1166.4139 1.6237.1807.3422.4792.5296.8631.5146.4014-.015.6322-.2798.7677-.6345.1329-.3497.2208-.7094.2785-1.0767.2709-1.6861.3261-3.3922.3311-5.0934.0075-3.2274.0427-6.4548-.0301-9.6822-.0376-1.6861-.0878-3.3647-.3036-5.0384-.0677-.5196-.1555-1.0392-.4415-1.4938-.3914-.6245-1.0964-.6495-1.5404-.06-.1581.2099-.2283.4572-.286.7095-.291 1.2789-.3487 2.5829-.3864 3.8844-.0426 1.4838-.01 2.9701-.01 4.4539z"/><path d="m83.0074 18.651c-.0251 1.1041-.0577 2.0508-.0351 2.9901.0477 1.9909-.0176 3.9818.0753 5.9702.005.0949.0075.1898.0075.2848.0226 2.1058.0452 4.2091.0702 6.3149.0251 2.1133.1255 4.2266.0979 6.3424 0 .1149.0025.2298 0 .3422-.0075.2098-.1129.3147-.3287.3022-.286-.0174-.572-.0474-.8605-.0474-2.0773 0-4.1571-.0075-6.2344.0075-.843.005-1.6834.0549-2.5239.0874-.4114.015-.4741-.0375-.4741-.4346 0-1.6387-.0276-3.2774.01-4.9161s.0828-3.2773.0376-4.9135c-.0953-3.4872.0226-6.9719-.0602-10.4591-.0527-2.2382-.005-4.4764-.0401-6.7146-.005-.3947-.01-.4047-.4014-.4022-1.4175.005-2.835.0125-4.2525.0225-.153 0-.3035.0325-.4566.035-.2082.005-.3311-.07-.2784-.3123.0276-.1274.0351-.2648.0351-.3972 0-1.7436.0075-3.48715 0-5.23075-.005-1.10411-.0326-2.20822-.0552-3.31483-.0025-.17985-.0376-.35971-.0427-.53956-.0075-.20484.1004-.28477.3086-.26729 1.3724.11491 2.7447.21733 4.122.28727 1.4225.07494 2.8425.20734 4.2625.31725 1.3071.09992 2.6142.18735 3.9187.30475 1.6383.14738 3.2791.25729 4.9148.43215.9985.10742 1.9995.17486 2.9955.30226.1054.01249.2083.03747.3136.04246.2258.0075.3061.12241.2685.33474-.1255.69943-.0276 1.40636-.0377 2.1083-.0376 2.37059-.02 4.74365-.025 7.11675 0 .4846-.0101.4821-.4993.4971-1.4651.0425-2.9278-.0899-4.3929-.0624-.4391.0075-.4391 0-.4391.4471v3.125z"/><path d="m141.159 23.3594c0 2.543-.03 5.0859.013 7.6289.023 1.3814-.02 2.7628.045 4.1417.08 1.7036-.007 3.4097.063 5.1133.043.9992.022 1.9984.043 3.0001.007.3373-.086.4297-.397.4047-1.116-.0824-2.235-.0724-3.357-.06-.928.01-1.856.0025-2.787.02-.976.0175-1.952.0525-2.928.0825-.296.01-.381-.055-.326-.3423.073-.3722.008-.7419.01-1.1116.015-4.1516.06-8.3058.028-12.4574-.028-3.6871-.02-7.3716-.058-11.0586-.007-.7769.018-1.5613-.08-2.3382-.028-.2273-.116-.2897-.326-.2747-1.654.1199-3.312.0299-4.968.0574-.471.0075-.476-.005-.421-.4521 0-.02.005-.0375.005-.0575.01-2.1333.035-4.2665-.023-6.39982-.022-.80935-.017-1.61869-.032-2.42804-.01-.57454-.015-.57204.564-.66946.248-.04247.497-.01.745-.01749 1.769-.05995 3.538-.11741 5.306-.17736.64-.02248 1.282-.02498 1.922-.05245 1.769-.07245 3.537-.10242 5.309-.14489 1.395-.03497 2.792-.03747 4.187-.10491.936-.04747 1.874-.01499 2.81-.09243.371-.03247.449.05496.441.41966-.027 1.60871-.09 3.21492-.15 4.82359-.053 1.4089-.033 2.8178.005 4.2291.005.1824-.05.2149-.198.2149-1.694-.01-3.39.0374-5.083-.045-.372-.0175-.429.025-.429.4072v7.7437h.062z"/><path d="m114.571 26.4657c0-3.4298.023-6.8595-.01-10.2893-.017-1.8085 0-3.6195-.06-5.4281-.058-1.68614 0-3.36978-.088-5.05343-.005-.10491-.005-.20983-.012-.31474-.025-.37303.154-.55955.537-.55955h8.818c.248 0 .499-.005.745-.02748.331-.02997.397.01249.397.34472 0 1.22901-.036 2.45803.005 3.68704.082 2.52294-.015 5.04844.057 7.57144.078 2.7153-.02 5.4306.053 8.1434.083 3.125.01 6.2475.053 9.3725.032 2.2656.042 4.5338.065 6.7995.005.5046.03 1.0092.04 1.5138.008.4496-.05.5096-.509.5096-2.509 0-5.018 0-7.527 0-.69 0-1.379 0-2.067 0-.446 0-.494-.05-.494-.4921 0-5.2583 0-10.5166 0-15.7748 0 0 0 0-.003 0z"/></g></svg>