<svg width="231" height="58" viewBox="0 0 231 58" fill="none" xmlns="http://www.w3.org/2000/svg">
<path d="M200.946 46.4434C200.929 46.367 200.91 46.2906 200.894 46.2141C200.751 46.1704 200.612 46.124 200.469 46.0804C199.782 46.0831 199.086 46.0176 198.429 46.2114C198.374 46.7601 198.325 47.2405 198.278 47.7182C198.237 47.811 198.202 47.9776 198.15 47.983C197.545 48.0458 196.939 48.084 196.334 48.1277C196.323 47.2897 196.315 46.4516 196.304 45.6136C196.159 45.4389 196.016 45.4389 195.874 45.6136C195.86 45.7173 195.849 45.8183 195.836 45.922C195.825 45.9794 195.814 46.034 195.803 46.0913C195.808 46.1732 195.814 46.2578 195.819 46.3397C195.827 46.3943 195.838 46.4516 195.847 46.5062C195.838 46.5881 195.83 46.67 195.822 46.7519C195.792 46.7928 195.762 46.8311 195.729 46.872L195.726 46.8966C195.504 46.8665 195.178 47.0522 195.148 46.6209C195.156 46.4871 195.165 46.3561 195.17 46.2223C195.162 46.124 195.154 46.0258 195.145 45.9275L195.151 45.1195C195.137 45.054 195.124 44.9885 195.11 44.923C195.107 44.8602 195.102 44.8001 195.099 44.7373C195.088 44.6691 195.08 44.6008 195.069 44.5299C195.009 43.8856 194.924 43.5854 194.674 43.1595C194.201 43.1977 194.365 43.64 194.228 43.8856C194.086 44.1422 193.962 44.4098 193.806 44.7237C193.864 44.7701 193.957 44.8465 194.055 44.9257C193.93 45.2887 193.858 45.6381 194.039 46.0285C194.135 46.2387 194.064 46.5226 194.069 46.7737C193.793 46.771 193.513 46.7683 193.237 46.7655C192.911 46.3233 192.557 45.8975 192.262 45.4334C190.21 42.2259 188.173 39.0103 186.127 35.8001C185.955 35.5271 185.763 35.2678 185.579 35.003C185.555 34.962 185.527 34.9211 185.503 34.8829C185.481 34.9047 185.456 34.9266 185.434 34.9484C185.426 35.2214 185.421 35.4916 185.412 35.7646C185.396 35.8328 185.379 35.9011 185.36 35.9666C185.347 37.7682 185.325 39.5672 185.316 41.3688C185.303 44.1859 185.3 47.003 185.292 49.8201C185.292 50.003 185.27 50.1859 185.259 50.3716C185.248 50.418 185.237 50.4671 185.223 50.5135C185.234 50.6527 185.243 50.7892 185.253 50.9284C185.045 50.9748 184.84 51.0212 184.632 51.0676C184.583 50.9393 184.533 50.8138 184.487 50.6855C184.446 50.5736 184.402 50.4644 184.361 50.3524C184.243 50.3142 184.125 50.246 184.007 50.2405C183.528 50.2214 183.046 50.2241 182.564 50.2187C182.679 49.7628 182.52 49.3179 182.52 48.8675C182.452 48.7883 182.383 48.7119 182.263 48.5726C182.214 48.4525 182.676 48.2478 182.244 48.024C182.159 48.2724 182.079 48.5126 181.997 48.7501C181.477 48.7501 180.954 48.7501 180.433 48.7501C180.392 48.2806 180.349 47.811 180.302 47.3006C179.716 47.3006 179.16 47.306 178.607 47.2978C178.503 47.2978 178.314 47.2542 178.311 47.2187C178.278 46.8338 177.949 46.9184 177.728 46.7765C177.75 47.1887 177.583 47.2897 177.232 47.2951C176.772 47.3006 176.276 47.1422 175.852 47.4616C175.816 47.7237 175.78 47.9885 175.748 48.2505L175.583 48.1604C175.526 47.8957 175.471 47.6336 175.416 47.3743C175.088 47.3306 174.792 47.2924 174.496 47.2514C174.622 47.4562 174.792 47.549 174.967 47.6281C175.211 47.7346 175.372 48.0322 175.318 48.2997L175.301 48.3024C175.255 48.2724 175.214 48.2806 175.178 48.3188L175.099 48.4553L175.137 48.4498C175.123 48.5644 175.11 48.6818 175.096 48.7965L174.748 48.8483C174.562 48.8975 174.376 48.9439 174.088 49.0176C174.088 48.7555 174.061 48.5235 174.096 48.3024C174.126 48.1113 174.274 48.155 174.4 48.2396C174.471 48.2396 174.545 48.2423 174.617 48.2451L174.477 48.1523C174.502 48.0431 174.529 47.9311 174.559 47.8028C174.4 47.721 174.241 47.6391 174.02 47.5217C174.072 46.9157 174.121 46.3015 174.181 45.6873C174.236 45.1222 173.94 44.5517 174.198 43.9894C174.159 43.9457 174.121 43.902 174.083 43.8583C174.074 43.6509 174.061 43.4434 174.061 43.2387C174.061 31.872 174.061 20.508 174.061 9.14124C174.061 8.93378 174.074 8.72632 174.083 8.52158C174.258 8.47791 174.436 8.4315 174.611 8.38783C175.027 8.38783 175.441 8.38237 175.857 8.38237C178.418 8.37691 180.978 8.36872 183.539 8.36326C184.235 8.3578 184.928 8.35507 185.623 8.34961C186.453 8.35507 187.286 8.36326 188.115 8.36872L188.102 8.38237C189.123 8.4315 190.142 8.47791 191.163 8.52704L191.166 8.51339C191.818 8.5598 192.467 8.60348 193.119 8.64988H193.116C193.582 8.69629 194.047 8.73996 194.513 8.78637C194.655 8.82459 194.795 8.8628 194.937 8.90102C195.816 9.04024 196.728 9.07573 197.572 9.33505C199.875 10.0448 201.841 11.2868 203.307 13.2495C204.473 14.8137 205.207 16.5607 205.599 18.4579C205.703 18.9657 205.73 19.487 205.793 20.0002C205.782 20.0221 205.76 20.0466 205.766 20.0603C205.78 20.1012 205.804 20.1367 205.823 20.1749C205.837 20.8137 205.848 21.4497 205.862 22.0885C205.851 22.154 205.837 22.2195 205.826 22.2823C205.81 22.498 205.793 22.7163 205.777 22.932C205.769 23.0248 205.763 23.1176 205.755 23.2104C205.747 23.2978 205.736 23.3879 205.728 23.4752C205.711 23.5407 205.697 23.6035 205.681 23.669C205.648 23.882 205.618 24.0949 205.585 24.3078C205.558 24.4088 205.53 24.5098 205.5 24.6081L205.462 24.8647C205.432 24.9657 205.399 25.0667 205.369 25.1677C205.117 26.1941 204.747 27.174 204.246 28.1076C203.027 30.3761 201.179 31.9402 198.829 32.9393C198.185 33.2123 197.531 33.4771 196.811 33.4907C196.759 33.4907 196.707 33.5726 196.602 33.6627C196.824 33.9848 197.035 34.3287 197.279 34.6454C199.344 37.3069 201.42 39.9602 203.479 42.6245C204.282 43.6645 205.048 44.7346 205.829 45.791C206.026 46.1541 205.55 46.0312 205.514 46.225L205.495 46.236C205.421 46.2851 205.347 46.3315 205.27 46.3806C205.248 46.7 205.213 47.0167 205.207 47.3361C205.202 47.5954 204.742 47.7783 205.289 48.125H204.334C204.295 47.852 204.26 47.6118 204.221 47.3251C204.063 47.3333 203.912 47.3415 203.717 47.3524C203.693 47.7947 203.671 48.2205 203.646 48.6627C203.348 48.7501 203.093 48.7828 202.962 48.4334C202.953 48.3024 202.945 48.1686 202.934 48.0376C202.937 47.9448 202.94 47.852 202.942 47.7564C202.863 47.7046 202.792 47.62 202.707 47.6118C202.491 47.5845 202.269 47.5899 202.05 47.5817V47.549C202.033 47.3907 202.019 47.2323 202.006 47.0767C201.954 47.0604 201.904 47.0412 201.852 47.0249C201.724 47.1723 201.595 47.3224 201.464 47.4698C201.42 47.7046 201.376 47.9393 201.332 48.1741C201.288 48.2341 201.247 48.2942 201.195 48.3706H201.483C201.466 48.5672 201.45 48.761 201.433 48.9575C201.209 49.0039 201.034 48.9657 200.984 48.7037C200.982 48.5262 200.976 48.3515 200.973 48.1741C200.984 48.1195 200.992 48.0649 201.003 48.0103C201.003 47.5572 201.003 47.1013 201.003 46.6482C200.99 46.5826 200.976 46.5171 200.962 46.4516L200.946 46.4434ZM188.921 16.8474C187.795 16.8419 186.672 16.831 185.547 16.8364C185.44 16.8364 185.33 16.932 185.223 16.9838C185.218 20.437 185.215 23.8874 185.21 27.3406C185.344 27.3952 185.478 27.4934 185.615 27.4962C186.762 27.5098 187.91 27.5071 189.057 27.4962C189.208 27.4962 189.359 27.4224 189.509 27.3815C189.728 27.3733 189.945 27.3624 190.164 27.3542C190.539 27.3078 190.914 27.2587 191.289 27.2123C192.01 26.9884 192.763 26.8356 193.439 26.5244C194.735 25.9293 195.66 24.9793 195.893 23.4998L195.975 23.0576C195.978 22.6481 195.981 22.2414 195.986 21.8319C195.973 21.7664 195.959 21.6981 195.945 21.6326C195.94 21.5234 195.934 21.4142 195.929 21.3051C195.918 21.2395 195.91 21.174 195.899 21.1085C195.838 20.0439 195.4 19.1677 194.587 18.477C194.001 17.9802 193.352 17.5789 192.604 17.3988C191.813 17.2077 190.999 17.1012 190.197 16.9565C189.772 16.9211 189.348 16.8828 188.923 16.8474H188.921Z" fill="white"/>
<path d="M58.9125 47.7365C58.9564 47.8348 59.0029 47.9331 59.0769 48.0996C58.8085 48.1242 58.5757 48.1433 58.2635 48.1706C58.2361 47.9058 58.2306 47.6819 58.1759 47.4717C58.1594 47.4062 58.017 47.368 57.9321 47.3189C57.8363 47.3571 57.7404 47.3926 57.6418 47.4308C57.6117 47.8375 57.5843 48.247 57.5542 48.6483C57.0923 48.6829 56.8558 48.4745 56.8449 48.0232C56.8695 47.9003 56.8969 47.7802 56.927 47.6383C56.5847 47.5946 56.2944 47.5591 56.0041 47.5209C55.9849 47.3762 55.963 47.2343 55.9439 47.0869C55.4947 47.1251 55.3277 47.3216 55.4208 47.712C55.4098 47.7611 55.3989 47.8075 55.3879 47.8566C55.3633 47.914 55.3386 47.9713 55.3112 48.0286C55.3112 48.0778 55.2893 48.116 55.251 48.146L54.9196 48.2798C54.9059 47.5837 54.895 46.8903 54.8813 46.1942C54.7498 46.1505 54.6211 46.1069 54.4896 46.0632C53.9309 46.0714 53.3695 46.0796 52.8108 46.0905C52.7095 46.126 52.6082 46.1587 52.5069 46.1942C52.4493 46.2406 52.3918 46.2898 52.3343 46.3362C52.3206 46.3908 52.3069 46.4481 52.296 46.5027C52.3042 46.5846 52.3097 46.6692 52.3179 46.7511C52.3288 46.8057 52.3398 46.8603 52.3535 46.9149C52.3425 46.9995 52.3343 47.0814 52.3234 47.166C52.1097 47.3298 51.9482 47.499 52.2357 47.7393C52.2576 47.7747 52.2686 47.8102 52.2713 47.8512C52.0933 47.9003 51.9153 47.9576 51.7346 47.9986C51.5319 48.045 51.3238 48.0805 51.1184 48.1187C50.891 48.1351 50.661 48.1542 50.4337 48.1706C50.3899 48.1651 50.3433 48.1569 50.2995 48.1515C50.2776 47.3271 50.2584 46.5 50.2365 45.6756C50.0859 45.4053 49.9325 45.5091 49.7764 45.6728C49.7545 46.0523 49.7353 46.429 49.7107 46.863C49.519 46.8903 49.3191 46.9203 49.0808 46.9558V46.3662C49.3136 46.2597 49.1849 46.1615 49.0753 46.0605C49.0753 45.9758 49.0726 45.8912 49.0698 45.8066C49.0781 45.752 49.0863 45.6974 49.0945 45.6428C49.1 45.5145 49.1027 45.3862 49.1082 45.2579C49.0972 45.2006 49.0863 45.146 49.0753 45.0887C49.0562 44.8212 49.037 44.5536 49.0178 44.2888C48.9904 44.1851 48.9658 44.0841 48.9384 43.9804C48.922 43.8958 48.9055 43.8111 48.8864 43.7238C48.8562 43.6228 48.8288 43.5245 48.7987 43.4235C48.5194 43.0796 48.4263 43.0686 48.2948 43.3744C48.1524 43.7101 48.0264 44.0514 47.895 44.3898C47.5335 44.6628 47.8758 44.8048 48.0073 44.9877C47.9607 45.116 47.9141 45.247 47.8676 45.3753C47.8402 45.4217 47.8128 45.4708 47.7827 45.5172C47.832 45.651 47.8813 45.782 47.9306 45.9158C47.958 45.9704 47.9881 46.0277 48.0155 46.0823C48.0155 46.3007 48.0155 46.5191 48.0127 46.7374C47.7197 46.7374 47.4294 46.7374 47.1364 46.7374L47.1008 46.7047C47.0679 46.6692 47.0378 46.6364 47.0049 46.601C46.082 45.1733 45.1563 43.7484 44.2389 42.318C42.6751 39.883 41.1195 37.4426 39.5585 35.0049C39.501 34.833 39.4271 34.7347 39.2874 34.9476C39.2792 37.9531 39.271 40.9585 39.2627 43.964C39.2518 44.0268 39.2408 44.0896 39.2299 44.1524C39.2354 45.651 39.2436 47.1469 39.2491 48.6455C39.2354 48.7111 39.2217 48.7793 39.208 48.8448C39.208 49.5327 39.208 50.2206 39.208 50.9085C39.1888 51.0013 39.1696 51.0941 39.1477 51.187C38.4904 51.176 38.4932 51.176 38.4521 50.5482C38.4466 50.4772 38.3782 50.409 38.3371 50.338C38.2193 50.2971 38.1016 50.2288 37.9811 50.2234C37.4963 50.2097 37.0088 50.2179 36.5241 50.2152C36.5542 49.9995 36.5816 49.7811 36.6117 49.5655C36.5926 49.5027 36.5707 49.4399 36.5515 49.3771C36.5378 49.1997 36.5214 49.0195 36.5077 48.8421C36.4118 48.7411 36.316 48.6428 36.2201 48.5418C36.3187 48.3125 36.2712 48.1314 36.0777 47.9986V48.5609C35.8613 48.6101 35.645 48.6838 35.4259 48.6974C35.0397 48.722 34.6536 48.7083 34.2647 48.7111C34.2647 48.6455 34.2647 48.58 34.2647 48.5145C34.3496 48.5172 34.4345 48.5227 34.5194 48.5254C34.5194 48.5036 34.5194 48.4818 34.5194 48.4599H34.2647C34.2565 48.1296 34.251 47.7966 34.2428 47.4663C34.2099 47.4226 34.1798 47.3817 34.1469 47.338H32.1313C32.1021 47.1232 31.9779 46.9849 31.7588 46.9231C31.7506 46.8903 31.7424 46.8576 31.7397 46.8521C31.7424 46.8576 31.7588 46.8821 31.7725 46.9094C31.789 47.0432 32.1724 47.1742 31.778 47.3134C31.1728 47.3189 30.5675 47.3243 29.9623 47.3298C29.8171 47.4717 29.672 47.6164 29.5296 47.7556C29.3817 47.4645 28.9819 47.3189 28.3301 47.3189C28.5902 47.4472 28.7436 47.5318 28.9024 47.6C29.1462 47.7065 29.2995 47.9713 29.2804 48.2743C28.9216 48.3071 29.0366 48.5991 28.9819 48.8339C28.834 48.823 28.6806 48.782 28.5382 48.8121C28.3958 48.8421 28.2643 48.9404 28.0535 49.0468V48.1378C28.2178 48.1979 28.3547 48.247 28.5108 48.3043C28.4862 47.9358 28.4506 47.6164 28.0042 47.5673C28.0042 46.5682 27.9357 45.5964 28.0315 44.641C28.0808 44.1496 27.9905 43.691 27.9905 43.2161C28.0014 31.8521 27.9987 20.4881 28.0014 9.12406C28.0014 8.87292 28.0315 8.62179 28.048 8.36792C28.9052 8.36792 29.7624 8.36519 30.6168 8.36246C33.5581 8.357 36.4967 8.35427 39.438 8.34881C39.994 8.34608 40.5526 8.34062 41.1086 8.33789C41.8015 8.34335 42.4944 8.34608 43.19 8.35154C44.0718 8.39795 44.9509 8.44708 45.8328 8.49349H45.83C46.3914 8.53989 46.9501 8.58357 47.5116 8.62997C48.251 8.72279 48.9932 8.79103 49.7244 8.91387C54.1035 9.66183 57.2036 12.0285 58.8413 16.1805C59.159 16.9885 59.3507 17.8484 59.5534 18.6946C59.6328 19.0222 59.589 19.3798 59.6 19.7237C59.6356 19.781 59.6712 19.8356 59.7068 19.893C59.7287 20.2042 59.7533 20.5126 59.7752 20.8238C59.7862 20.8784 59.7999 20.933 59.8108 20.9876C59.7752 21.5772 59.7396 22.1641 59.7068 22.7538C59.6712 22.8111 59.6356 22.8657 59.6 22.923C59.359 26.7146 57.7952 29.7802 54.5964 31.9339C54.1007 32.267 53.5558 32.5318 53.019 32.7938C52.2522 33.1651 51.4662 33.5008 50.483 33.4681C50.6062 33.7056 50.6774 33.8939 50.7925 34.0495C51.4223 34.9039 52.0522 35.7583 52.7013 36.5991C53.9693 38.2452 55.2592 39.8748 56.5162 41.5263C56.7983 41.8976 57.2611 42.1678 57.2803 42.7138C58.2115 43.358 58.573 44.469 59.3535 45.2415C59.6109 45.4954 59.7971 45.8257 60.0655 46.186C59.819 46.186 59.6219 46.186 59.4247 46.186C59.0878 46.1778 59.055 46.3553 59.1618 46.6173C59.1399 46.8848 59.118 47.1524 59.096 47.4199C59.0303 47.5236 58.9646 47.6246 58.8989 47.7283L58.9125 47.7365ZM42.9106 16.8547C41.7604 16.8466 40.6102 16.8356 39.4599 16.8356C39.3695 16.8356 39.2792 16.923 39.1915 16.9694C39.1915 17.0158 39.1915 17.0595 39.1915 17.1059C39.1833 18.206 39.1696 19.3061 39.1696 20.4089C39.1696 22.6801 39.1833 24.9512 39.1915 27.2224L39.1806 27.3534C39.3203 27.4025 39.4599 27.4926 39.6023 27.4926C40.7279 27.5035 41.8535 27.5035 42.9791 27.4926C43.1544 27.4926 43.3296 27.4162 43.5022 27.3752C43.9294 27.3234 44.3566 27.2524 44.7866 27.2251C45.9012 27.1514 46.9392 26.832 47.8922 26.256C49.0918 25.5327 49.8011 24.4926 49.9106 23.0759C49.9188 23.0213 49.9298 22.964 49.938 22.9094C49.9435 22.6418 49.949 22.3743 49.9544 22.1068C49.9435 22.0495 49.9325 21.9949 49.9188 21.9376C49.9106 21.8229 49.8969 21.7083 49.8969 21.5963C49.9161 18.9075 47.8758 17.6982 46.1094 17.2642C45.4822 17.1086 44.8277 17.054 44.1868 16.9557C43.7596 16.9203 43.3351 16.8875 42.9079 16.852L42.9106 16.8547Z" fill="white"/>
<path d="M73.9402 17.8007C73.9293 19.1956 73.9129 20.5932 73.9129 21.9882C73.9129 23.1319 73.9293 24.2757 73.9402 25.4195C74.0306 25.4659 74.1183 25.5478 74.2114 25.5532C74.5345 25.5696 74.8577 25.5614 75.1809 25.5614C78.3878 25.556 81.5948 25.5478 84.8017 25.5423C84.8647 25.7252 84.9797 25.9081 84.9825 26.0937C84.988 28.9982 84.9825 31.9054 84.977 34.8098C84.9496 34.788 84.925 34.7935 84.9085 34.8235C84.6538 34.8317 84.4019 34.8481 84.1472 34.8481C80.9786 34.8481 77.81 34.8481 74.6413 34.8562C74.4086 34.8562 74.1758 34.9463 73.943 34.9927C73.943 37.4386 73.943 39.8845 73.943 42.3303C74.1539 42.3767 74.3647 42.4641 74.5756 42.4668C75.6629 42.4805 76.7474 42.4723 77.8346 42.4723C80.4226 42.4777 83.0107 42.4859 85.5987 42.4914L85.6315 42.5242L85.6754 42.5105V46.9928C85.1139 47.0201 85.0948 47.0119 85.0646 46.5997C85.0509 46.4168 85.0619 46.2312 85.0619 46.0483C85.0619 45.8872 85.0619 45.7289 85.0619 45.5815C83.9035 44.9072 82.7587 45.0028 81.5564 45.5433C81.5236 46.3021 81.488 47.0938 81.4551 47.8881C80.9868 47.8881 80.5157 47.8881 80.0474 47.8881C80.0173 47.5933 79.9872 47.2985 79.9516 46.96C79.7708 46.9191 79.5627 46.8727 79.3053 46.8153C79.3272 47.1729 79.3463 47.4978 79.3683 47.8526C79.2067 47.8663 79.0752 47.8772 78.9438 47.8881C78.8096 47.9072 78.6754 47.9236 78.5439 47.9427C78.5467 47.9673 78.5494 47.9946 78.5521 48.0192H78.8014C78.8041 48.1611 78.8096 48.3058 78.8123 48.4477C78.7192 48.4423 78.6261 48.4368 78.533 48.4286C78.533 48.4586 78.5275 48.4887 78.5247 48.516C78.6206 48.5269 78.7164 48.5378 78.815 48.5487C78.815 49.0292 78.815 49.5096 78.815 49.9928C78.7164 50.0173 78.6179 50.0392 78.5193 50.0638C78.7274 49.7498 78.5056 49.7062 78.2701 49.6734C78.2591 49.6324 78.2481 49.5915 78.2399 49.5506C77.9387 49.4223 76.8733 49.3267 76.4434 49.3922C76.1147 49.4113 75.7587 49.3076 75.5588 49.5233C75.4739 49.9573 75.4054 50.3012 75.337 50.6479C74.5482 50.6452 73.7622 50.6397 72.9735 50.637C72.979 50.1784 72.9872 49.7198 72.9872 49.2585C72.9872 49.1329 72.9571 49.0046 72.9434 48.879C72.9215 48.819 72.8996 48.7589 72.8777 48.7016V47.7817H70.9003C70.8812 47.8881 70.8565 48.0137 70.8346 48.1393C70.495 48.243 70.0952 47.9891 69.7912 48.3112C69.7748 48.4668 69.7583 48.6252 69.7364 48.8217H68.6656C68.4465 49.0728 68.7094 49.6215 68.0768 49.5533C68.0439 49.1384 68.0111 48.718 67.9809 48.2976C67.9234 48.2512 67.8687 48.1693 67.8112 48.1666C67.0334 48.1584 66.2583 48.1556 65.4806 48.1666C65.3929 48.1666 65.3053 48.2648 65.2177 48.3194C65.1903 49.0264 65.141 49.7362 65.1437 50.4432C65.1437 50.6698 65.0205 50.6343 64.9 50.6643C64.3933 50.6534 63.8867 50.6425 63.38 50.6315C63.4156 50.465 63.4485 50.2985 63.495 50.0856C63.3088 50.1156 63.1116 50.0392 63.1554 50.3149C63.1856 50.5087 63.1554 50.6561 62.9309 50.6234C62.6652 50.5851 62.7118 50.3913 62.7748 50.2057C62.7994 50.1293 62.7994 50.0419 62.8131 49.96C62.8953 49.6297 62.6707 49.2858 62.8542 48.9527C62.8734 48.9172 62.8296 48.8381 62.7994 48.789C62.6159 48.4805 62.6844 48.1829 62.8241 47.8854C62.9117 47.7817 62.9966 47.6807 63.1445 47.506C62.9254 47.5496 62.8241 47.5715 62.72 47.5933C62.72 47.2767 62.72 46.96 62.7227 46.6461C62.7337 46.597 62.7419 46.5451 62.7529 46.496C62.7337 45.9882 62.7008 45.4832 62.6981 44.9755C62.6954 36.1802 62.6926 27.3849 62.6981 18.5896C62.6981 15.5214 62.72 12.4504 62.731 9.38212C62.72 9.32206 62.7118 9.25928 62.7008 9.19922C62.6899 8.97265 62.6789 8.74335 62.668 8.49495C63.3828 8.08548 64.1386 8.29567 64.8698 8.26838C65.1382 8.30659 65.4039 8.37757 65.6723 8.37757C71.9465 8.38303 78.2235 8.38302 84.4977 8.38302C84.7743 8.38302 85.0537 8.39667 85.3303 8.40486C85.3714 8.44308 85.4124 8.48403 85.4535 8.52224V17.5277L85.3358 17.6451C85.0838 17.6533 84.8291 17.6669 84.5772 17.6669C81.236 17.6669 77.8921 17.6669 74.551 17.6751C74.3483 17.6751 74.1484 17.7625 73.9457 17.8089L73.9402 17.8007Z" fill="white"/>
<path d="M111.282 8.38707C111.282 8.61364 111.282 8.84021 111.282 9.06678C111.274 9.11046 111.263 9.15687 111.255 9.20327C111.276 9.38889 111.298 9.57452 111.32 9.76287C111.326 9.85295 111.334 9.94304 111.339 10.0331C111.348 10.2133 111.359 10.3934 111.367 10.5736C111.378 10.6364 111.389 10.6992 111.402 10.762C111.405 11.0186 111.408 11.2752 111.411 11.5318C111.422 11.5945 111.43 11.6573 111.441 11.7201C111.441 12.6755 111.441 13.6337 111.438 14.5891C111.427 14.6546 111.416 14.7174 111.405 14.7829C111.402 15.5445 111.4 16.3088 111.397 17.0704C111.386 17.1332 111.375 17.1987 111.364 17.2615C111.353 17.3926 111.339 17.5236 111.328 17.6573C107.987 17.6573 104.643 17.6573 101.302 17.6628C100.842 17.6628 100.382 17.6792 99.922 17.6901C99.8919 17.731 99.8618 17.772 99.8316 17.8129C99.8316 20.3434 99.8316 22.8739 99.8344 25.4044C99.9713 25.7019 100.237 25.5518 100.44 25.5545C102.335 25.5655 104.23 25.56 106.125 25.5627C107.626 25.5655 109.129 25.5791 110.63 25.5846C110.671 25.6228 110.71 25.661 110.751 25.7019V34.7074L110.627 34.8221C110.373 34.8303 110.121 34.8439 109.866 34.8439C106.747 34.8439 103.627 34.8439 100.508 34.8521C100.284 34.8521 99.9959 34.7102 99.8262 35.005C99.8262 37.4372 99.8234 39.8694 99.8207 42.3016C99.9549 42.359 100.089 42.46 100.223 42.4627C100.864 42.4763 101.502 42.4627 102.143 42.4572C103.871 42.4518 105.599 42.4436 107.325 42.4381L111.441 42.4818L111.452 42.5036C111.471 42.5364 111.493 42.5691 111.512 42.6019C111.542 43.1888 111.597 43.7757 111.594 44.3626C111.589 45.2006 111.542 46.0414 111.512 46.8794C111.446 46.9258 111.383 46.975 111.318 47.0214H110.931V45.5091C110.482 45.3617 110.071 45.2279 109.661 45.0914C109.329 44.8376 109.001 44.9358 108.672 45.0914C108.217 45.2279 107.76 45.3671 107.303 45.5064C107.36 46.2789 107.409 46.9914 107.464 47.712C106.919 47.7857 106.437 47.8512 105.892 47.9249C105.827 47.5264 105.766 47.1633 105.706 46.7921C105.388 46.7075 105.325 46.9122 105.303 47.1633C105.26 47.3926 105.213 47.6192 105.169 47.8485C104.876 47.8731 104.485 47.7584 104.548 48.288C104.594 48.4218 104.643 48.5555 104.69 48.6893C104.649 48.9076 104.504 48.8612 104.389 48.7848C104.224 48.6783 104.079 48.5391 103.844 48.348V48.9349C104.131 48.9704 104.375 49.0005 104.564 49.025C104.643 49.2898 104.706 49.4918 104.767 49.6938C104.761 49.8112 104.758 49.9313 104.753 50.0487H104.298C104.164 49.8276 104.06 49.6583 103.959 49.4918C103.718 49.4618 103.477 49.4181 103.233 49.4017C102.628 49.3581 102.023 49.328 101.417 49.2925C101.39 49.3007 101.363 49.3007 101.338 49.2925C101.015 49.2216 100.807 49.3144 100.763 49.6884C100.908 49.7812 101.042 49.8685 101.176 49.9559C101.195 49.9996 101.198 50.046 101.176 50.0896C101.176 50.1333 101.171 50.1797 101.168 50.2234C101.171 50.278 101.176 50.3299 101.179 50.3844C101.091 50.4745 101.001 50.5646 100.913 50.6547L100.897 50.6711C100.412 50.6602 99.9248 50.6602 99.44 50.6356C99.2456 50.6247 99.0566 50.5592 98.8649 50.5182C99.0539 50.2944 99.2401 50.0678 99.5003 49.7566C99.2072 49.7075 99.0265 49.6747 98.7992 49.6365V47.7966C98.0351 47.6165 97.3121 47.6711 96.5836 47.7502C96.5507 47.7448 96.5151 47.742 96.4823 47.7366C96.4823 47.7884 96.4823 47.8403 96.4823 47.8922C96.4823 47.9795 96.4877 48.0669 96.4877 48.1515C96.2467 48.1515 96.0003 48.1269 95.762 48.1515C95.4963 48.1761 95.3348 48.2962 95.5292 48.5828C95.5183 48.6456 95.5046 48.7111 95.4936 48.7739C95.2554 48.7466 95.0171 48.722 94.7816 48.6975H94.7734C94.683 48.7029 94.5926 48.7111 94.5022 48.7166C94.4748 48.9349 94.4447 49.1506 94.4173 49.369C94.3927 49.4181 94.3653 49.4672 94.3406 49.5191C94.1845 49.5273 94.0312 49.5328 93.8751 49.541C93.8559 49.2489 93.8395 48.9868 93.823 48.722C93.8614 48.5637 93.9025 48.4054 93.9572 48.187C93.0453 48.1624 92.2346 48.1351 91.4212 48.1297C91.3254 48.1297 91.2295 48.2389 91.1337 48.2962C91.12 48.4763 91.0844 48.6565 91.0953 48.8339C91.1227 49.2516 91.0406 49.601 90.4682 49.7839C90.7065 49.8958 90.8242 49.9531 90.9475 50.0105C90.9173 50.1934 90.8845 50.3954 90.8406 50.6602H90.0519C90.0026 50.6602 89.9561 50.6602 89.9068 50.6574C89.8684 50.6438 89.8274 50.6329 89.7863 50.6301C89.6384 50.4964 89.4878 50.3626 89.3234 50.2152C89.2029 50.2889 89.0989 50.3517 88.9948 50.4172C89.1263 50.4964 89.2358 50.5619 89.3481 50.6274H88.6278V49.8631C88.7839 49.8931 88.94 49.9204 89.1756 49.9641C88.9674 49.7402 88.8031 49.5874 88.6744 49.4127C88.6278 49.3471 88.6634 49.2243 88.6607 49.126C88.8168 49.0523 88.836 48.9595 88.6963 48.8503C88.6826 48.5992 88.6579 48.3453 88.6579 48.0942C88.647 38.7611 88.6415 29.4308 88.6333 20.0977C88.6333 19.8903 88.6223 19.6828 88.6169 19.4754C88.6004 19.4071 88.584 19.3416 88.5703 19.2734C88.5758 16.2542 88.5813 13.2351 88.5867 10.216C88.5867 9.61819 88.595 9.01765 88.5977 8.41983L88.6415 8.43348L88.6744 8.40072C88.9756 8.39526 89.2769 8.38161 89.5754 8.38161C93.3958 8.37615 97.2135 8.37342 101.034 8.36796C102.652 8.36796 104.271 8.36796 105.887 8.36523C107.681 8.37615 109.474 8.38434 111.268 8.39526L111.282 8.38707Z" fill="white"/>
<path d="M226.104 45.9759C226.074 46.1424 226.047 46.3116 226.017 46.4782C225.85 46.8713 225.683 47.2643 225.516 47.6574C225.546 47.6711 225.573 47.6875 225.603 47.7011C225.803 47.4336 226 47.1688 226.2 46.9013V47.813C225.894 47.8185 225.579 48.0751 225.277 47.753C225.255 47.7311 225.116 47.8458 225.031 47.8458C224.943 47.8458 224.856 47.7857 224.768 47.7502C224.757 47.6875 224.743 47.6247 224.732 47.5592C224.735 47.3954 224.738 47.2343 224.741 47.0705C224.842 46.7129 225.269 46.4973 225.269 45.9704C224.88 46.3635 224.576 46.6693 224.182 47.0651V47.7475C223.979 47.854 223.834 47.9331 223.686 48.0123V50.0705H223.056C223.032 49.8876 223.01 49.7157 222.985 49.5437C222.821 49.4946 222.656 49.4181 222.489 49.4045C221.764 49.3526 221.038 49.3198 220.312 49.2925C220.274 49.2925 220.233 49.4208 220.192 49.4891L220.167 49.5246C220.131 49.5601 220.099 49.5956 220.063 49.6338C219.704 49.9641 220.101 50.1552 220.208 50.3981C220.112 50.48 220.022 50.6247 219.923 50.6301C219.518 50.6574 219.11 50.6411 218.724 50.6411C218.677 50.4063 218.644 50.2452 218.612 50.0842C218.579 50.0896 218.546 50.0924 218.516 50.0978V50.6411H217.716C217.73 49.7593 217.743 48.8776 217.754 47.9986C217.894 47.8622 217.842 47.7666 217.672 47.7448C217.5 47.7229 217.324 47.7366 217.149 47.7339C216.826 47.7339 216.505 47.7339 216.182 47.7339H216.174C215.985 47.611 216.336 47.1961 215.84 47.2125C215.807 47.3653 215.772 47.5319 215.736 47.6956L215.728 47.7038C215.55 47.7502 215.372 47.7966 215.196 47.8458C215.221 47.7066 215.248 47.5673 215.276 47.4227C215.122 47.2807 214.964 47.136 214.783 46.9668C214.55 47.106 214.298 47.237 214.068 47.4036C213.989 47.4609 213.682 47.9277 213.635 47.9632C213.822 47.9468 213.967 47.9713 213.844 48.2443C213.89 48.3153 213.937 48.3835 213.983 48.4545C213.868 48.965 213.383 48.5419 213.121 48.8094C213.148 48.9022 213.184 49.0168 213.219 49.1288C213.227 49.2134 213.233 49.3007 213.241 49.3854C213.079 49.4263 212.915 49.4673 212.754 49.5082C212.764 49.197 212.775 48.8858 212.784 48.5774C212.773 48.52 212.759 48.4654 212.748 48.4081C212.732 48.3672 212.715 48.3262 212.693 48.288C212.606 48.2416 212.518 48.1542 212.43 48.1515C211.968 48.1433 211.505 48.157 211.042 48.1624H209.634C209.766 48.3044 209.823 48.3672 209.878 48.4299C209.867 49.1588 209.856 49.8904 209.848 50.6192C209.648 50.6247 209.448 50.6301 209.248 50.6329H207.501C207.558 50.2316 207.61 49.8576 207.662 49.4836C207.695 49.2434 207.808 48.9977 207.591 48.7739C207.569 48.7521 207.657 48.6238 207.693 48.5473C207.786 48.5855 207.879 48.6238 207.969 48.6592C208.106 48.9213 208.331 48.935 208.629 48.9158C208.55 48.4572 208.224 48.5937 207.986 48.5637C207.975 48.5146 207.964 48.4627 207.95 48.4136L207.961 48.3945C207.996 48.3535 208.035 48.3126 208.07 48.2716L208.103 48.2416C208.405 48.3481 208.703 48.4545 209.015 48.5637C209.084 48.4518 209.18 48.2962 209.297 48.1078C209.062 48.0423 208.873 47.9877 208.654 47.9249C208.703 47.7557 208.747 47.6056 208.791 47.4527C209.018 47.1551 208.977 46.9777 208.667 46.9122C208.369 46.9122 208.07 46.9177 207.772 46.9177C207.799 46.6392 207.824 46.3635 207.86 45.995C207.687 46.2079 207.591 46.328 207.498 46.4454C207.493 46.2844 207.484 46.1233 207.484 45.9622C207.484 33.58 207.484 21.2006 207.484 8.81837C207.484 8.67916 207.493 8.54267 207.495 8.40345L207.539 8.4171L207.572 8.38434C207.849 8.37888 208.125 8.36523 208.402 8.36523C215.24 8.36523 222.081 8.36523 228.92 8.36523C229.336 8.36523 229.752 8.37342 230.166 8.37888C230.174 9.89663 230.188 11.4144 230.191 12.9321C230.196 14.4963 230.191 16.0604 230.191 17.6246C229.013 17.6328 227.835 17.6464 226.655 17.6492C223.998 17.6573 221.339 17.6628 218.683 17.671C218.655 17.7174 218.628 17.7611 218.601 17.8075L218.647 17.7993C218.633 18.0286 218.606 18.2579 218.603 18.4845C218.601 20.5618 218.601 22.6392 218.603 24.7165C218.603 24.9458 218.628 25.1751 218.642 25.4044L218.62 25.3771L218.59 25.3935C218.614 25.429 218.639 25.4645 218.661 25.4999C218.888 25.5163 219.118 25.5464 219.345 25.5464C221.26 25.5491 223.171 25.5464 225.086 25.5491C226.562 25.5518 228.035 25.5655 229.511 25.5709C229.552 25.6091 229.591 25.6474 229.632 25.6883V34.6938C229.591 34.732 229.55 34.7702 229.509 34.8084C229.254 34.8166 228.999 34.8303 228.747 34.8303C225.622 34.8303 222.498 34.8303 219.373 34.8357C219.135 34.8357 218.896 34.9149 218.661 34.9586C218.642 35.0923 218.606 35.2261 218.606 35.3626C218.603 37.5464 218.603 39.7275 218.606 41.9113C218.606 42.0478 218.636 42.1815 218.653 42.318C218.825 42.5883 219.091 42.4463 219.307 42.4463C222.98 42.46 226.652 42.46 230.325 42.4627C230.333 42.6674 230.347 42.8722 230.352 43.0796C230.358 43.3089 230.371 43.5409 230.347 43.7675C230.327 43.9422 230.086 44.0596 230.325 44.2998C230.44 44.4172 230.352 44.7393 230.352 44.9686C230.352 45.1979 230.352 45.4272 230.352 45.6565V46.9995C230.196 47.0105 230.067 47.0187 229.939 47.0268C229.906 46.9286 229.873 46.8303 229.84 46.732C229.859 46.5137 229.878 46.2925 229.9 46.0742C229.876 45.924 229.848 45.7712 229.824 45.621C229.396 45.4518 228.964 45.2934 228.545 45.1024C228.402 45.0369 228.295 44.8976 228.194 44.8103C227.78 44.9386 227.329 45.0778 226.879 45.217C226.814 45.1597 226.745 45.1024 226.658 45.0287C226.63 45.1597 226.608 45.2498 226.589 45.3399H226.559C226.439 45.3999 226.318 45.4627 226.2 45.5227C226.184 45.6046 226.165 45.6865 226.148 45.7657C226.132 45.8285 226.113 45.894 226.096 45.9568L226.104 45.9759Z" fill="white"/>
<path d="M4.1737 45.2254C4.15179 44.6303 4.13262 44.038 4.11071 43.4429C4.12167 43.432 4.13536 43.4211 4.14632 43.4101C4.13536 43.4265 4.12715 43.4402 4.11619 43.4566C4.07785 43.4402 4.03677 43.4347 3.99295 43.4347C3.47808 43.3938 2.96322 43.3528 2.44835 43.3119V42.3701C2.11698 42.3401 1.83216 42.3128 1.53365 42.2855V40.9752H0.999607C0.991391 41.199 0.966744 41.412 0.983176 41.6194C0.996869 41.8323 1.05164 42.0453 1.10094 42.3319C0.75313 42.3319 0.479264 42.3319 0.205399 42.3319C0.167058 42.2964 0.125979 42.2636 0.0848995 42.2282C0.0712063 41.2919 0.0602519 40.3555 0.0465586 39.4192C0.0301267 39.351 0.0136932 39.2855 0 39.2172C0.00821595 39.0562 0.0246489 38.8951 0.0246489 38.7341C0.0246489 30.6813 0.0246489 22.6312 0.0246489 14.5784C0.0246489 14.4638 0.0164327 14.3491 0.0136941 14.2317C0.0273873 14.1662 0.0383418 14.1007 0.052035 14.0352C0.052035 13.582 0.052035 13.1289 0.052035 12.6758C0.0383418 12.6102 0.0273873 12.5447 0.0136941 12.4792C0.0136941 12.2335 0.0136941 11.9851 0.0136941 11.7395C0.0273873 11.6739 0.0410804 11.6084 0.052035 11.5429C0.052035 10.6748 0.052035 9.80405 0.052035 8.93598C0.0575123 8.91688 0.0684671 8.89504 0.0629898 8.87593C0.0520352 8.84044 0.0356044 8.80496 0.0191725 8.76947C0.0356044 8.67939 0.0520343 8.59204 0.0684662 8.50195C8.18582 8.50195 16.3004 8.50195 24.4178 8.50195C24.4287 9.12161 24.4452 9.73853 24.4479 10.3582C24.4507 12.8368 24.4479 15.3154 24.4479 17.7913C24.4479 18.0206 24.4315 18.2499 24.4205 18.4765C24.259 18.4765 24.0974 18.4792 23.9358 18.4792C19.9319 18.4792 15.928 18.4792 11.9241 18.4847C11.694 18.4847 11.4667 18.5748 11.2367 18.6212C11.2367 18.6676 11.2367 18.7113 11.2394 18.7577V25.4074C11.2367 25.451 11.2312 25.4947 11.2285 25.5384C11.4859 25.5875 11.7433 25.6776 12.0008 25.6803C15.7554 25.694 19.5074 25.6967 23.2621 25.7022C23.2703 27.4956 23.2813 29.2864 23.2867 31.0798C23.2895 32.1362 23.2922 33.1954 23.2813 34.2518C23.2813 34.4456 23.2155 34.6394 23.1799 34.836C19.428 34.836 15.676 34.8332 11.9268 34.8414C11.694 34.8414 11.4612 34.9315 11.2285 34.9806C11.2285 35.0243 11.2339 35.068 11.2367 35.1117C11.2285 36.5857 11.2175 38.0598 11.2148 39.5339C11.2093 42.0234 11.2175 44.5102 11.2011 46.9998C11.2011 47.371 11.1271 47.7532 11.0176 48.1081C10.9628 48.2882 10.8368 48.5557 10.5219 48.4138C10.4753 48.4138 10.4288 48.4138 10.3822 48.4165C10.2316 48.4711 10.0782 48.5284 9.86461 48.6076C10.0919 48.6704 10.2042 48.7032 10.3192 48.7332C10.3138 48.8451 10.311 48.9597 10.3055 49.0717C10.2891 49.1317 10.2727 49.1945 10.2562 49.2546C10.2453 49.2928 10.2316 49.331 10.2152 49.3665C9.96047 49.5548 10.0481 49.6531 10.3055 49.705V52.1345H9.57432V50.6686C8.95265 50.5921 8.30632 50.6003 7.75312 51.0617C7.72847 51.1108 7.70108 51.1627 7.67643 51.2118V52.0744C6.89592 52.2191 6.84662 52.1836 6.83841 51.482C6.83841 51.3456 6.83841 51.2118 6.83841 51.0753C6.8521 51.0125 6.86579 50.9525 6.87675 50.8897C6.89044 49.9452 6.91783 49.0007 6.90687 48.0562C6.90413 47.7723 6.79459 47.4884 6.73434 47.2045C6.7672 47.0789 6.80007 46.9534 6.84936 46.7677H5.64709C5.28833 46.8114 4.89671 46.5903 4.57628 46.9124C4.54616 46.9452 4.51329 46.9725 4.48043 47.0025C4.38458 46.9588 4.28599 46.9179 4.19013 46.8742C4.19561 46.3774 4.20109 45.8778 4.20656 45.381C4.19561 45.3237 4.18466 45.2691 4.17096 45.2118L4.1737 45.2254Z" fill="white"/>
<path d="M145.951 25.7035C145.962 26.6889 145.982 27.6743 145.979 28.6571C145.976 30.6744 145.96 32.6889 145.951 34.7062L143.862 34.728C141.233 34.7226 138.604 34.7117 135.974 34.7171C135.588 34.7171 135.202 34.7936 134.816 34.8345C134.638 34.8427 134.457 34.8536 134.279 34.8618C134.175 34.9028 134.071 34.9437 133.964 34.9846C133.953 35.2358 133.931 35.4896 133.929 35.7408C133.923 39.587 133.923 43.4305 133.921 47.2768C133.838 47.4351 133.751 47.588 133.682 47.7517C133.677 47.7681 133.795 47.8336 133.855 47.8773C133.948 48.0984 133.929 48.2922 133.721 48.4424C133.496 48.4424 133.247 48.3223 133.082 48.5843C133.063 48.8109 133.047 49.0375 133.028 49.264C132.699 49.2176 132.373 49.1712 132.045 49.1275C131.984 48.9801 131.99 48.7617 131.697 48.8C131.716 49.0593 131.856 49.1221 132.055 49.1193C132.118 49.5124 132.461 49.4742 132.729 49.5507C132.655 49.8591 132.888 49.7909 133.05 49.8127C133.044 49.8673 133.039 49.9246 133.033 49.9792C132.904 50.0393 132.776 50.0993 132.57 50.1949C132.735 50.2085 132.828 50.2167 132.918 50.2249C132.907 50.3396 132.899 50.4515 132.885 50.6071C132.751 50.618 132.625 50.6344 132.496 50.6371C131.727 50.648 130.952 50.6426 130.27 51.2158C130.292 51.3086 130.338 51.4942 130.393 51.7235H129.676C129.676 51.1203 129.676 50.5279 129.676 49.9355C129.906 49.9847 130.138 50.0311 130.368 50.0802C130.382 50.042 130.396 50.0065 130.41 49.9683C130.212 49.87 130.015 49.7745 129.821 49.6762C129.771 49.6353 129.722 49.5943 129.67 49.5534C129.67 49.365 129.67 49.1767 129.67 48.9883C129.678 48.8955 129.687 48.8027 129.695 48.7099C129.708 48.628 129.722 48.5488 129.739 48.4669C130.001 48.2513 130.073 48.4915 130.193 48.6471C130.253 48.7235 130.352 48.7699 130.467 48.8546C130.503 48.6607 130.527 48.5188 130.549 48.4014C130.245 48.2704 129.96 48.1503 129.676 48.0302C129.785 47.3641 129.257 47.1102 128.857 46.7718C128.558 46.769 128.257 46.7445 127.958 46.7663C127.742 46.7827 127.528 46.8564 127.315 46.9055C127.211 46.9437 127.107 46.9819 126.901 47.0556C126.89 45.8191 126.879 44.6425 126.866 43.4687C126.734 43.4141 126.608 43.3213 126.474 43.3131C126.025 43.2913 125.573 43.2995 125.124 43.294C125.116 43.0211 125.105 42.7481 125.097 42.4751C125.034 42.4069 124.979 42.2868 124.908 42.2786C124.686 42.254 124.458 42.2676 124.234 42.2676C124.217 41.8445 124.201 41.4187 124.185 40.9956C124.149 40.9328 124.111 40.8727 124.075 40.81C124.004 40.8591 123.933 40.911 123.861 40.9601V42.2868H122.914C122.895 42.1666 122.854 42.0165 122.854 41.8664C122.851 30.8381 122.851 19.8099 122.854 8.78166C122.854 8.69158 122.873 8.59877 122.881 8.50869C128.312 8.50869 133.745 8.51142 139.176 8.50869C139.398 8.50869 139.617 8.43771 139.839 8.3995C140.088 8.38585 140.337 8.36128 140.586 8.35855C141.315 8.35582 142.041 8.35855 142.769 8.36128C143.971 8.36401 145.174 8.36674 146.376 8.3722C146.606 8.3722 146.836 8.38585 147.066 8.39404C147.099 8.43772 147.134 8.48139 147.167 8.52507C147.167 11.8417 147.17 15.1557 147.173 18.4723C146.896 18.4805 146.62 18.4969 146.34 18.4969C142.479 18.4969 138.617 18.4969 134.756 18.4969C134.504 18.4969 134.249 18.5215 133.997 18.5324C133.97 18.5706 133.945 18.6115 133.918 18.6498L133.948 18.6661L133.97 18.6388C133.956 19.2558 133.931 19.8727 133.929 20.4896C133.923 21.9555 133.926 23.4214 133.929 24.8873C133.929 25.1138 133.959 25.3404 133.975 25.567C134.148 25.8372 134.416 25.6953 134.633 25.6953C138.404 25.7062 142.175 25.7035 145.946 25.7062L145.951 25.7035Z" fill="white"/>
<path d="M163.486 51.898C163.53 52.0208 163.571 52.1436 163.639 52.3429C163.541 52.4576 163.395 52.6241 163.253 52.7906C162.897 52.5995 162.585 52.4303 162.273 52.261C162.292 51.5322 162.388 50.8115 162.33 50.0718C162.245 48.9498 162.292 47.8197 162.281 46.6923C162.281 46.4685 162.281 46.2419 162.281 45.9716C162.023 45.958 161.826 45.9471 161.53 45.9307C161.257 46.6241 160.983 47.3202 160.706 48.0162C160.534 48.2947 160.531 48.5704 160.706 48.8488C160.698 49.5886 160.692 50.3283 160.684 51.0654C160.523 51.3875 160.29 51.554 159.92 51.4339C159.761 50.7487 159.778 50.5304 160.038 50.0608C159.936 49.9817 159.832 49.897 159.728 49.8124C159.463 49.5231 159.197 49.2364 158.907 48.9198C158.48 49.2856 158.107 49.6077 157.655 49.9953C157.633 49.5149 157.625 49.0918 157.064 48.9962C156.856 49.3702 156.784 49.9298 156.083 49.9544V48.887C156.083 45.8843 156.075 42.8843 156.091 39.8815C156.091 39.4066 155.965 39.0517 155.609 38.7241C154.98 38.1454 154.396 37.5176 153.783 36.9225C153.449 36.5976 153.273 36.2346 153.32 35.7542C153.369 35.2546 153.372 34.7496 153.397 34.1791C154.005 34.1791 154.561 34.1245 155.103 34.1927C156.039 34.3101 156.694 33.8652 157.302 33.2592C157.606 32.9561 157.929 32.6668 158.299 32.3201C158.23 31.9871 158.567 31.5121 158.069 31.1409C157.981 31.0753 158.058 30.7969 158.058 30.483C157.37 31.018 156.773 31.4821 156.154 31.9652C156.004 31.1709 156.316 30.5103 156.921 30.1254C157.307 29.8797 157.683 29.604 158.003 29.2819C158.181 29.1017 158.307 28.8096 158.334 28.5558C158.386 28.0835 158.348 27.6031 158.348 26.937C157.54 27.5758 156.872 28.1081 156.105 28.7168C156.009 28.0398 155.971 27.5894 156.527 27.2182C157.159 26.7978 157.718 26.2682 158.318 25.7796V23.6804C157.491 24.1172 156.981 24.9143 156.141 25.291C155.985 24.5949 156.149 24.0872 156.735 23.7132C157.086 23.4893 157.384 23.1891 157.735 22.9652C158.195 22.6731 158.384 22.2582 158.378 21.7396C158.373 21.311 158.337 20.8851 158.307 20.2873C157.863 20.675 157.546 20.9561 157.222 21.2318C156.894 21.5103 156.595 21.8433 156.138 21.947C155.982 21.3901 156.138 20.9971 156.598 20.6749C157.072 20.3474 157.502 19.9543 157.962 19.6049C158.219 19.4083 158.351 19.179 158.337 18.8405C158.315 18.3137 158.332 17.7841 158.332 17.1645C157.595 17.7377 156.918 18.2618 156.163 18.8515C156.113 18.5703 156.059 18.4011 156.056 18.2345C156.042 15.9033 156.026 13.5721 156.028 11.2382C156.028 10.321 156.365 9.47201 156.699 8.63943C157.086 7.67583 157.516 6.73133 157.962 5.79229C158.942 3.73405 160.509 2.18628 162.355 0.889641C162.412 0.851425 162.47 0.813208 162.535 0.78591C162.574 0.769532 162.623 0.777721 162.738 0.769531C162.946 1.67035 163.154 2.58209 163.368 3.49383C163.809 5.3801 164.291 7.25817 164.677 9.15263C164.869 10.0944 164.973 11.0717 164.973 12.0353C164.965 19.0999 164.921 26.1618 164.891 33.2264C164.891 33.5021 164.891 33.7751 164.891 34.1272C165.8 34.2446 166.698 34.1163 167.627 34.2118C167.659 34.7933 167.709 35.3392 167.717 35.8852C167.722 36.2728 167.531 36.5895 167.249 36.857C166.728 37.3511 166.227 37.8643 165.693 38.3392C165.115 38.8497 164.874 39.4557 164.88 40.2337C164.907 43.119 164.891 46.0071 164.891 48.8925C164.891 49.4439 164.893 49.998 164.882 50.5495C164.88 50.6832 164.847 50.8252 164.787 50.9425C164.513 51.4748 164.017 51.7178 163.483 51.9034C163.332 51.7506 163.453 51.3575 163.001 51.483C163.163 51.6223 163.324 51.7615 163.486 51.9007V51.898Z" fill="white"/>
<path d="M160.705 51.6152C160.702 51.7981 160.697 51.9838 160.694 52.1666C160.634 52.1858 160.576 52.2049 160.47 52.2404C160.574 52.2758 160.634 52.2949 160.694 52.3141C160.683 52.7208 160.669 53.1275 160.658 53.5343C160.658 53.6216 160.617 53.7417 160.658 53.7881C160.984 54.1485 160.831 54.5798 160.823 54.9728C160.806 55.7399 160.721 56.507 160.664 57.2931C160.289 57.3587 160.07 57.1294 159.853 56.8919C159.807 56.7499 159.763 56.6107 159.716 56.4688C159.716 55.2677 159.714 54.0666 159.711 52.8655C159.796 52.5215 159.883 52.1776 159.982 51.779C160.166 51.7053 160.522 51.9947 160.702 51.618L160.705 51.6152Z" fill="white"/>
<path d="M24.4235 8.51339C16.3062 8.51339 8.19157 8.51339 0.0742188 8.51339C0.0824347 8.46699 0.0906496 8.42058 0.0988656 8.37418C0.145423 8.36872 0.19198 8.36326 0.238537 8.35507C0.931415 8.35507 1.62156 8.34961 2.31443 8.34961C2.56913 8.3578 2.82108 8.37691 3.07578 8.37691C10.1935 8.37964 17.3113 8.37964 24.429 8.38237C24.429 8.42604 24.4263 8.47245 24.4235 8.51612V8.51339Z" fill="white"/>
<path d="M230.172 8.38733C229.755 8.38187 229.339 8.37368 228.926 8.37368C222.087 8.37368 215.246 8.37368 208.408 8.37368C208.131 8.37368 207.854 8.38733 207.578 8.39279C207.57 8.35184 207.564 8.31089 207.559 8.27268C207.767 8.25903 207.972 8.23719 208.18 8.23719C215.287 8.23719 222.394 8.23446 229.501 8.24538C229.722 8.24538 230.007 8.08978 230.174 8.39006L230.172 8.38733Z" fill="white"/>
<path d="M24.431 8.37573C17.3132 8.37573 10.1955 8.37573 3.07775 8.37027C2.82306 8.37027 2.5711 8.3539 2.31641 8.34298C2.56015 8.30749 2.80389 8.23652 3.04763 8.23652C9.93807 8.23106 16.8285 8.23106 23.7162 8.23652C23.9545 8.23652 24.19 8.3266 24.4283 8.373L24.431 8.37573Z" fill="white"/>
<path d="M85.3276 8.39661C85.051 8.38842 84.7717 8.37477 84.4951 8.37477C78.2208 8.37477 71.9439 8.37477 65.6696 8.36931C65.4012 8.36931 65.1356 8.29834 64.8672 8.26012C65.0753 8.25193 65.2807 8.23828 65.4889 8.23828C71.9137 8.23828 78.3386 8.23828 84.7662 8.24374C84.9963 8.24374 85.2236 8.33109 85.4536 8.38023C85.4098 8.38023 85.3687 8.38842 85.3276 8.39934V8.39661Z" fill="white"/>
<path d="M139.841 8.39233C139.619 8.43055 139.4 8.50152 139.178 8.50152C133.747 8.50698 128.314 8.50425 122.883 8.50152C123.017 8.19579 123.285 8.35685 123.483 8.35685C125.4 8.35139 127.314 8.36776 129.231 8.37049C131.54 8.37322 133.848 8.37049 136.157 8.37049C136.412 8.37049 136.664 8.35412 136.916 8.34593C137.891 8.35957 138.866 8.37595 139.841 8.3896V8.39233Z" fill="white"/>
<path d="M175.844 47.4508C176.271 47.1314 176.764 47.2897 177.224 47.2843C177.575 47.2788 177.742 47.1805 177.72 46.7656C177.942 46.9103 178.27 46.8229 178.303 47.2078C178.306 47.2433 178.495 47.2843 178.599 47.287C179.152 47.2952 179.705 47.2897 180.294 47.2897C180.341 47.8002 180.382 48.2697 180.426 48.7392C180.946 48.7392 181.466 48.7392 181.989 48.7392C182.071 48.499 182.154 48.2588 182.236 48.0131C182.668 48.237 182.208 48.4417 182.255 48.5618C182.375 48.701 182.444 48.7775 182.512 48.8566C181.778 48.8566 181.044 48.8566 180.269 48.8566V47.5409C179.782 47.3361 176.753 47.2843 175.846 47.4453L175.844 47.4508Z" fill="white"/>
<path d="M11.2449 18.6369C11.475 18.5905 11.7023 18.5004 11.9323 18.5004C15.9362 18.4922 19.9401 18.4949 23.944 18.4949C24.1056 18.4949 24.2672 18.4949 24.4288 18.4922C24.1933 18.5386 23.9605 18.6287 23.725 18.6287C19.8826 18.6369 16.043 18.6341 12.2007 18.6369C11.9241 18.6369 11.6475 18.6505 11.3682 18.6587C11.3271 18.6478 11.286 18.6423 11.2422 18.6396L11.2449 18.6369Z" fill="white"/>
<path d="M133.999 18.5288C134.251 18.5152 134.505 18.4933 134.757 18.4933C138.619 18.4933 142.48 18.4933 146.342 18.4933C146.618 18.4933 146.895 18.4769 147.174 18.4688C147.002 18.7636 146.717 18.6243 146.487 18.6243C144.008 18.6353 141.527 18.6298 139.049 18.6325C137.356 18.6325 135.666 18.638 133.974 18.638L133.952 18.6653L133.922 18.6489C133.949 18.6107 133.974 18.5698 134.001 18.5315L133.999 18.5288Z" fill="white"/>
<path d="M101.051 8.36307C97.2302 8.3658 93.4125 8.37126 89.5921 8.37672C89.2908 8.37672 88.9896 8.39037 88.691 8.39583C88.6828 8.35488 88.6774 8.31394 88.6719 8.27572C88.8335 8.26207 88.9923 8.24023 89.1539 8.24023C92.9524 8.24023 96.7482 8.24023 100.547 8.24023C100.708 8.24023 100.87 8.25934 101.031 8.27026C101.037 8.30302 101.042 8.33305 101.053 8.3658L101.051 8.36307Z" fill="white"/>
<path d="M145.951 25.7044C142.18 25.7044 138.409 25.7044 134.638 25.6934C134.421 25.6934 134.153 25.8354 133.98 25.5651C137.765 25.5651 141.553 25.5624 145.338 25.5679C145.543 25.5679 145.746 25.6552 145.951 25.7044Z" fill="white"/>
<path d="M23.268 25.7148C19.5133 25.7093 15.7614 25.7093 12.0067 25.693C11.7492 25.693 11.4918 25.6001 11.2344 25.551H11.3001L11.3631 25.5346C12.4942 25.5428 13.628 25.5565 14.759 25.5565C17.3936 25.5592 20.0282 25.5565 22.6655 25.5647C22.8654 25.5647 23.1311 25.4118 23.268 25.7093V25.7148Z" fill="white"/>
<path d="M11.2371 34.9928C11.4699 34.9436 11.7027 34.8536 11.9355 34.8536C15.6874 34.8454 19.4394 34.8481 23.1886 34.8481C22.9503 34.8945 22.7148 34.9791 22.4765 34.9791C19.0258 34.9873 15.5751 34.9846 12.1244 34.9873C11.8697 34.9873 11.615 35.0037 11.3631 35.0119C11.322 34.9982 11.2782 34.9928 11.2344 34.9955L11.2371 34.9928Z" fill="white"/>
<path d="M230.332 42.4765C226.66 42.4738 222.987 42.4738 219.315 42.4602C219.098 42.4602 218.83 42.6021 218.66 42.3319C222.349 42.3319 226.038 42.3264 229.724 42.3346C229.927 42.3346 230.127 42.4274 230.33 42.4765H230.332Z" fill="white"/>
<path d="M85.5932 42.4892C83.0052 42.4837 80.4171 42.4755 77.8291 42.4701C76.7419 42.4701 75.6574 42.4783 74.5701 42.4646C74.3593 42.4646 74.1484 42.3773 73.9375 42.3281C77.5744 42.3281 81.2141 42.3281 84.851 42.3336C85.1057 42.3336 85.3577 42.3554 85.6124 42.3691C85.6069 42.41 85.6014 42.451 85.5932 42.4892Z" fill="white"/>
<path d="M73.9375 17.8005C74.1402 17.7541 74.3401 17.6667 74.5427 17.6667C77.8839 17.6586 81.2278 17.6613 84.5689 17.6586C84.8209 17.6586 85.0756 17.6449 85.3275 17.6367L85.3933 17.6558H85.4617C85.2016 17.6995 84.9414 17.7896 84.6812 17.7923C81.0991 17.8005 77.5169 17.7978 73.9375 17.8005Z" fill="white"/>
<path d="M218.69 17.6831C221.346 17.6749 224.006 17.6695 226.662 17.6613C227.84 17.6558 229.017 17.6449 230.198 17.6367C229.965 17.6913 229.732 17.7923 229.502 17.795C226.142 17.806 222.781 17.8032 219.424 17.8032C219.169 17.8032 218.915 17.8087 218.66 17.8114L218.613 17.8196C218.641 17.7732 218.668 17.7295 218.695 17.6831H218.69Z" fill="white"/>
<path d="M39.4604 8.36021C36.519 8.36567 33.5805 8.3684 30.6392 8.37386C29.782 8.37386 28.9248 8.37659 28.0703 8.37932C28.2565 8.33564 28.4428 8.25102 28.629 8.25102C32.2331 8.24829 35.8371 8.25102 39.4412 8.25921C39.4467 8.2947 39.4549 8.32746 39.4631 8.36294L39.4604 8.36021Z" fill="white"/>
<path d="M99.9258 17.689C100.386 17.6808 100.846 17.6617 101.306 17.6617C104.647 17.659 107.991 17.659 111.332 17.6562C111.094 17.7027 110.856 17.7927 110.62 17.7927C107.342 17.8009 104.061 17.7982 100.783 17.7982C100.506 17.7982 100.23 17.8064 99.9532 17.8091C99.9422 17.7682 99.934 17.7272 99.9285 17.6863L99.9258 17.689Z" fill="white"/>
<path d="M73.9375 34.9896C74.1703 34.9432 74.4031 34.8531 74.6359 34.8531C77.8045 34.8449 80.9731 34.8476 84.1417 34.8449C84.3964 34.8449 84.6484 34.8285 84.9031 34.8203C84.9085 34.8585 84.914 34.8995 84.9222 34.9377C84.6703 34.9541 84.4183 34.9814 84.1691 34.9814C80.7595 34.9868 77.3499 34.9868 73.9402 34.9868L73.9375 34.9896Z" fill="white"/>
<path d="M229.523 25.5864C228.047 25.5782 226.574 25.5673 225.098 25.5646C223.183 25.5618 221.272 25.5646 219.357 25.5618C219.13 25.5618 218.9 25.5318 218.673 25.5154C218.667 25.469 218.643 25.4335 218.602 25.409L218.632 25.3926L218.654 25.4199C222.088 25.4199 225.522 25.4199 228.956 25.4335C229.189 25.4335 229.419 25.5236 229.652 25.5727C229.608 25.57 229.564 25.5727 229.523 25.5891V25.5864Z" fill="white"/>
<path d="M110.636 25.5845C109.135 25.5763 107.631 25.5654 106.131 25.5626C104.235 25.5599 102.34 25.5654 100.445 25.5544C100.245 25.5544 99.9768 25.7018 99.8398 25.4043C103.249 25.4098 106.659 25.4125 110.069 25.4289C110.301 25.4289 110.532 25.5189 110.764 25.5681C110.72 25.5654 110.677 25.5681 110.636 25.5845Z" fill="white"/>
<path d="M99.8359 35.0093C100.006 34.7145 100.291 34.8564 100.518 34.8564C103.637 34.8455 106.757 34.8482 109.876 34.8482C110.131 34.8482 110.382 34.8346 110.637 34.8264C110.678 34.8373 110.719 34.8455 110.763 34.8455C110.533 34.8946 110.306 34.982 110.076 34.982C106.94 34.9902 103.804 34.9875 100.666 34.9902C100.389 34.9902 100.113 35.0038 99.8359 35.012V35.0093Z" fill="white"/>
<path d="M218.671 34.9763C218.909 34.9326 219.147 34.8535 219.383 34.8535C222.508 34.8453 225.632 34.848 228.757 34.848C229.012 34.848 229.267 34.8344 229.518 34.8262C229.56 34.8371 229.601 34.8453 229.644 34.8453C229.483 34.8944 229.324 34.9818 229.162 34.9818C225.665 34.9872 222.168 34.9818 218.668 34.979L218.671 34.9763Z" fill="white"/>
<path d="M84.799 25.5428C81.592 25.5482 78.3851 25.5564 75.1781 25.5619C74.8549 25.5619 74.5318 25.5728 74.2086 25.5537C74.1155 25.5482 74.0279 25.4663 73.9375 25.4199C77.2923 25.4199 80.6444 25.4199 83.9993 25.4281C84.2649 25.4281 84.5333 25.5018 84.799 25.5428Z" fill="white"/>
<path d="M160.704 51.6137C160.52 51.9932 160.167 51.7011 159.983 51.7748C159.885 52.1733 159.797 52.5173 159.712 52.8612C159.611 51.843 159.545 50.8221 159.731 49.8066C159.835 49.8913 159.94 49.9732 160.041 50.055C159.781 50.5246 159.764 50.7429 159.923 51.4281C160.293 51.5482 160.526 51.3817 160.687 51.0596C160.693 51.2452 160.698 51.4281 160.706 51.6137H160.704Z" fill="white"/>
<path d="M134.816 34.8337C135.203 34.7928 135.589 34.7163 135.975 34.7163C138.604 34.7109 141.233 34.7218 143.862 34.7272C143.87 34.7627 143.879 34.7955 143.89 34.8283C141.419 34.8337 138.946 34.8419 136.476 34.8446C135.923 34.8446 135.37 34.8364 134.816 34.8337Z" fill="white"/>
<path d="M183.524 8.35449C180.963 8.35994 178.402 8.36813 175.842 8.37359C175.426 8.37359 175.012 8.37632 174.596 8.37905C174.596 8.34084 174.593 8.30535 174.582 8.26713C175.204 8.25621 175.823 8.23438 176.444 8.23438C178.794 8.23438 181.144 8.2453 183.494 8.25075C183.505 8.28351 183.513 8.31627 183.521 8.35175L183.524 8.35449Z" fill="white"/>
<path d="M213.837 48.2482C213.963 47.9725 213.815 47.9507 213.629 47.9671C213.675 47.9288 213.982 47.4648 214.062 47.4075C214.292 47.2437 214.544 47.1099 214.776 46.9707C214.96 47.1399 215.116 47.2846 215.269 47.4266C215.242 47.5713 215.217 47.7105 215.19 47.8497L215.209 47.907C215.078 47.9452 214.946 47.9862 214.815 48.0244C214.85 47.8006 214.883 47.5794 214.922 47.3283C214.24 47.372 214.133 47.9125 213.834 48.2482H213.837Z" fill="white"/>
<path d="M196.328 48.1243C196.933 48.0806 197.541 48.0424 198.144 47.9796C198.196 47.9742 198.229 47.8077 198.273 47.7148C198.522 47.9769 198.467 48.269 198.363 48.5665C198.201 48.6075 198.04 48.6484 197.867 48.6921C197.884 48.5502 197.897 48.4246 197.911 48.2936C197.593 48.2362 197.424 48.3209 197.462 48.6402C197.481 48.7986 197.519 48.9542 197.55 49.1125C197.445 48.8231 197.341 48.531 197.224 48.2007C197.013 48.228 196.791 48.2744 196.572 48.2799C196.492 48.2799 196.41 48.1789 196.328 48.1243Z" fill="white"/>
<path d="M29.298 48.2855C29.3171 47.9825 29.1638 47.7177 28.92 47.6112C28.7612 47.543 28.6078 47.4584 28.3477 47.3301C28.9995 47.3301 29.3993 47.4757 29.5472 47.7668C29.6896 47.6249 29.8347 47.4829 29.9799 47.341C29.9799 47.3765 29.9717 47.4147 29.9635 47.4502C29.895 47.7423 29.8265 48.0344 29.7471 48.3647C29.5992 48.3401 29.4486 48.3128 29.298 48.2882V48.2855Z" fill="white"/>
<path d="M51.9645 49.512C51.8522 49.5202 51.74 49.5256 51.5647 49.5366C51.5127 49.1162 51.4634 48.7013 51.4141 48.2891C51.5674 48.2973 51.7181 48.3082 51.8714 48.3164V48.6876C52.0467 48.6467 52.1781 48.6139 52.3096 48.5839C52.3151 48.7122 52.3206 48.8432 52.326 48.9715C52.263 49.0534 52.1973 49.209 52.1398 49.2063C51.8303 49.1844 51.9864 49.3919 51.9673 49.512H51.9645Z" fill="white"/>
<path d="M139.839 8.39251C138.864 8.37886 137.889 8.36249 136.914 8.34884C137.018 8.31062 137.122 8.24238 137.226 8.24238C138.971 8.23692 140.713 8.23692 142.457 8.24238C142.561 8.24238 142.665 8.31608 142.767 8.35703C142.038 8.35703 141.312 8.34884 140.584 8.3543C140.335 8.3543 140.085 8.3816 139.836 8.39524L139.839 8.39251Z" fill="white"/>
<path d="M197.555 49.1123C197.525 48.9539 197.486 48.7983 197.467 48.64C197.426 48.3179 197.596 48.2333 197.916 48.2933C197.902 48.4244 197.889 48.5499 197.872 48.6919C198.045 48.6482 198.206 48.6073 198.368 48.5663C198.363 48.8366 198.357 49.1041 198.349 49.3743C198.22 49.4289 198.091 49.4835 197.963 49.5354C197.598 49.6118 197.519 49.418 197.552 49.1123H197.555Z" fill="white"/>
<path d="M111.284 8.38764C109.49 8.37672 107.696 8.36853 105.902 8.35761C105.911 8.32486 105.919 8.2921 105.924 8.25934C107.625 8.25115 109.328 8.24023 111.029 8.24023C111.114 8.24023 111.199 8.33578 111.284 8.38491V8.38764Z" fill="white"/>
<path d="M223.684 48.0165C223.831 47.9373 223.977 47.8609 224.179 47.7517V47.0692C224.574 46.6734 224.878 46.3677 225.267 45.9746C225.267 46.5015 224.839 46.7171 224.738 47.0747C224.557 46.8809 224.382 46.8427 224.319 47.1484C224.27 47.3832 224.289 47.6343 224.278 47.9291C224.067 47.9591 223.875 47.9864 223.684 48.0137V48.0165Z" fill="white"/>
<path d="M107.338 42.4424C105.61 42.4479 103.882 42.4561 102.156 42.4615C102.164 42.426 102.17 42.3933 102.17 42.3578C103.879 42.3551 105.591 42.3523 107.299 42.3496C107.31 42.3824 107.324 42.4124 107.338 42.4451V42.4424Z" fill="white"/>
<path d="M105.928 8.26367C105.922 8.29643 105.914 8.32919 105.906 8.36194C104.288 8.36194 102.669 8.36194 101.053 8.36467C101.045 8.33465 101.037 8.30189 101.031 8.26913C102.663 8.26913 104.296 8.26367 105.928 8.26367Z" fill="white"/>
<path d="M208.79 47.4609C208.746 47.6111 208.702 47.7612 208.656 47.9332C208.875 47.996 209.064 48.0478 209.3 48.1161C209.182 48.3044 209.086 48.4628 209.017 48.5719C208.705 48.46 208.404 48.3563 208.105 48.2498C208.152 48.0833 208.199 47.9141 208.245 47.7476C208.33 47.7421 208.415 47.7366 208.5 47.7285C208.598 47.6384 208.694 47.551 208.793 47.4609H208.79Z" fill="white"/>
<path d="M213.84 48.2481C214.138 47.9123 214.245 47.3691 214.927 47.3281C214.889 47.5765 214.853 47.8004 214.82 48.0242L214.804 48.0461C214.713 48.1307 214.623 48.2153 214.533 48.3027C214.505 48.3381 214.486 48.3764 214.478 48.42C214.464 48.4855 214.451 48.5511 214.437 48.6138C214.423 48.6575 214.412 48.7039 214.399 48.7476C214.259 48.6521 214.122 48.5565 213.982 48.4582C213.936 48.3873 213.889 48.319 213.843 48.2481H213.84Z" fill="white"/>
<path d="M101.348 49.2898C101.375 49.298 101.403 49.298 101.427 49.2898C101.487 49.5273 101.676 49.5109 101.86 49.5082C102.564 49.5028 103.268 49.4946 103.969 49.4891C104.073 49.6584 104.174 49.8276 104.308 50.046H104.763C104.579 50.0951 104.396 50.147 104.177 50.2043C104.1 49.9832 104.043 49.8221 103.982 49.6474H101.293C101.309 49.5273 101.326 49.4072 101.345 49.2871L101.348 49.2898Z" fill="white"/>
<path d="M107.339 42.4407C107.325 42.4106 107.314 42.3779 107.301 42.3451C108.519 42.3397 109.741 42.3287 110.96 42.3369C111.124 42.3369 111.291 42.4352 111.455 42.4871C110.083 42.4734 108.711 42.457 107.339 42.4434V42.4407Z" fill="white"/>
<path d="M175.31 48.2924C175.365 48.0249 175.206 47.7273 174.959 47.6208C174.784 47.5444 174.614 47.4489 174.488 47.2441C174.784 47.2824 175.08 47.3233 175.408 47.367C175.463 47.6236 175.521 47.8884 175.576 48.1532C175.57 48.1968 175.573 48.2378 175.576 48.2815C175.485 48.2869 175.398 48.2896 175.307 48.2951L175.31 48.2924Z" fill="white"/>
<path d="M217.71 50.6448H218.509V50.1015C218.542 50.0961 218.575 50.0934 218.605 50.0879C218.638 50.2489 218.671 50.41 218.718 50.6448C219.104 50.6448 219.512 50.6611 219.917 50.6338C220.018 50.6284 220.109 50.481 220.202 50.4018C220.164 50.5165 220.128 50.7294 220.084 50.7321C219.29 50.7594 218.488 50.9314 217.707 50.6475L217.71 50.6448Z" fill="white"/>
<path d="M208.497 47.727C208.412 47.7325 208.327 47.738 208.243 47.7461C208.01 47.6397 207.777 47.5332 207.52 47.4158C207.588 47.2712 207.64 47.1565 207.692 47.0419C208.043 47.0419 208.415 47.0009 208.494 47.4868C208.494 47.5687 208.494 47.6479 208.494 47.7298L208.497 47.727Z" fill="white"/>
<path d="M91.1484 48.2935C91.2443 48.2362 91.3401 48.1243 91.436 48.127C92.2494 48.1352 93.0628 48.1625 93.972 48.1843C93.9172 48.4027 93.8789 48.561 93.8378 48.7194C93.8186 48.6074 93.7994 48.4955 93.7721 48.3454C93.5858 48.3263 93.3859 48.2908 93.1887 48.2908C92.5095 48.2853 91.8276 48.2908 91.1484 48.2935Z" fill="white"/>
<path d="M104.782 49.6973C104.722 49.4953 104.659 49.2933 104.58 49.0285C104.391 49.004 104.147 48.974 103.859 48.9385V48.3516C104.095 48.5426 104.24 48.6819 104.404 48.7883C104.519 48.8648 104.665 48.9112 104.706 48.6928C104.73 49.0285 104.758 49.3616 104.782 49.6973Z" fill="white"/>
<path d="M52.3069 48.5847C52.1755 48.6174 52.044 48.6475 51.8687 48.6884V48.3172C51.7154 48.309 51.5648 48.2981 51.4114 48.2899C51.3155 48.2326 51.2169 48.1725 51.1211 48.1152C51.3265 48.0742 51.5346 48.0415 51.7373 47.9951C51.918 47.9541 52.0961 47.8968 52.2741 47.8477C52.285 48.0933 52.296 48.339 52.3069 48.582V48.5847Z" fill="white"/>
<path d="M31.7773 46.9383C31.9964 47.0001 32.1206 47.1375 32.1498 47.3504C32.8126 47.3504 33.489 47.3504 34.1654 47.3504C34.16 47.3914 34.1545 47.4296 34.1463 47.4706C33.5766 47.4678 33.0097 47.476 32.4401 47.4542C32.2237 47.446 32.0101 47.3723 31.7965 47.3259C32.1909 47.1867 31.8075 47.0556 31.791 46.9219L31.7773 46.9383Z" fill="white"/>
<path d="M62.8062 49.9519C62.7952 50.0338 62.7952 50.1212 62.7678 50.1976C62.7048 50.3833 62.6583 50.5743 62.9239 50.6153C63.1485 50.648 63.1786 50.5006 63.1485 50.3068C63.1047 50.0311 63.3046 50.1103 63.4881 50.0775C63.4443 50.2932 63.4087 50.4597 63.3731 50.6235C63.3676 50.6535 63.3566 50.6835 63.3402 50.7081C63.143 50.719 62.9458 50.7327 62.7569 50.7436C62.5268 50.4433 62.5953 50.1894 62.8062 49.9492V49.9519Z" fill="white"/>
<path d="M54.9246 48.2802L55.256 48.1465C55.4751 48.384 55.4888 48.6542 55.3655 48.9681C55.2478 48.9845 55.1191 49.0036 54.9219 49.0309V48.2802H54.9246Z" fill="white"/>
<path d="M220.191 49.4915C220.232 49.4233 220.274 49.2922 220.312 49.295C221.038 49.3223 221.763 49.355 222.489 49.4069C222.656 49.4178 222.821 49.497 222.985 49.5461C222.054 49.527 221.123 49.5106 220.191 49.4915Z" fill="white"/>
<path d="M129.68 48.0242C129.965 48.1443 130.247 48.2644 130.553 48.3955C130.531 48.5128 130.507 48.6548 130.471 48.8486C130.356 48.764 130.258 48.7176 130.197 48.6411C130.077 48.4883 130.006 48.2481 129.743 48.461C129.721 48.3136 129.702 48.1689 129.68 48.0215V48.0242Z" fill="white"/>
<path d="M65.2109 48.3145C65.2986 48.2626 65.3835 48.1643 65.4738 48.1616C66.2489 48.1479 67.0267 48.1507 67.8044 48.1616C67.8619 48.1616 67.9167 48.2462 67.9742 48.2926C67.054 48.3008 66.1339 48.309 65.2137 48.3172L65.2109 48.3145Z" fill="white"/>
<path d="M55.4233 47.713C55.3302 47.3226 55.4973 47.1234 55.9464 47.0879C55.9656 47.2326 55.9875 47.3772 56.0066 47.5219L55.9765 47.5629C55.793 47.612 55.6068 47.6639 55.4233 47.713Z" fill="white"/>
<path d="M34.2812 48.722C34.6674 48.722 35.0563 48.7329 35.4424 48.7083C35.6615 48.6947 35.8779 48.6183 36.0942 48.5718C36.1408 48.5664 36.1901 48.5582 36.2366 48.5527C36.3325 48.6537 36.4284 48.752 36.5242 48.853C35.9135 48.853 35.3028 48.8639 34.6948 48.8503C34.5579 48.8476 34.4209 48.7684 34.284 48.7247L34.2812 48.722Z" fill="white"/>
<path d="M188.099 8.35997C187.269 8.35451 186.436 8.34632 185.607 8.34086C185.598 8.31083 185.59 8.27807 185.582 8.24805C186.42 8.28626 187.261 8.32175 188.099 8.35997Z" fill="white"/>
<path d="M226.2 46.9055C226 47.173 225.803 47.4378 225.603 47.7054C225.573 47.6917 225.546 47.6753 225.516 47.6617C225.683 47.2686 225.85 46.8755 226.017 46.4824C226.077 46.6244 226.137 46.7663 226.198 46.9083L226.2 46.9055Z" fill="white"/>
<path d="M102.168 42.3585C102.168 42.394 102.16 42.4295 102.154 42.4622C101.514 42.4677 100.873 42.4813 100.235 42.4677C100.1 42.465 99.9662 42.364 99.832 42.3066C100.613 42.323 101.39 42.3394 102.171 42.3585H102.168Z" fill="white"/>
<path d="M72.9637 50.6355C73.7524 50.6383 74.5384 50.6437 75.3271 50.6465C75.2066 50.6929 75.0861 50.7748 74.9629 50.7775C74.4124 50.7911 73.862 50.7911 73.3115 50.7775C73.1937 50.7748 73.0787 50.6847 72.9609 50.6328L72.9637 50.6355Z" fill="white"/>
<path d="M98.8755 50.5156C99.0672 50.5566 99.2562 50.6221 99.4506 50.633C99.9354 50.6576 100.42 50.6576 100.908 50.6685C100.762 50.7122 100.617 50.7886 100.472 50.7913C99.9902 50.7995 99.5081 50.7886 99.0261 50.7695C98.8783 50.764 98.7468 50.7067 98.8783 50.5156H98.8755Z" fill="white"/>
<path d="M213.981 48.459C214.121 48.5545 214.258 48.6501 214.397 48.7483C214.096 48.7838 213.798 48.8466 213.499 48.8439C213.261 48.8439 213.258 48.9886 213.22 49.136C213.184 49.0213 213.148 48.9067 213.121 48.8166C213.384 48.5463 213.866 48.9722 213.984 48.4617L213.981 48.459Z" fill="white"/>
<path d="M143.891 34.8299C143.88 34.7971 143.871 34.7616 143.863 34.7289C144.559 34.7207 145.255 34.7152 145.953 34.707C145.865 34.7562 145.78 34.8435 145.693 34.8462C145.093 34.8517 144.493 34.8381 143.891 34.8299Z" fill="white"/>
<path d="M76.4363 49.3904C76.8663 49.3249 77.9316 49.4204 78.2329 49.5487C77.8248 49.5487 77.414 49.5596 77.006 49.5378C76.8143 49.5269 76.6253 49.4422 76.4336 49.3904H76.4363Z" fill="white"/>
<path d="M43.2127 8.36114C42.5198 8.35568 41.8269 8.35295 41.1313 8.34749C41.1258 8.31474 41.1176 8.28198 41.1094 8.25195C41.8105 8.28744 42.5116 8.32566 43.2127 8.36114Z" fill="white"/>
<path d="M185.583 8.24805C185.591 8.27807 185.599 8.31083 185.608 8.34086C184.912 8.34632 184.219 8.34905 183.523 8.35451C183.515 8.32175 183.504 8.28626 183.496 8.25351C184.192 8.25351 184.887 8.25078 185.583 8.24805Z" fill="white"/>
<path d="M29.9648 47.4498C29.9758 47.4143 29.9813 47.3788 29.9813 47.3406C30.5865 47.3351 31.1918 47.3297 31.797 47.3242C31.1863 47.3652 30.5756 47.4061 29.9648 47.4498Z" fill="white"/>
<path d="M5.65625 46.782H6.85852C6.80922 46.9704 6.77636 47.0932 6.74349 47.2188C6.49701 46.7957 6.06979 46.9322 5.70281 46.883C5.68637 46.8503 5.66994 46.8148 5.65625 46.7793V46.782Z" fill="white"/>
<path d="M101.347 49.2901C101.331 49.4102 101.315 49.5303 101.295 49.6504C101.257 49.7514 101.221 49.8497 101.183 49.9507C101.049 49.8633 100.915 49.7787 100.77 49.6832C100.813 49.3119 101.021 49.2164 101.345 49.2874L101.347 49.2901Z" fill="white"/>
<path d="M36.5352 50.2276C37.0199 50.2276 37.5074 50.2222 37.9921 50.2358C38.1126 50.2386 38.2304 50.3095 38.3481 50.3505C37.8497 50.3614 37.354 50.3805 36.8556 50.375C36.7488 50.375 36.642 50.2822 36.5352 50.2304V50.2276Z" fill="white"/>
<path d="M208.498 47.4865C208.418 47.0033 208.043 47.0416 207.695 47.0416V46.9023C207.725 46.9078 207.753 46.916 207.777 46.9269C208.076 46.9269 208.374 46.9215 208.673 46.9215C208.616 47.1098 208.558 47.2982 208.5 47.4865H208.498Z" fill="white"/>
<path d="M182.559 50.2148C183.041 50.2203 183.52 50.2176 184.002 50.2367C184.12 50.2421 184.237 50.3104 184.355 50.3486C183.859 50.3595 183.361 50.3814 182.865 50.3732C182.761 50.3732 182.66 50.2694 182.559 50.2148Z" fill="white"/>
<path d="M125.125 43.291C125.574 43.2937 126.026 43.2856 126.475 43.3101C126.607 43.3156 126.735 43.4111 126.867 43.4657C126.393 43.4575 125.919 43.4575 125.448 43.4357C125.339 43.4302 125.232 43.3429 125.125 43.2937V43.291Z" fill="white"/>
<path d="M160.712 48.8443C160.537 48.5659 160.54 48.2902 160.712 48.0117V48.8443Z" fill="white"/>
<path d="M211.043 48.1697C211.505 48.1643 211.968 48.1506 212.431 48.1588C212.519 48.1588 212.606 48.2489 212.694 48.2953C212.127 48.2871 211.563 48.2789 210.996 48.2707C211.013 48.238 211.026 48.2025 211.043 48.1697Z" fill="white"/>
<path d="M41.1081 8.25078C41.1163 8.28353 41.1245 8.31356 41.13 8.34632C40.574 8.34905 40.0154 8.35451 39.4594 8.35724C39.4512 8.32175 39.443 8.28899 39.4375 8.25351C39.9934 8.25351 40.5494 8.25078 41.1053 8.24805L41.1081 8.25078Z" fill="white"/>
<path d="M132.733 49.5485C132.464 49.4721 132.122 49.5103 132.059 49.1172L132.051 49.1281C132.379 49.1745 132.705 49.2209 133.034 49.2646C133.039 49.311 133.042 49.3574 133.048 49.4038C132.944 49.4529 132.84 49.5021 132.735 49.5485H132.733Z" fill="white"/>
<path d="M129.825 49.6738C130.022 49.7721 130.219 49.8676 130.414 49.9659C130.4 50.0041 130.386 50.0396 130.373 50.0778C130.14 50.0287 129.91 49.9823 129.68 49.9332C129.68 49.8485 129.682 49.7666 129.685 49.682C129.732 49.6793 129.778 49.6766 129.825 49.6738Z" fill="white"/>
<path d="M89.3572 50.6231C89.2476 50.5576 89.1381 50.4921 89.0039 50.4129C89.108 50.3502 89.212 50.2846 89.3325 50.2109C89.4969 50.3583 89.6475 50.4921 89.7954 50.6259C89.6475 50.6259 89.5023 50.6259 89.3572 50.6231Z" fill="white"/>
<path d="M201.441 47.4606C201.57 47.3132 201.699 47.163 201.83 47.0156C201.882 47.032 201.932 47.0511 201.984 47.0675C201.997 47.2258 202.011 47.3841 202.025 47.5397L201.441 47.4606Z" fill="white"/>
<path d="M2.45312 43.3164C2.96799 43.3574 3.48286 43.3983 3.99772 43.4392C3.47738 43.4556 2.9543 43.5266 2.45312 43.3164Z" fill="white"/>
<path d="M63.3438 50.7116C63.3602 50.6843 63.3711 50.657 63.3766 50.627C63.8833 50.6379 64.3899 50.6488 64.8966 50.6597C64.379 50.6788 63.8614 50.6952 63.3438 50.7116Z" fill="white"/>
<path d="M215.734 47.6987C215.77 47.5321 215.806 47.3683 215.838 47.2155C216.334 47.1964 215.986 47.6113 216.173 47.7369C216.027 47.7259 215.88 47.7123 215.734 47.7014V47.6987Z" fill="white"/>
<path d="M211.04 48.1699C211.027 48.2027 211.01 48.2382 210.994 48.2709C210.627 48.3555 210.205 48.0908 209.877 48.4374C209.819 48.3747 209.762 48.3146 209.633 48.1699H211.04Z" fill="white"/>
<path d="M127.316 46.9007C127.53 46.8516 127.744 46.7778 127.96 46.7615C128.259 46.7396 128.56 46.7615 128.858 46.7669C128.678 46.8161 128.5 46.898 128.319 46.9089C127.985 46.928 127.651 46.9061 127.316 46.898V46.9007Z" fill="white"/>
<path d="M205.488 46.2172C205.524 46.0234 206.003 46.1463 205.803 45.7832C205.935 45.9142 206.063 46.0425 206.195 46.1736L206.118 46.3073L205.491 46.2172H205.488Z" fill="white"/>
<path d="M51.9641 49.5131C51.9833 49.393 51.8272 49.1856 52.1366 49.2074C52.1914 49.2101 52.2599 49.0545 52.3229 48.9727C52.4297 49.5241 52.3968 49.5732 51.9641 49.5131Z" fill="white"/>
<path d="M207.774 46.9266C207.749 46.9184 207.722 46.9102 207.697 46.902C207.659 46.8338 207.615 46.7682 207.585 46.6973C207.549 46.6181 207.527 46.5362 207.5 46.4543C207.596 46.3342 207.692 46.2168 207.862 46.0039C207.826 46.3697 207.801 46.6481 207.774 46.9266Z" fill="white"/>
<path d="M80.0391 47.8867C80.5074 47.8867 80.9784 47.8867 81.4467 47.8867C80.9784 48.0887 80.5074 48.0887 80.0391 47.8867Z" fill="white"/>
<path d="M95.5427 48.5836C95.3483 48.2942 95.5099 48.1769 95.7755 48.1523C96.0165 48.1304 96.2603 48.1523 96.5013 48.1523C96.4164 48.4607 96.1863 48.2697 96.0275 48.2724C95.7865 48.2779 95.5756 48.2724 95.5427 48.5809V48.5836Z" fill="white"/>
<path d="M132.733 49.547C132.837 49.4979 132.941 49.4487 133.045 49.4023C133.177 49.5361 133.226 49.6699 133.053 49.8091C132.892 49.7872 132.659 49.8555 132.733 49.547Z" fill="white"/>
<path d="M55.9766 47.5626C55.9766 47.5626 56.0067 47.5189 56.0067 47.5216C56.297 47.5598 56.59 47.5953 56.9324 47.639C56.9022 47.7809 56.8776 47.9038 56.8502 48.0239C56.8146 47.8383 56.7407 47.7209 56.5133 47.71C56.3326 47.7018 56.1546 47.6144 55.9766 47.5626Z" fill="white"/>
<path d="M104.562 48.2911C104.496 47.7615 104.891 47.8761 105.184 47.8516C105.233 47.8598 105.282 47.8652 105.332 47.8734C105.099 48.0563 104.677 47.8925 104.562 48.2911Z" fill="white"/>
<path d="M69.7801 48.3067C70.0841 47.9846 70.4839 48.2412 70.8235 48.1348C70.7414 48.1866 70.6647 48.2767 70.5798 48.2822C70.3141 48.3067 70.0457 48.2986 69.7773 48.304L69.7801 48.3067Z" fill="white"/>
<path d="M10.3218 48.7483C10.2095 48.7183 10.0972 48.6855 9.86719 48.6227C10.0808 48.5436 10.2342 48.489 10.3848 48.4316C10.3629 48.5381 10.341 48.6418 10.3191 48.7483H10.3218Z" fill="white"/>
<path d="M5.65284 46.7847C5.66654 46.8202 5.68297 46.8529 5.6994 46.8884C5.32694 46.902 4.95449 46.9157 4.58203 46.9293C4.90245 46.61 5.29682 46.8283 5.65284 46.7847Z" fill="white"/>
<path d="M133.856 47.8779C133.796 47.8342 133.678 47.7687 133.684 47.7523C133.752 47.5885 133.84 47.4357 133.922 47.2773C133.9 47.4766 133.878 47.6786 133.854 47.8779H133.856Z" fill="white"/>
<path d="M202.023 47.5762C202.243 47.5844 202.464 47.5762 202.681 47.6062C202.763 47.6171 202.837 47.7017 202.916 47.7509C202.623 47.6663 202.27 47.8901 202.023 47.5762Z" fill="white"/>
<path d="M216.18 47.7383C216.503 47.7383 216.823 47.7383 217.146 47.7383L217.125 47.7929C216.81 47.7765 216.495 47.7574 216.18 47.741V47.7383Z" fill="white"/>
<path d="M108.688 45.0991C109.016 44.9435 109.348 44.8452 109.676 45.0991C109.348 45.0991 109.016 45.0991 108.688 45.0991Z" fill="white"/>
<path d="M47.1484 46.7441C47.4415 46.7441 47.7318 46.7441 48.0248 46.7441C47.7345 47.0417 47.4415 46.9298 47.1484 46.7441Z" fill="white"/>
<path d="M195.143 46.6152C195.173 47.0465 195.499 46.8609 195.721 46.8909C195.557 46.9346 195.384 47.0383 195.233 47.011C195.006 46.9674 194.973 46.7954 195.14 46.618L195.143 46.6152Z" fill="white"/>
<path d="M124.238 42.2646C124.463 42.2646 124.69 42.2483 124.912 42.2756C124.98 42.2837 125.038 42.4039 125.101 42.4721C124.813 42.4039 124.526 42.3356 124.238 42.2646Z" fill="white"/>
<path d="M217.125 47.7897L217.147 47.7352C217.322 47.7352 217.497 47.7242 217.67 47.7461C217.837 47.7679 217.892 47.8607 217.752 47.9999C217.544 47.929 217.336 47.858 217.125 47.7897Z" fill="white"/>
<path d="M78.7965 48.0138H78.5473C78.5445 47.9893 78.5418 47.962 78.5391 47.9374C78.6733 47.9183 78.8074 47.9019 78.9389 47.8828C78.8923 47.9265 78.8431 47.9702 78.7965 48.0111V48.0138Z" fill="white"/>
<path d="M184.625 51.0611C184.833 51.0147 185.039 50.9683 185.247 50.9219C185.318 51.0393 185.392 51.1867 185.175 51.1867C184.992 51.1867 184.808 51.1048 184.625 51.0611Z" fill="white"/>
<path d="M193.23 46.7598C193.507 46.7625 193.786 46.7652 194.063 46.768C193.784 47 193.504 46.9481 193.23 46.7598Z" fill="white"/>
<path d="M200.961 48.6961C201.007 48.9609 201.186 48.9964 201.41 48.95C201.27 48.9827 201.131 49.0182 200.994 49.051C200.983 48.9308 200.975 48.8135 200.964 48.6934L200.961 48.6961Z" fill="white"/>
<path d="M197.961 49.538C198.09 49.4834 198.218 49.4288 198.347 49.377C198.287 49.5926 198.161 49.6527 197.961 49.538Z" fill="white"/>
<path d="M59.1775 46.6287C59.0734 46.3666 59.1062 46.1919 59.4404 46.1974C59.3527 46.3421 59.2651 46.484 59.1775 46.6287Z" fill="white"/>
<path d="M159.719 56.4688C159.765 56.6107 159.809 56.7499 159.856 56.8919C159.689 56.7909 159.582 56.668 159.719 56.4688Z" fill="white"/>
<path d="M212.75 49.5135C212.912 49.4725 213.076 49.4316 213.237 49.3906C213.169 49.7318 213.054 49.7619 212.75 49.5135Z" fill="white"/>
<path d="M174.581 8.26941C174.592 8.3049 174.595 8.34312 174.595 8.38133C174.42 8.42501 174.242 8.47142 174.066 8.51509C174.072 8.08652 174.387 8.30763 174.581 8.27214V8.26941Z" fill="white"/>
<path d="M105.331 47.8769C105.282 47.8687 105.233 47.8633 105.184 47.8551C105.227 47.6258 105.274 47.3992 105.318 47.1699C105.323 47.4047 105.326 47.6422 105.331 47.8769Z" fill="white"/>
<path d="M52.2371 47.7354C51.9495 47.4951 52.1111 47.3259 52.3247 47.1621C52.2946 47.3532 52.2672 47.5443 52.2371 47.7354Z" fill="white"/>
<path d="M209.246 50.6406C209.446 50.6351 209.646 50.6297 209.846 50.627C209.646 50.6324 209.446 50.6379 209.246 50.6406Z" fill="white"/>
<path d="M48.018 44.9904C47.8865 44.8102 47.547 44.6656 47.9057 44.3926C47.9331 44.4936 47.9632 44.5919 47.9824 44.6956C48.0016 44.7911 48.0043 44.8921 48.0153 44.9904H48.018Z" fill="white"/>
<path d="M4.19378 46.8867C4.28964 46.9304 4.38823 46.9713 4.48408 47.015C4.38001 47.0723 4.27594 47.1269 4.17188 47.1843C4.18009 47.086 4.18557 46.9877 4.19378 46.8867Z" fill="white"/>
<path d="M133.086 48.5835C133.25 48.3214 133.499 48.4415 133.724 48.4415C133.51 48.4879 133.3 48.5371 133.086 48.5835Z" fill="white"/>
<path d="M62.7148 47.5854C62.8189 47.5636 62.923 47.5445 63.1393 47.498C62.9915 47.6728 62.9066 47.7765 62.8189 47.8775C62.7833 47.7792 62.7477 47.6809 62.7148 47.5854Z" fill="white"/>
<path d="M94.7969 48.6992C95.0351 48.7238 95.2734 48.7511 95.5089 48.7757C95.2707 48.7511 95.0324 48.7238 94.7969 48.6992Z" fill="white"/>
<path d="M49.7773 45.6724C49.9307 45.5114 50.0868 45.4049 50.2374 45.6751C50.0841 45.6751 49.9307 45.6751 49.7773 45.6724Z" fill="white"/>
<path d="M10.3102 49.7194C10.05 49.6675 9.9651 49.5692 10.2198 49.3809C10.2499 49.4928 10.28 49.6074 10.3102 49.7194Z" fill="white"/>
<path d="M215.211 47.9063L215.191 47.849C215.369 47.8026 215.547 47.7562 215.723 47.707C215.553 47.7725 215.38 47.8408 215.211 47.9063Z" fill="white"/>
<path d="M226.598 45.3542C226.617 45.2641 226.636 45.174 226.666 45.043C226.754 45.1167 226.822 45.174 226.888 45.2313C226.792 45.2723 226.694 45.3132 226.598 45.3542Z" fill="white"/>
<path d="M132.922 50.2242C132.829 50.216 132.739 50.2078 132.574 50.1942C132.78 50.0986 132.908 50.0386 133.037 49.9785C132.999 50.0604 132.96 50.1423 132.922 50.2269V50.2242Z" fill="white"/>
<path d="M78.2615 49.6699C78.4971 49.7027 78.7162 49.7464 78.5108 50.0603C78.4669 50.0767 78.4231 50.0821 78.3793 50.0739C78.5792 49.8719 78.2177 49.8282 78.2615 49.6699Z" fill="white"/>
<path d="M78.8098 48.5459C78.714 48.535 78.6181 48.5241 78.5195 48.5131C78.5195 48.4831 78.525 48.4531 78.5277 48.4258C78.6209 48.4312 78.714 48.4367 78.8071 48.4449C78.8454 48.4776 78.8454 48.5131 78.8098 48.5486V48.5459Z" fill="white"/>
<path d="M226.207 45.5403C226.328 45.4803 226.448 45.4175 226.566 45.3574C226.445 45.4175 226.325 45.4803 226.207 45.5403Z" fill="white"/>
<path d="M195.867 45.6116C196.01 45.4342 196.155 45.4342 196.297 45.6116C196.155 45.6116 196.01 45.6116 195.867 45.6116Z" fill="white"/>
<path d="M201.459 48.3626H201.172C201.224 48.2889 201.268 48.2288 201.309 48.166C201.358 48.2315 201.41 48.297 201.459 48.3626Z" fill="white"/>
<path d="M214.531 48.3015C214.622 48.2169 214.712 48.1323 214.802 48.0449C214.712 48.1295 214.622 48.2142 214.531 48.3015Z" fill="white"/>
<path d="M78.3828 50.0749C78.4294 50.083 78.4732 50.0749 78.5143 50.0612C78.6129 50.0366 78.7114 50.0148 78.81 49.9902C78.706 50.2059 78.5499 50.1704 78.3828 50.0749Z" fill="white"/>
<path d="M202.91 48.0332C202.918 48.1642 202.927 48.298 202.938 48.429C202.929 48.298 202.921 48.1642 202.91 48.0332Z" fill="white"/>
<path d="M133.965 34.9842C134.069 34.9432 134.173 34.9023 134.28 34.8613C134.176 34.9023 134.072 34.9432 133.965 34.9842Z" fill="white"/>
<path d="M174.738 48.8448L175.086 48.793C175.029 48.9185 174.914 48.9358 174.738 48.8448Z" fill="white"/>
<path d="M123.867 40.9568C123.938 40.9076 124.01 40.8558 124.081 40.8066C124.116 40.8694 124.155 40.9295 124.19 40.9923C124.084 40.9813 123.974 40.9704 123.867 40.9568Z" fill="white"/>
<path d="M160.693 52.3115C160.633 52.2924 160.576 52.2733 160.469 52.2378C160.573 52.2023 160.633 52.1832 160.693 52.1641C160.693 52.2132 160.693 52.2623 160.693 52.3115Z" fill="white"/>
<path d="M39.2969 34.9573C39.4365 34.7444 39.5105 34.8426 39.568 35.0146C39.4776 34.9955 39.3873 34.9764 39.2969 34.9573Z" fill="white"/>
<path d="M49.082 46.0605C49.1916 46.1615 49.3176 46.2598 49.0875 46.3663L49.082 46.0605Z" fill="white"/>
<path d="M39.1602 51.1964C39.1793 51.1036 39.1985 51.0108 39.2204 50.918C39.3628 51.0463 39.3847 51.1473 39.1602 51.1964Z" fill="white"/>
<path d="M205.25 46.3732C205.324 46.3241 205.398 46.2777 205.475 46.2285C205.401 46.2777 205.327 46.3241 205.25 46.3732Z" fill="white"/>
<path d="M88.7114 48.8438C88.8483 48.9557 88.8319 49.0458 88.6758 49.1195C88.6867 49.0266 88.7004 48.9338 88.7114 48.8438Z" fill="white"/>
<path d="M96.5 47.8939C96.5 47.842 96.5 47.7901 96.5 47.7383C96.5329 47.7437 96.5685 47.7465 96.6013 47.7519C96.5685 47.7983 96.5329 47.8475 96.5 47.8939Z" fill="white"/>
<path d="M57.6484 47.4322C57.7443 47.394 57.8402 47.3585 57.9387 47.3203C57.8429 47.3585 57.747 47.394 57.6484 47.4322Z" fill="white"/>
<path d="M207.953 48.4199C207.964 48.4691 207.975 48.5209 207.988 48.5701C207.95 48.5974 207.945 48.6301 207.972 48.6683C207.879 48.6301 207.786 48.5919 207.695 48.5537C207.78 48.51 207.868 48.4636 207.953 48.4199Z" fill="white"/>
<path d="M34.2812 48.4707H34.5359C34.5359 48.4925 34.5359 48.5144 34.5359 48.5362C34.451 48.5335 34.3661 48.528 34.2812 48.5253V48.4707Z" fill="white"/>
<path d="M229.848 46.748C229.881 46.8463 229.914 46.9446 229.946 47.0429C229.695 47.0183 229.76 46.8873 229.848 46.748Z" fill="white"/>
<path d="M47.793 45.5228C47.8204 45.4764 47.8477 45.4273 47.8779 45.3809C47.8505 45.4273 47.8231 45.4764 47.793 45.5228Z" fill="white"/>
<path d="M205.48 24.5991C205.508 24.4981 205.535 24.3971 205.565 24.2988C205.538 24.3998 205.511 24.5008 205.48 24.5991Z" fill="white"/>
<path d="M50.3013 48.1492C50.3451 48.1547 50.3916 48.1629 50.4355 48.1683C50.3697 48.1874 50.304 48.2065 50.2383 48.2229C50.2602 48.1983 50.2794 48.1738 50.3013 48.1465V48.1492Z" fill="white"/>
<path d="M229.649 34.8427C229.606 34.8427 229.565 34.8373 229.523 34.8236C229.565 34.7854 229.606 34.7472 229.647 34.709L229.652 34.8427H229.649Z" fill="white"/>
<path d="M101.18 50.2217C101.18 50.178 101.185 50.1316 101.188 50.0879C101.199 50.1206 101.213 50.1507 101.215 50.1834C101.215 50.1944 101.193 50.208 101.18 50.2217Z" fill="white"/>
<path d="M229.523 25.5854C229.565 25.5718 229.608 25.5663 229.652 25.569C229.652 25.6127 229.647 25.6564 229.644 25.7028C229.603 25.6646 229.565 25.6264 229.523 25.5854Z" fill="white"/>
<path d="M110.637 25.5854C110.678 25.5718 110.722 25.5663 110.765 25.569C110.765 25.6127 110.76 25.6564 110.757 25.7028C110.716 25.6646 110.678 25.6264 110.637 25.5854Z" fill="white"/>
<path d="M49.0825 45.0859L49.1154 45.2552C49.1017 45.2197 49.0825 45.1842 49.0716 45.146C49.0661 45.1269 49.0798 45.105 49.0825 45.0859Z" fill="white"/>
<path d="M84.9215 34.9373C84.916 34.8991 84.9078 34.8581 84.9023 34.8199C84.9215 34.7899 84.9434 34.7844 84.9708 34.8063C84.9735 34.8417 84.9818 34.88 84.9763 34.9154C84.9763 34.9236 84.9379 34.9291 84.9188 34.9346L84.9215 34.9373Z" fill="white"/>
<path d="M11.3631 25.5365L11.3001 25.5529H11.2344C11.2371 25.5092 11.2426 25.4656 11.2453 25.4219C11.2837 25.4601 11.3248 25.4983 11.3631 25.5393V25.5365Z" fill="white"/>
<path d="M195.062 44.5234C195.073 44.5917 195.082 44.6599 195.093 44.7309C195.082 44.6627 195.073 44.5944 195.062 44.5234Z" fill="white"/>
<path d="M55.3125 48.0294C55.3371 47.9721 55.3618 47.9147 55.3892 47.8574C55.3645 47.9147 55.3399 47.9721 55.3125 48.0294Z" fill="white"/>
<path d="M4.17188 45.2266C4.18283 45.2839 4.19378 45.3385 4.20748 45.3958C4.19652 45.3385 4.18557 45.2839 4.17188 45.2266Z" fill="white"/>
<path d="M185.426 34.9425C185.448 34.9206 185.472 34.8988 185.494 34.877C185.519 34.9179 185.546 34.9588 185.571 34.9971C185.522 34.978 185.472 34.9588 185.426 34.9425Z" fill="white"/>
<path d="M11.2383 34.9931C11.2821 34.9904 11.3259 34.9931 11.367 35.0095C11.3259 35.0477 11.2876 35.0859 11.2465 35.1241C11.2465 35.0805 11.241 35.0368 11.2383 34.9931Z" fill="white"/>
<path d="M10.3906 48.4305C10.4372 48.4305 10.4837 48.4305 10.5303 48.4277C10.4837 48.4277 10.4372 48.4277 10.3906 48.4305Z" fill="white"/>
<path d="M185.352 35.9598C185.368 35.8916 185.384 35.8261 185.404 35.7578C185.387 35.8261 185.371 35.8943 185.352 35.9598Z" fill="white"/>
<path d="M175.165 48.3128C175.201 48.2718 175.242 48.2664 175.289 48.2964C175.234 48.3455 175.179 48.3974 175.124 48.4465L175.086 48.452C175.113 48.4056 175.138 48.3619 175.165 48.3155V48.3128Z" fill="white"/>
<path d="M110.759 34.8435C110.715 34.8435 110.674 34.8381 110.633 34.8244C110.674 34.7862 110.715 34.748 110.756 34.707C110.756 34.7507 110.759 34.7971 110.762 34.8408L110.759 34.8435Z" fill="white"/>
<path d="M0 39.2227C0.0164319 39.2909 0.0328654 39.3564 0.0465586 39.4247C0.0301267 39.3564 0.0136932 39.2909 0 39.2227Z" fill="white"/>
<path d="M195.723 46.8682C195.753 46.8272 195.783 46.789 195.816 46.748C195.786 46.789 195.756 46.8272 195.723 46.8682Z" fill="white"/>
<path d="M205.809 22.2778C205.82 22.2123 205.833 22.1468 205.844 22.084C205.833 22.1495 205.82 22.215 205.809 22.2778Z" fill="white"/>
<path d="M214.434 48.6118C214.447 48.5463 214.461 48.4808 214.475 48.418C214.461 48.4835 214.447 48.549 214.434 48.6118Z" fill="white"/>
<path d="M224.734 47.5645C224.745 47.6272 224.759 47.69 224.77 47.7555C224.759 47.6928 224.745 47.63 224.734 47.5645Z" fill="white"/>
<path d="M72.8711 48.6992C72.893 48.7593 72.9149 48.8193 72.9368 48.8767C72.9149 48.8166 72.893 48.7565 72.8711 48.6992Z" fill="white"/>
<path d="M52.352 46.9157C52.3411 46.8611 52.3301 46.8065 52.3164 46.752C52.3328 46.7874 52.352 46.8202 52.3602 46.8557C52.3657 46.8721 52.3547 46.8939 52.3493 46.9157H52.352Z" fill="white"/>
<path d="M205.804 20.1669C205.785 20.1287 205.758 20.0932 205.747 20.0522C205.741 20.0359 205.763 20.0113 205.774 19.9922C205.785 20.0495 205.796 20.1096 205.804 20.1669Z" fill="white"/>
<path d="M88.582 19.2695C88.5985 19.3378 88.6149 19.4033 88.6286 19.4715C88.6122 19.4033 88.5957 19.3378 88.582 19.2695Z" fill="white"/>
<path d="M11.2422 18.6367C11.286 18.6367 11.3271 18.6449 11.3682 18.6558C11.3271 18.694 11.286 18.735 11.2449 18.7732C11.2449 18.7268 11.2449 18.6831 11.2422 18.6367Z" fill="white"/>
<path d="M85.5938 42.4873C85.602 42.4464 85.6074 42.4054 85.6129 42.3672C85.6458 42.3945 85.6786 42.4191 85.706 42.4491C85.7115 42.4545 85.6841 42.4873 85.6732 42.5064L85.6294 42.5201L85.5965 42.4873H85.5938Z" fill="white"/>
<path d="M99.9263 17.6875C99.9318 17.7284 99.9427 17.7694 99.951 17.8103L99.8934 17.824L99.8359 17.8103C99.8661 17.7694 99.8962 17.7284 99.9263 17.6875Z" fill="white"/>
<path d="M85.4662 17.6533H85.3978L85.332 17.6369L85.4498 17.5195L85.4635 17.6533H85.4662Z" fill="white"/>
<path d="M94.3555 49.5173C94.3801 49.4682 94.4075 49.4191 94.4322 49.3672C94.4075 49.4163 94.3801 49.4655 94.3555 49.5173Z" fill="white"/>
<path d="M129.828 49.6736C129.781 49.6763 129.734 49.6791 129.688 49.6818C129.685 49.6381 129.682 49.5945 129.68 49.5508C129.729 49.5917 129.778 49.6327 129.83 49.6736H129.828Z" fill="white"/>
<path d="M220.066 49.6346C220.102 49.5991 220.135 49.5636 220.17 49.5254C220.135 49.5609 220.102 49.5964 220.066 49.6346Z" fill="white"/>
<path d="M111.448 11.7196C111.437 11.6568 111.429 11.594 111.418 11.5312C111.432 11.5722 111.451 11.6104 111.462 11.6514C111.467 11.6705 111.454 11.695 111.448 11.7169V11.7196Z" fill="white"/>
<path d="M0.0578722 11.5488C0.0441789 11.6143 0.0304858 11.6799 0.0195312 11.7454C0.0332245 11.6799 0.0469176 11.6143 0.0578722 11.5488Z" fill="white"/>
<path d="M111.407 10.7626C111.396 10.6998 111.385 10.637 111.371 10.5742C111.382 10.637 111.393 10.6998 111.407 10.7626Z" fill="white"/>
<path d="M62.6986 9.1875C62.7095 9.24755 62.7177 9.31034 62.7287 9.37039C62.715 9.33218 62.6958 9.29396 62.6849 9.25301C62.6794 9.23391 62.6931 9.20934 62.6986 9.1875Z" fill="white"/>
<path d="M195.84 46.5005C195.832 46.4459 195.821 46.3886 195.812 46.334C195.826 46.3695 195.845 46.405 195.854 46.4404C195.859 46.4568 195.845 46.4787 195.84 46.5005Z" fill="white"/>
<path d="M185.215 50.5072C185.226 50.4608 185.237 50.4116 185.25 50.3652C185.239 50.4116 185.229 50.4608 185.215 50.5072Z" fill="white"/>
<path d="M52.3008 46.5024C52.3145 46.4479 52.3282 46.3905 52.3391 46.3359C52.3254 46.3905 52.3117 46.4479 52.3008 46.5024Z" fill="white"/>
<path d="M0.0195312 8.7793C0.0332245 8.81478 0.052396 8.84754 0.0633506 8.88576C0.0688279 8.90214 0.0551344 8.92397 0.0523958 8.94581C0.0414412 8.89122 0.0304864 8.83662 0.0222705 8.78203L0.0195312 8.7793Z" fill="white"/>
<path d="M85.3242 8.39606C85.3653 8.38514 85.4091 8.37968 85.4502 8.37695C85.4502 8.42336 85.4502 8.46704 85.4502 8.51344C85.4091 8.47522 85.368 8.43428 85.327 8.39606H85.3242Z" fill="white"/>
<path d="M89.9219 50.6563C89.9712 50.6563 90.0177 50.6562 90.067 50.659C90.0177 50.659 89.9712 50.659 89.9219 50.6563Z" fill="white"/>
<path d="M6.88209 50.9043C6.8684 50.9671 6.8547 51.0271 6.84375 51.0899C6.85744 51.0271 6.87114 50.9671 6.88209 50.9043Z" fill="white"/>
<path d="M34.1484 47.4678C34.1567 47.4295 34.1621 47.3886 34.1676 47.3477C34.2005 47.3913 34.2306 47.4323 34.2635 47.476L34.2059 47.4869L34.1512 47.4678H34.1484Z" fill="white"/>
<path d="M207.558 8.27344C207.564 8.31438 207.569 8.35533 207.577 8.39355L207.545 8.42631L207.501 8.41266C207.501 8.37171 207.492 8.33076 207.498 8.29255C207.498 8.28436 207.539 8.2789 207.561 8.27344H207.558Z" fill="white"/>
<path d="M88.6715 8.27344C88.677 8.31438 88.6825 8.35533 88.6907 8.39355L88.6578 8.42631L88.614 8.41266C88.614 8.37171 88.6058 8.33076 88.6113 8.29255C88.6113 8.28436 88.6523 8.2789 88.6742 8.27344H88.6715Z" fill="white"/>
<path d="M0.237328 8.35352C0.190771 8.35898 0.144213 8.36443 0.0976562 8.37262C0.144213 8.36716 0.190771 8.3617 0.237328 8.35352Z" fill="white"/>
<path d="M175.574 48.2767C175.569 48.2331 175.569 48.1921 175.574 48.1484C175.629 48.1785 175.684 48.2085 175.739 48.2385C175.684 48.2522 175.629 48.2631 175.574 48.2767Z" fill="white"/>
<path d="M185.203 27.3379C186.635 27.3515 188.068 27.3652 189.503 27.3816C189.352 27.4225 189.202 27.4935 189.051 27.4962C187.903 27.5071 186.756 27.5071 185.608 27.4962C185.472 27.4962 185.337 27.3952 185.203 27.3406V27.3379Z" fill="white"/>
<path d="M188.938 16.9419C187.697 16.9556 186.459 16.9692 185.219 16.9829C185.326 16.931 185.435 16.8382 185.542 16.8355C186.667 16.83 187.79 16.8409 188.916 16.8464C188.924 16.8791 188.932 16.9092 188.938 16.9419Z" fill="white"/>
<path d="M188.936 16.9412C188.93 16.9085 188.922 16.8757 188.914 16.8457C189.339 16.8812 189.763 16.9194 190.188 16.9549C189.771 16.9494 189.352 16.9467 188.936 16.9412Z" fill="white"/>
<path d="M174.471 48.1473L174.611 48.2401C174.54 48.2401 174.466 48.2373 174.395 48.2346C174.419 48.2019 174.444 48.1746 174.471 48.1445V48.1473Z" fill="white"/>
<path d="M39.3111 27.3379C40.7079 27.3515 42.1046 27.3652 43.5013 27.3788C43.326 27.4198 43.1535 27.4935 42.9782 27.4962C41.8526 27.5071 40.727 27.5071 39.6014 27.4962C39.4618 27.4962 39.3194 27.4061 39.1797 27.357H39.2454L39.3084 27.3406L39.3111 27.3379Z" fill="white"/>
<path d="M42.9324 16.9525C41.7274 16.9662 40.5224 16.9771 39.3174 16.9908C39.2763 16.9798 39.2352 16.9744 39.1914 16.9716C39.2818 16.9252 39.3722 16.8379 39.4598 16.8379C40.61 16.8379 41.7603 16.8488 42.9105 16.857C42.916 16.8898 42.9242 16.9225 42.9324 16.9553V16.9525Z" fill="white"/>
<path d="M42.9321 16.9498C42.9238 16.9171 42.9156 16.8843 42.9102 16.8516C43.3374 16.887 43.7619 16.9198 44.1891 16.9553C43.7701 16.9553 43.3511 16.9498 42.9293 16.9471L42.9321 16.9498Z" fill="white"/>
<path d="M36.2323 48.5491C36.1857 48.5545 36.1364 48.5627 36.0898 48.5682C36.0898 48.3935 36.0898 48.2188 36.0898 48.0059C36.2834 48.1387 36.3308 48.3198 36.2323 48.5491Z" fill="white"/>
<path d="M39.3084 27.3373L39.2454 27.3537H39.1797C39.1824 27.31 39.1852 27.2663 39.1906 27.2227C39.229 27.2609 39.2701 27.2991 39.3084 27.34V27.3373Z" fill="white"/>
<path d="M49.9575 22.1107C49.9465 22.0533 49.9356 21.9987 49.9219 21.9414C49.9328 21.9987 49.9438 22.0533 49.9575 22.1107Z" fill="white"/>
<path d="M31.7901 46.9216C31.774 46.8948 31.7605 46.8706 31.7578 46.8652C31.7578 46.8733 31.7686 46.9028 31.7767 46.935L31.7901 46.9189V46.9216Z" fill="white"/>
<path d="M39.1914 16.9707C39.2352 16.9707 39.2763 16.9789 39.3174 16.9898C39.2763 17.028 39.2352 17.069 39.1941 17.1072C39.1941 17.0608 39.1941 17.0171 39.1941 16.9707H39.1914Z" fill="white"/>
<path d="M103.971 49.4942C103.267 49.4997 102.563 49.5051 101.862 49.5133C101.679 49.5133 101.49 49.5324 101.43 49.2949C102.035 49.3304 102.64 49.3604 103.245 49.4041C103.489 49.4205 103.73 49.4642 103.971 49.4942Z" fill="white"/>
<path d="M207.987 48.5723C208.225 48.6023 208.548 48.4658 208.63 48.9244C208.332 48.9462 208.107 48.9326 207.97 48.6678C207.943 48.6323 207.948 48.5996 207.987 48.5723Z" fill="white"/>
<path d="M208.496 47.4869C208.554 47.2986 208.611 47.1102 208.669 46.9219C208.978 46.9874 209.019 47.1676 208.792 47.4624C208.693 47.5524 208.597 47.6398 208.499 47.7299C208.499 47.648 208.499 47.5688 208.499 47.4869H208.496Z" fill="white"/>
<path d="M218.602 25.4043C218.643 25.4289 218.667 25.4644 218.673 25.5108C218.648 25.4753 218.623 25.4398 218.602 25.4043Z" fill="white"/>
<path d="M4.11867 43.4577C4.12944 43.4416 4.13752 43.4282 4.1483 43.4121C4.13752 43.4228 4.12406 43.4336 4.11328 43.4443L4.11867 43.4577Z" fill="white"/>
<path d="M132.058 49.1168C131.858 49.1195 131.718 49.0567 131.699 48.7974C131.992 48.7592 131.987 48.9775 132.047 49.125L132.055 49.114L132.058 49.1168Z" fill="white"/>
<path d="M163.485 51.8971C163.323 51.7579 163.162 51.6187 163 51.4794C163.452 51.3539 163.331 51.747 163.482 51.8998L163.485 51.8971Z" fill="white"/>
</svg>
