<svg width="280" height="94" viewBox="0 0 280 94" fill="none" xmlns="http://www.w3.org/2000/svg">
<path d="M91.8799 59.9177V58.9957L91.2498 57.2812L91.3764 59.2488L91.0418 60.002L90.8367 60.9421H90.7734L90.8187 62.1202L91.7683 62.5963L91.9341 64.2143L93.4988 65.3863L92.326 63.7683L92.7722 62.4848L91.9613 61.7586L91.8497 60.9782L92.1421 60.7673L91.9221 60.5444L91.8799 59.9177Z" fill="white"/>
<path d="M57.6835 59.9605H57.6654L56.8273 59.1229L56.4927 58.0352L56.1581 59.0385L56.0314 59.9605L56.0736 60.8373L55.8867 60.8403L58.0151 63.7117L57.9579 61.8979L58.19 60.9608L58.0574 60.9638L57.6835 59.9605Z" fill="white"/>
<path d="M70.9951 61.368L71.2453 62.5973L72.406 63.4289L72.9215 63.7122L71.8874 62.3473L72.1678 60.8106L72.3638 60.7986L72.2372 60.1688L72.0322 60.0694L70.5218 59.9609L70.4795 60.3797L70.3047 60.8317L70.8564 61.1601L70.9951 61.368Z" fill="white"/>
<path d="M117.728 62.7922L117.671 62.0661L118.063 61.0326L118.693 60.8368L118.34 60.0323H118.358L117.924 59.4146L117.963 56.5703L117.378 58.8723L117.215 59.8847H117.221L117.128 61.0115H117.125L117.197 62.0088L117.728 62.7922Z" fill="white"/>
<path d="M35.7062 58.0781L38.2446 49.0993H38.2416V48.8582L38.2296 48.8492L35.7303 48.7227L35.6489 48.7287L34.1415 53.5013L33.6019 54.339H33.6049L33.1406 55.0651L35.7152 58.1957L35.7062 58.0781Z" fill="white"/>
<path d="M101.884 30.0994L100.44 31.3769L99.7495 35.1432L98.2843 29.9307L87.1237 30.0151L86.5177 31.9404L85.8273 38.5118L84.2988 36.252L84.0064 35.9387L83.2738 35.6675L81.2629 30.1838L70.7323 30.1627L69.2672 31.3559L69.1194 32.8202C68.9506 32.4857 68.408 30.0361 68.408 30.0361L56.2434 30.0994L55.7188 31.8379L54.3983 30.0181L42.7975 30.0813L42.2307 30.8346L41.9594 33.5976L41.1846 34.2875L41.1213 36.005H38.1909L37.4161 36.8848L37.0604 38.4546L33.7954 35.4626L33.5662 33.7663L29.7767 30L18.9084 29.8945L18.4894 30.1446L17.588 33.9742L16.7499 34.8751L16.7288 35.3783L16.973 36.71L16.1348 37.4904L15.6314 40.0575C15.6314 40.0575 14.3471 44.2426 14.3471 44.4656C14.3471 44.6886 14.5159 45.8606 14.5159 46.0294C14.5159 46.1981 12.897 48.3735 12.7854 48.5965C12.6739 48.8194 11.8931 52.1669 11.8931 52.3899C11.8931 52.6128 9.54757 57.4668 9.38176 57.9158C9.21595 58.3647 9.27021 60.8746 9.27021 60.8746L18.3145 71.4202L29.7556 71.2033L30.865 70.4078L31.7031 62.8752L32.4779 63.5863L33.7562 64.7584H37.3166L43.117 71.3509L54.2777 71.2877V68.5247L55.6796 69.8836L55.8484 69.9047L57.2503 71.369L67.3437 71.3268L68.7245 69.4226L70.3374 71.3057L81.5614 71.2636L82.5653 62.119L87.6754 71.2425L98.417 71.1792L99.653 66.9308L101.35 71.2425L125.45 71.2003L126.454 69.3171L126.391 30.0813L101.893 30.1024L101.884 30.0994ZM42.8789 33.5252L43.1864 31.0154L53.319 30.9581L53.2919 33.4138L50.7233 41.784L49.3848 43.1519L46.9277 43.0947L46.5659 42.4529H45.562L44.7812 42.1455L44.7541 36.6769L44.0577 35.6163L42.2156 35.559L42.1583 34.5256L42.8849 33.5222L42.8789 33.5252ZM52.2307 70.3837H43.2135L40.4761 67.3436L38.2693 64.442L36.5117 62.5739L36.3157 61.1247H36.789L36.7529 60.8897H36.5931L35.8454 59.9586L35.6163 59.9797L35.3359 62.4082L36.5087 63.6647L35.5047 63.8876C35.5047 63.8876 34.528 63.9449 34.4164 63.8876C34.3049 63.8304 33.524 63.4959 33.524 63.4959L31.3172 61.4591L29.9485 60.1756L31.0941 59.9797L32.49 60.0912H33.1321L33.105 59.7839L31.4861 59.0035L29.5596 59.1722L28.8331 59.0336L25.957 55.2673L26.2404 55.2553L26.2102 55.2402L26.2313 54.3303L26.1801 53.1763L27.1568 48.8224L24.5883 48.6838L22.4116 52.6189L20.7655 53.6222L17.6935 53.4535L17.386 51.1365L17.3016 53.8723L22.493 54.4297L22.4357 56.1863L17.998 56.2707L16.9368 55.879L16.1288 54.4839L16.2404 56.6895L21.5735 57.1083L21.4619 59.2295L20.5394 60.0099L20.1113 60.495L24.2657 65.6442L22.8126 65.6713L22.0438 65.5599L21.7363 66.521L21.2328 66.5481L20.4098 66.8977C20.4098 66.8977 20.4791 67.0242 20.5213 67.0363C20.5334 67.0393 20.5877 67.0453 20.657 67.0513L21.9594 67.0784L22.282 66.9941L22.8668 66.6747L23.524 66.5271L23.5421 66.515L24.2114 66.6626L24.8596 66.6205L28.0432 70.4711L18.6642 70.5555L10.3736 60.9288V60.6004L10.1927 60.4678L10.2349 59.9225H10.238L10.3465 58.3888L13.919 47.9547L14.9802 46.867L17.603 46.8399L17.7719 50.2446L18.3296 46.7013L17.7719 46.0052L15.1761 45.948L14.9259 45.026L16.7137 38.554L17.6905 37.632H20.4821L22.3423 36.9782H22.3181L22.4478 36.942L22.4629 36.936H22.4749L24.2265 36.4479L21.9654 36.4178L20.9283 36.6166L20.0058 36.701L18.2482 36.4087L17.6633 35.782V35.4054L18.3326 34.402L19.632 30.928L29.1104 30.9431L29.3335 31.5848L29.026 33.4831L28.0221 34.6822L28.0492 36.942L27.1026 36.9631L27.1207 36.9722L26.4574 37.0113L24.338 37.3367L28.414 37.394L29.7827 36.695L30.1445 36.7221L30.9555 37.5597L30.9283 38.786L30.0902 39.9008L30.0631 42.1606H36.2615L36.4001 41.6574L36.5961 41.3772L37.2654 41.1271L37.5156 39.3133L38.9959 36.6347H43.8828V41.1211L43.9099 42.1335L41.7393 42.4137L39.9093 42.4499L39.9214 42.4408L37.2081 42.4137L36.8735 41.9678L36.7619 42.248L36.7348 43.0284L42.6256 42.9169L46.171 43.1127L46.7559 44.1733L50.1053 44.089L50.6902 44.7036L50.7173 45.0109L47.0875 59.8261L46.4544 60.3835L46.78 63.0349L50.3525 66.6898V67.5003L49.5415 67.5846L49.0682 67.6961L48.8994 68.5337L47.5307 68.5609L46.9458 69.1183L47.1146 69.3985L47.7568 69.2298L49.3214 69.5642H50.2138L52.3905 69.3683L52.2217 70.4018L52.2307 70.3837ZM25.2063 63.1434L25.8334 62.5589L25.749 63.2278L25.8756 64.7343L25.2063 65.361L25.5741 64.5987L25.2063 63.1434ZM52.3844 68.0396L51.4438 68.3951L51.8418 66.8886L51.5283 65.3821C51.5283 65.3821 52.3031 66.1986 52.3875 66.3222C52.4719 66.4487 52.3875 68.0396 52.3875 68.0396H52.3844ZM57.1719 70.2723L56.0263 68.8501L55.0495 67.6238L54.5189 66.4246L54.0999 65.364L52.8728 63.9148L50.4731 61.0132L51.3202 60.8836H50.7957V59.9255L50.461 58.7112L57.2021 31.4221L57.6211 30.919L67.0423 31.1269L67.2925 31.8801L66.581 36.7341L65.7007 37.5296L63.6476 37.5718L62.0136 38.3672L63.8134 38.1171L65.8665 38.5781L61.5524 59.9225L61.1635 60.4257H61.6096L64.4013 66.5933L65.7399 69.299L66.4092 70.3596L57.1689 70.2753L57.1719 70.2723ZM97.2623 70.2723L87.9949 70.1035L86.9609 67.9281L87.0453 67.6208L87.4372 67.5635L88.2542 67.7865L89.9726 67.678H89.9786L90.871 67.6208L90.9554 67.3978L89.0561 67.2863L88.5527 66.7018L88.0492 66.5331H86.5418L85.6766 65.6412L84.5882 63.5773L83.5994 60.9077H83.4939L83.4999 59.9647L83.4577 58.6269L84.127 57.8736L84.2958 53.6041L85.0917 52.7243H86.18L87.603 53.562L89.7375 52.9352L91.5795 53.6463L91.8719 54.0651L92.1222 57.5813L92.6678 54.1073L91.9141 53.0196L91.6217 52.9352L89.7103 52.5586L87.8683 52.643V52.6369L87.8532 52.643H87.0995L84.335 51.4709L81.9473 51.6396L81.5282 51.3052L81.4016 46.9935L83.1592 46.6169L80.7715 45.9902L78.8029 46.0745L78.6763 47.7076L77.7538 51.4317L77.0423 52.185L73.105 51.4317L71.7242 50.805L70.6419 51.3082H70.6298L70.259 51.5583L71.9744 51.6005L72.6437 52.3959L75.155 52.5646L76.2433 53.2335L77.1237 55.4089L76.8734 59.3862L76.5509 59.8893H76.5539L75.9027 60.8806L76.9006 60.9077L80.4188 70.3657H70.4248L68.4984 67.3797L67.0182 64.3095L66.2645 62.6915L64.7299 60.9047L64.9862 60.8836L64.5611 60.3051L64.6033 59.9707L65.357 58.5907L66.4875 52.0193L67.0332 51.3926L67.7869 51.5613L69.4872 51.0913H69.4842L70.5515 50.7658L70.1384 50.6604L68.3688 50.7538L68.3778 50.7478L67.3709 50.808L66.5328 50.347L70.4279 31.847L71.3504 31.0094L80.2711 30.9672L80.5213 31.3016L80.3947 35.4867L79.8912 35.8634L78.007 35.9477L80.4791 36.5323L82.8668 36.5744L83.2436 36.9932L83.2014 40.5095L82.5322 41.3893L82.4478 42.1847L85.2545 41.9768L86.0926 41.097L87.2654 36.8275L87.6844 36.7853L88.1035 37.5386L90.3645 37.5808L91.1182 37.9152L96.5629 38.1653L96.4061 38.096L94.4435 37.5597L92.3091 37.4332H92.3151L91.878 37.4542L91.4167 36.5323L89.0712 36.5744L87.1448 34.399L87.1026 32.0127L88.0251 31.0094L97.4462 30.9672L97.4884 38.4154L96.4845 48.1264L94.8505 59.9285V60.3895L94.6003 60.974H94.546L97.5759 67.6298L97.2684 70.2813L97.2623 70.2723ZM125.502 35.6042L124.664 36.6498H124.465L124.477 36.6709L112.167 36.6106L111.555 36.6528L111.387 38.9969L110.548 41.9678L116.747 42.1757L117.166 42.8868V45.1465L117.793 45.942L117.624 45.481L117.666 44.559L118.212 42.8416L119.05 42.3384H124.703L124.661 47.8221L123.699 48.7019H122.776L118.001 48.7441L117.832 47.9065L117.497 47.3219L117.371 47.8673L117.163 48.7471L111.462 48.7049L110.672 48.7893L110.503 50.9225L109.792 54.3122L122.228 54.27L122.478 54.5201L122.351 55.3155L118.917 55.4421L118.498 56.0266L119.964 55.8579L122.728 55.9844L123.524 54.5201L124.655 54.4779L124.612 59.9074H124.621V60.0731L124.214 60.6215L124.667 60.9469L124.639 64.0443L124.193 64.7132L123.271 64.7705L122.517 65.5237L120.033 65.8039L119.418 66.2499L119.361 66.6415L119.668 66.6988L121.818 66.3071L123.156 66.2529L124.495 66.7259V70.1306L101.489 70.2692L100.316 66.8645L98.7607 61.0011H98.3899L98.4743 59.9164L98.5165 53.9326L99.1435 53.4294L104.254 53.2215L104.127 59.9164L103.005 60.5823L104.1 60.8234L104.407 61.0885L104.923 61.8147L106.053 62.9867L105.649 64.662L105.643 64.6198L105.649 65.0266L105.93 65.6111L106.572 65.9455L106.322 64.8307L106.852 62.348L105.96 61.8749L106.129 60.9529L107.329 60.8143H107.383L106.602 60.3805L106.183 60.2961L106.014 59.9195L104.507 57.1565L104.841 52.8448L104.462 52.6279V52.6369L102.372 52.6791H100.657L100.666 52.6701L99.1918 52.3417L100.365 39.4519L103.841 39.1174L107.567 38.5721L105.056 38.1955H104.594L103.045 38.78L101.203 38.2768L100.995 37.4392L101.163 31.7054L102.086 31.0365L125.538 30.9521L125.496 35.5982L125.502 35.6042Z" fill="white"/>
<path d="M139.701 47.9745L152.822 47.863L154.218 36.8142L154.377 29.7637L128.541 29.7848L127.305 31.3546L127.474 66.8391L128.366 67.3423V71.193H153.66L154.552 60.5901L154.609 53.7836L139.644 53.7264L139.701 47.9775V47.9745ZM153.018 54.2235L153.94 55.1847V60.2496L153.117 60.9064L153.856 61.03L152.74 70.3764L145.592 70.2378L145.312 68.8157L146.177 67.4206V66.4986L146.038 64.8234L146.207 64.2509L146.439 63.4916L146.458 63.2898L146.038 62.648H145.9L145.677 63.7086L145.173 64.6848L145.119 67.0018L144.616 67.7551L144.42 68.8428L144.169 70.4337L129.373 70.3222L129.204 69.123L129.819 68.4812L131.438 68.2854L132.749 68.5656L133.587 68.6499L133.003 67.6737L130.072 67.6165L129.346 66.5559L128.453 66.3058L128.64 60.3129L128.523 60.2074V59.9151L128.438 47.863L129.527 46.4408L130.992 46.2721L130.365 46.0642L128.354 46.1064L128.48 31.8336L129.276 30.6616H153.774L153.648 32.379L152.852 32.8822L152.683 35.9374L151.972 36.5641L140.895 36.5219L140.54 36.5641L139.744 37.233L139.659 40.9571L138.906 41.2916L137.817 40.3304L137.483 40.3033L134.299 40.8336L132.749 40.689L131.408 40.6227L133.753 41.2494L137.733 41.165L139.828 43.0903L139.62 47.5677L138.698 53.3859L139.578 54.3079L153.021 54.2235H153.018Z" fill="white"/>
<path d="M146.573 63.1325L147.07 62.2889L147.504 62.1081V62.1111L147.908 61.8972L148.27 60.9782L149.09 60.8155L148.556 60.7131L147.595 60.002H147.598L146.986 59.5832L147.112 57.7L146.609 57.0703V57.7422L145.94 59.5832L146.193 59.9176L146.232 60.9632L145.867 60.9601L146.289 61.7586L146.573 63.1325Z" fill="white"/>
<path d="M135.989 61.7743L135.289 62.5396L135.024 63.2808L134.801 63.7117L134.593 63.8231H134.108H134.111L134.035 63.8804L134.089 64.941L134.789 65.9172L134.704 64.718L135.431 63.8804L135.82 63.0699L136.239 62.5697L137.216 62.2353L137.665 61.3675L138.334 60.6715L138.654 60.6022L138.138 59.9363L137.734 59.6682L137.189 59.3307L136.562 58.4961L136.142 59.165H136.112L135.85 60.8372L135.989 61.7743Z" fill="white"/>
<path d="M169.766 36.2715L166.875 36.3558L166.959 37.9859L167.882 38.8235L167.924 41.6287L170.562 41.713L170.478 36.856L169.766 36.2715Z" fill="white"/>
<path d="M260.5 51.464L261.531 51.8255L260.554 51.0723L260.012 51.1084L260.461 51.47L260.5 51.464Z" fill="white"/>
<path d="M160.386 58.4534L161.266 57.4893L161.058 54.0996L160.513 55.1451L160.428 57.7002L159.406 58.1732L160.214 58.6342L160.386 58.4534Z" fill="white"/>
<path d="M177.92 62.3464L178.339 63.1267L178.363 63.0122L178.342 62.3554L178.195 61.3942L178.122 60.7555L178.264 60.5867H178.228L178.137 59.4147L178.059 58.8301L177.64 58.3691L177.516 59.3725L177.221 60.5867H176.977L177.332 62.039L177.92 62.3464Z" fill="white"/>
<path d="M202.684 42.6749L201.595 41.4607L201.553 40.9183L199.711 40.8761L198.704 39.0352L195.228 39.2009V41.0418L193.386 41.1684L193.344 43.7204L194.055 44.5581L194.266 46.2333L195.858 46.1911L196.108 44.1814H196.612L198.454 44.0549L200.588 44.769L200.881 46.4834L202.599 46.399L202.684 42.6749Z" fill="white"/>
<path d="M194.419 62.2618L194.373 61.8159L194.181 61.0897L194.253 60.4027L193.553 59.541L193.008 60.5865L193.665 61.4814L194.419 62.2618Z" fill="white"/>
<path d="M266.389 58.1898L260.694 42.1755L265.274 36.7069V31.6841L263.824 29.6202L238.195 29.7317L236.745 31.3497L236.353 29.6744L210.893 29.6172L209.555 32.4073L208.105 29.7859L183.314 29.8432L182.253 34.0825L180.8 29.9546L155.618 30.0119L155.56 36.3182L154.722 37.882L154.668 47.144L155.729 49.208L155.786 70.8597L166.787 70.8024L169.579 61.8175L169.691 70.8567L180.857 70.7994L182.084 66.1684L182.307 65.8881L182.588 65.4965L184.095 70.8536L194.146 70.6849L195.934 68.6752L196.38 66.1081L197.05 70.7391L207.993 70.9079L210.562 66.9457L211.008 70.7964L222.175 70.7391L228.762 61.3083L228.874 58.7412L233.565 58.6297L239.929 49.2562L246.016 70.8506L256.178 70.7391L257.071 70.236L257.963 69.6786L266.45 61.2511L266.395 58.1808L266.389 58.1898ZM165.636 69.8262L156.646 69.8834L156.673 66.9548L158.096 67.0934L158.403 67.931L158.961 68.2112C158.961 68.2112 159.519 68.2956 159.63 68.2956C159.639 68.2956 159.679 68.2956 159.73 68.2895L160.803 68.0545L162.582 67.7834L163.176 68.1811L163.287 68.2413L166.971 67.934L165.633 69.8322L165.636 69.8262ZM183.797 59.4192L183.776 59.5879L183.173 60.3803L183.67 60.4526L182.609 63.1583L181.493 64.7221L180.405 65.5025L179.874 65.8369L179.036 65.864L179.651 66.3943L179.986 66.4787L180.963 66.1985L181.017 67.7321L179.733 69.9377L170.493 69.7991L172.223 60.537L172.865 60.0489L172.775 59.9314L172.739 59.4192L172.488 57.6626L171.527 55.8216L171.611 51.3864L171.988 50.9676L179.106 50.13L177.683 50.0938L173.495 50.136L171.611 50.2143V49.3345L170.815 48.4125L168.262 48.3703H167.843L167.885 51.3412L168.262 52.8477L167.635 52.8899H167.631L162.862 53.14L162.259 53.5015L161.771 53.8511L165.624 53.5588L168.765 54.0198V59.5397L167.99 60.3924L168.653 60.534L167.677 62.1791L167.619 64.5504L166.697 66.6143L162.537 67.1988L161.056 67.0873L159.492 66.7529L159.269 66.4184L159.211 65.9454L156.616 66.2527L156.643 61.9833L157.228 61.1727L157.529 60.4195H157.408V59.374L157.493 49.455L156.531 47.2374V41.7115L157.116 40.4551L158.373 39.744L160.384 39.7018L161.765 38.9908L161.177 39.0269V39.0329L160.257 39.1595L158.331 38.9877L156.489 38.9064V30.494L160.927 30.5362L161.512 31.3738L162.265 31.9583L162.558 36.731L162.473 38.364L162.139 40.6238L162.347 42.3804L162.974 43.0915L163.727 43.676L165.738 43.0071L167.372 43.8869L166.034 42.3382L163.562 42.7149L162.639 42.3382L162.889 41.0396L163.016 38.7377L162.766 31.874L162.096 31.3286V30.4488L179.685 30.491L180.857 33.0008L180.899 36.2248L181.026 36.978L181.403 38.0236L181.864 38.8612L181.906 41.6241L179.434 41.7507L178.931 42.0008L178.385 42.4196L178.093 43.5073L175.539 43.5917L174.701 44.2606L176.082 44.1762L177.044 44.5106H181.9L181.985 46.4782L182.696 47.9003L182.865 56.0204L183.911 57.7379L183.785 59.4131L183.797 59.4192ZM212.859 59.3348V59.5608L212.268 60.1423L212.594 60.2025L212.567 61.4017L207.849 69.8292H197.855L197.827 68.6029L202.169 60.0067L201.596 59.3378L201.511 52.9351L200.631 51.2598L197.405 51.1333L197.071 51.9287L198.705 59.377L198.041 60.3351L198.858 60.5912L197.378 64.0803L193.36 64.3605L192.325 64.8065L191.656 64.6377L191.629 64.9179L192.187 65.168L192.437 65.1771L193.947 64.7763L195.174 66.087L194.951 68.7656L193.498 69.8533L184.843 69.7961L184.758 68.7355L185.735 63.6856L187.185 60.1784L186.851 59.374L186.516 51.8835L183.794 30.6657L208.25 30.7923L212.353 53.3087L212.018 53.8541L210.511 54.0228L209.715 53.2695L206.594 53.0225L203.559 53.0616L202.832 53.3419L202.09 53.8149L203.806 53.3539L205.648 53.5226L208.913 53.8149L209.374 54.6103L211.258 54.7791L212.723 55.8668L212.847 59.3077V59.3378L212.859 59.3348ZM240.037 48.3131L231.62 48.4939L231.65 47.4694L231.605 46.9723L231.325 46.0804L231.659 43.7363L231.267 42.9559L231.325 43.6821L230.432 46.9753L229.733 47.5659L229.106 48.2438L227.767 48.4125L226.594 48.4577L226.245 48.5391L227.975 59.3649L228.017 59.6723L227.653 60.0368L227.894 60.6485L227.867 60.9558L221.195 69.9678L213.097 69.8292L212.901 69.3562L213.878 67.4037L214.27 66.7619L214.912 66.4546L215.672 66.1714L216.392 65.8701L216.866 66.0388L218.777 65.9816L219.983 65.861L220.8 66.2889L221.162 66.3461V66.0961L220.492 65.397L217.812 65.3127L217.701 64.6709L217.366 64.225L216.028 64.1707L215.72 63.5862L217.059 60.8232L217.375 60.5069L216.643 59.4282L212.009 37.0504V30.5783L235.096 30.5241L235.738 30.9429L235.934 31.8649L236.549 32.8984L237.36 34.0132L237.387 36.1073L229.989 36.2881L229.627 35.0738L229.573 33.6516L229.35 33.4016L227.981 33.3172L227.312 32.4796L226.977 32.0336L226.362 31.7534L226.278 31.1689L225.97 32.2024L226.808 32.3711L227.647 33.3744L227.842 33.959L228.623 33.9861L228.874 34.2091L228.777 35.128L228.819 35.6613C228.819 35.6613 228.611 36.0802 228.485 36.2067L223.628 36.1223L223.634 36.1073H223.628H223.236L224.24 40.7956L225.132 41.5759L230.604 41.7447L230.884 41.9676L231.219 41.7447H238.141L238.979 42.8053L239.091 45.0922L240.152 46.5414L240.04 48.3282L240.037 48.3131ZM212.928 64.0773L213.236 62.3478L213.821 63.4084L214.825 63.8001L214.014 65.0566L213.987 64.4419L212.925 64.0803L212.928 64.0773ZM265.358 60.6455L256.061 69.8262L247.405 69.7991L247.378 69.3803L247.797 68.9615L248.132 68.3468L248.605 67.6779L249.136 67.232L249.694 66.6173L249.582 66.1141L249.136 64.8878L248.774 64.5805L248.355 64.3304L247.936 62.378L247.574 62.155L247.24 61.7362L248.162 61.8748L248.385 62.1821L248.581 63.773L249.25 64.246L249.558 64.9722L249.865 66.0328L250.2 66.313L252.6 66.3401L253.938 65.614L254.523 65.8942L254.858 65.9213L254.915 65.614L254.3 65.0294L253.827 64.9179L252.627 65.1409L252.123 65.0294L251.593 64.3033L251.312 63.6615L251.451 63.2698L253.851 59.5035L254.128 59.374L253.905 59.1118L252.567 53.2515L253.682 52.2481L254.602 51.998L254.101 51.9408L252.986 51.998L250.667 52.92L250.275 55.0683L249.16 55.9903L248.991 57.5812H248.014L248.795 57.3854L248.626 55.4871L249.492 54.6766L249.715 52.221L250.076 52.1939L250.245 51.8323L250.553 50.2987L251.421 50.2746L251.364 50.1872L247.203 36.4026L247.261 34.1428L247.399 33.4739L246.561 34.2271L246.507 34.423L246.73 34.8147V35.345L246.477 35.5559L246.227 36.0711L240.824 36.1977L240.586 35.7367L239.247 33.2539L239.22 30.6326L263.507 30.6055L263.757 31.6932L264.568 32.2506L264.484 35.2094L263.818 35.824L263.565 36.1555H258.874L258.717 35.9175L258.174 35.5408L257.644 34.3416L256.917 33.3383L256.833 31.0213L256.413 30.8525L256.637 31.2141L256.133 34.1428L257.11 34.8117V36.514L257.725 37.1829L265.373 59.392L264.737 60.2749L265.343 60.6485L265.358 60.6455Z" fill="white"/>
<path d="M195.02 36.9837L194.728 36.1883L194.209 36.1129L190.833 36.0195L190.664 37.2338L191.168 38.909L195.02 38.8669V36.9837Z" fill="white"/>
<path d="M203.267 38.7817L202.975 36.1875L199.499 36.2297H199.291L198.914 37.1095L198.995 38.8239L203.267 38.7817Z" fill="white"/>
<path d="M10.8329 60.9222L10.3867 60.5937V60.9222L18.6773 70.5488L28.0563 70.4645L24.8727 66.6138L24.2245 66.656L23.5552 66.5083L23.5371 66.5204H23.5462L23.1874 66.891L22.2529 67.5599L22.0298 67.5749L20.6339 67.0447H20.6701C20.6008 67.0386 20.5465 67.0356 20.5344 67.0296C20.4922 67.0145 20.4229 66.891 20.4229 66.891L21.2459 66.5415L21.7494 66.5144L22.0569 65.5532L22.8257 65.6647L24.2788 65.6376L20.1244 60.4883L19.63 61.0487L10.8359 60.9222H10.8329Z" fill="white"/>
<path d="M35.7176 58.195L33.146 55.0645L33.0224 55.2573L32.6667 55.4803H26.7607L26.2482 55.2422L25.9648 55.2543L28.8409 59.0206L29.5675 59.1592L31.4939 58.9904L33.1129 59.7708L33.14 60.0781H32.4979L31.102 59.9667L29.9564 60.1625L31.3251 61.4461L33.5319 63.4829C33.5319 63.4829 34.3127 63.8173 34.4243 63.8746C34.5358 63.9318 35.5126 63.8746 35.5126 63.8746L36.5165 63.6516L35.3438 62.3952L35.6242 59.9667L35.8533 59.9456L35.8473 59.9396L35.7176 58.189V58.195Z" fill="white"/>
<path d="M49.3291 69.546L47.7674 69.2115L47.1222 69.3772L46.9564 69.1L47.5413 68.5396L48.91 68.5125L49.0788 67.6749L49.5521 67.5634L50.3631 67.482V66.6715L46.7876 63.0167L46.462 60.3652L45.6872 61.0492L36.7605 60.8835L36.7936 61.1185H36.3203L36.5163 62.5708L38.2739 64.4389L40.4777 67.3404L43.2151 70.3836H52.2323L52.4011 69.3501L50.2214 69.546H49.3291Z" fill="white"/>
<path d="M51.5297 65.3809L51.8433 66.8874L51.4453 68.3939L52.3859 68.0384C52.3859 68.0384 52.4703 66.4475 52.3859 66.3209C52.3015 66.1944 51.5267 65.3809 51.5267 65.3809H51.5297Z" fill="white"/>
<path d="M64.4078 66.5866L61.6161 60.4219H61.17L60.778 60.922L58.1883 60.9612L57.9562 61.8983L58.0135 63.7121L57.9562 63.7543L54.9264 60.8497L51.3207 60.8768L50.4766 61.0064L52.8763 63.908L54.1033 65.3602L54.5224 66.4208L55.053 67.62L56.0298 68.8463L57.1754 70.2715L66.4157 70.3529L65.7464 69.2923L64.4078 66.5866Z" fill="white"/>
<path d="M72.4057 61.0067L72.3635 60.7988L72.1676 60.8109L71.8872 62.3475L72.9213 63.7124L72.4057 63.4292L71.0521 62.8477L70.7024 62.5976L69.6231 60.9224H65.0346L64.9984 60.8742L64.7422 60.8952L66.2767 62.682L67.0304 64.3L68.5107 67.3673L70.4371 70.3532H80.4311L76.9128 60.8952L75.9149 60.8681L75.7974 61.0489L72.4057 61.0067Z" fill="white"/>
<path d="M92.3354 60.9634L92.1394 60.7676L91.847 60.9785L91.9585 61.7589L92.7695 62.485L92.3233 63.7686L93.496 65.3866L91.9314 64.2145L91.7656 62.5965L90.8159 62.1204L90.7707 60.9423L83.6016 60.9032L84.5904 63.5727L85.6787 65.6366L86.544 66.5315H88.0514L88.5548 66.6972L89.0553 67.2848L90.9546 67.3963L90.8702 67.6192L89.9778 67.6735L89.9718 67.6765L90.222 67.6614L89.0402 68.2038H88.7568L88.2534 67.7849L87.4364 67.562L87.0474 67.6192L86.963 67.9266L87.9971 70.102L97.2645 70.2707L97.572 67.6192L94.5422 60.9634H92.3354Z" fill="white"/>
<path d="M118.76 60.9967L118.694 60.837L118.064 61.0328L117.672 62.0663L117.729 62.7924L117.198 62.009L117.126 61.0117L107.747 61.0057L107.397 60.8099H107.343L106.143 60.9485L105.974 61.8704L106.867 62.3465L106.339 64.8293L106.59 65.9441L105.947 65.6096L105.667 65.0251L105.661 64.6183L105.444 62.931L104.928 62.3586L104.09 61.4245L103.644 61.1323L102.523 60.8822L102.387 60.9635L98.7812 61.0027L100.337 66.8661L101.507 70.2708L124.512 70.1292V66.7245L123.171 66.2514L121.832 66.3056L119.683 66.6973L119.375 66.6431L119.432 66.2514L120.044 65.8055L122.529 65.5253L123.285 64.772L124.205 64.7178L124.651 64.0459L124.681 60.9485L124.229 60.623L123.955 60.9967H118.76Z" fill="white"/>
<path d="M146.571 63.1331L146.288 61.7592L145.866 60.9607L138.877 60.8975L138.651 60.6022L138.332 60.6715L137.662 61.3675L137.213 62.2353L136.236 62.5697L135.817 63.0699L135.428 63.8804L134.702 64.718L134.786 65.9172L134.087 64.941L134.033 63.8804L134.108 63.8231L134.813 62.4582L134.925 61.5935L134.841 60.7679L134.328 59.2734L134.045 59.2915L133.493 59.9604L132.872 60.8372H129.23L128.636 60.316L128.449 66.3059L129.342 66.559L130.068 67.6196L132.999 67.6738L133.586 68.65L132.748 68.5687L131.434 68.2884L129.815 68.4843L129.203 69.1261L129.369 70.3253L144.165 70.4367L144.418 68.8459L144.611 67.7582L145.115 67.0049L145.172 64.6879L145.673 63.7116L145.896 62.6511H146.037L146.456 63.2928L146.438 63.4947L146.526 63.2115L146.571 63.1331Z" fill="white"/>
<path d="M149.416 60.8797L149.09 60.8164L148.27 60.9791L147.908 61.8981L147.504 62.112L147.266 63.5733L147.112 64.5646L146.178 66.502V67.424L145.312 68.819L145.59 70.2412L152.738 70.3828L153.856 61.0333L153.115 60.9098L153.103 60.9219L149.416 60.8797Z" fill="white"/>
<path d="M160.304 60.6295L159.297 59.5417L159.554 59.3248L160.214 58.6348L159.406 58.1738L159.255 58.2431L158.544 59.373L157.874 60.4216H157.534L157.232 61.1748L156.647 61.9823L156.617 66.2518L159.213 65.9445L159.27 66.4205L159.493 66.755L161.058 67.0894L162.535 67.2009L166.696 66.6133L167.618 64.5494L167.672 62.1782L168.649 60.533L167.989 60.3884L167.883 60.5029L160.304 60.6295Z" fill="white"/>
<path d="M163.181 68.1736L162 68.1434L160.776 68.5713L159.733 68.282C159.681 68.2851 159.642 68.2881 159.633 68.2881C159.522 68.2881 158.964 68.2037 158.964 68.2037L158.406 67.9235L158.099 67.0859L156.676 66.9473L156.648 69.8759L165.638 69.8187L166.977 67.9205L163.293 68.2278L163.181 68.1675V68.1736Z" fill="white"/>
<path d="M178.916 60.5812L178.856 62.4825L178.365 63.0158V63.0128L178.341 63.1273L177.921 62.3469L177.334 62.0396L176.978 60.5873H173.288L172.869 60.0449L172.227 60.533L170.496 69.7951L179.736 69.9337L181.021 67.7312L180.963 66.1945L179.987 66.4748L179.652 66.3904L179.037 65.8601L179.875 65.833L180.406 65.4985L181.494 64.7181L182.612 63.1544L183.674 60.4487L183.173 60.3733L183.044 60.5451L178.916 60.5812Z" fill="white"/>
<path d="M194.894 60.4278L194.376 61.8168L194.421 62.2628L193.667 61.4824L193.01 60.5875L187.273 60.3796L187.189 60.1777L185.739 63.6849L184.762 68.7348L184.843 69.7954L193.499 69.8526L194.952 68.7619L195.175 66.0833L193.779 65.4988L192.437 65.1734L192.187 65.1643L191.629 64.9142L191.656 64.634L192.326 64.7997L193.36 64.3538L197.379 64.0766L198.859 60.5875L198.042 60.3314L197.951 60.461L194.894 60.4278Z" fill="white"/>
<path d="M202.6 60.5032L202.169 60L197.824 68.5962L197.854 69.8225H207.848L212.566 61.398L212.594 60.1958L212.268 60.1386L211.897 60.5032H202.6Z" fill="white"/>
<path d="M214.014 65.0534L214.825 63.7969L213.821 63.4052L213.233 62.3477L212.926 64.0771L213.987 64.4387L214.014 65.0534Z" fill="white"/>
<path d="M217.378 60.5032L217.372 60.4972L217.059 60.8106L215.717 63.5735L216.025 64.1611L217.366 64.2153L217.701 64.6612L217.813 65.303L220.493 65.3874L221.162 66.0834V66.3365L220.8 66.2792L219.459 66.1135L218.162 66.2792L216.778 66.4751L216.151 66.2792L215.666 66.1617L214.909 66.448L214.267 66.7553L213.875 67.3971L212.898 69.3495L213.094 69.8226L221.189 69.9642L227.864 60.9492L227.891 60.6448L227.65 60.0332L227.222 60.4611L217.378 60.5032Z" fill="white"/>
<path d="M255.194 60.6305L254.133 59.3711L253.856 59.5007L251.453 63.267L251.314 63.6586L251.595 64.3004L252.125 65.0266L252.626 65.138L253.829 64.9151L254.302 65.0266L254.917 65.6111L254.86 65.9184L254.525 65.8913L253.94 65.6111L252.599 66.3372L250.199 66.3071L249.864 66.0299L249.557 64.9693L249.249 64.2432L248.58 63.7701L248.384 62.1792L248.161 61.8719L247.238 61.7333L247.573 62.1521L247.938 62.3751L248.357 64.3275L248.773 64.5776L249.138 64.885L249.584 66.1143L249.695 66.6144L249.138 67.2291L248.607 67.675L248.131 68.3469L247.796 68.9586L247.377 69.3774L247.407 69.7962L256.059 69.8233L265.357 60.6456L264.751 60.272L264.492 60.6305H255.194Z" fill="white"/>
<path d="M257.233 51.9669L260.461 51.4698L260.012 51.1082L257.429 51.2679L255.406 51.1293L253.564 50.8792L252.201 51.1082L252.041 51.1835L251.429 50.2676L250.561 50.2917L250.253 51.8253L250.088 52.1899L249.723 52.217L249.5 54.6726L248.635 55.4831L248.803 57.3784L248.02 57.5742H248.996L249.165 55.9833L250.284 55.0643L250.673 52.916L252.991 51.994L254.106 51.9368L254.607 51.9971L255.644 51.7138L257.233 51.9669Z" fill="white"/>
<path d="M25.8802 64.7301L25.7566 63.2236L25.838 62.5547L25.2109 63.1392L25.5787 64.5945L25.2109 65.3598L25.8802 64.7301Z" fill="white"/>
<path d="M22.1512 67.4394L23.535 66.5234L22.8778 66.6711L22.2929 66.9905L21.9703 67.0748L20.668 67.0477C20.8338 67.0598 21.09 67.0748 21.09 67.0748L22.1512 67.4364V67.4394Z" fill="white"/>
<path d="M22.0247 67.5771L22.2478 67.562L23.1824 66.8931L23.5412 66.5195H23.5321L22.1484 67.4355L21.0872 67.0739C21.0872 67.0739 20.8309 67.0589 20.6651 67.0468H20.6289L22.0247 67.5771Z" fill="white"/>
<path d="M55.4961 60.8429L58.0134 63.7113L55.885 60.8398L55.4961 60.8429Z" fill="white"/>
<path d="M54.9258 60.8498L57.9556 63.7543L58.0129 63.7122L55.4956 60.8438L54.9258 60.8498Z" fill="white"/>
<path d="M72.4049 63.4293L71.2442 62.5977L70.994 61.3684L70.8553 61.1605L70.3036 60.832L70.2674 60.9224H69.9961L70.994 62.6519L72.4049 63.4293Z" fill="white"/>
<path d="M71.054 62.8472L72.4076 63.4287L70.9967 62.6514L69.9988 60.9219H69.625L70.7043 62.5971L71.054 62.8472Z" fill="white"/>
<path d="M89.9723 67.6777L88.2539 67.7862L88.9744 67.9821L89.9723 67.6777Z" fill="white"/>
<path d="M88.7574 68.2045H89.0408L90.2226 67.6621L89.9723 67.6772L88.9744 67.9815L88.2539 67.7856L88.7574 68.2045Z" fill="white"/>
<path d="M103.994 61.0329L105.64 62.9884L105.661 64.6184L105.667 64.6606L106.074 62.9884L104.941 61.8163L104.425 61.0902L104.118 60.825L103.026 60.584L102.746 60.7497L103.994 61.0329Z" fill="white"/>
<path d="M103.995 61.0332L102.747 60.75L102.523 60.8826L103.645 61.1327L104.091 61.4249L104.929 62.359L105.445 62.9314L105.662 64.6187L105.641 62.9887L103.995 61.0332Z" fill="white"/>
<path d="M134.814 63.2939L134.108 63.8242H134.105H134.591L134.799 63.7127L135.022 63.2818L135.287 62.5406L135.987 61.7753L135.848 60.8383L136.11 59.166L134.808 59.2444L135.372 61.007L134.814 63.2939Z" fill="white"/>
<path d="M134.926 61.5943L134.815 62.4591L134.109 63.824L134.815 63.2937L135.373 61.0068L134.809 59.2441L134.329 59.2743L134.842 60.7687L134.926 61.5943Z" fill="white"/>
<path d="M147.068 62.2902L146.57 63.1338L146.649 63.5165L147.375 62.1787L147.502 62.1124V62.1094L147.068 62.2902Z" fill="white"/>
<path d="M146.205 64.2564L146.039 64.8289L146.178 66.5012L146.44 63.4941L146.205 64.2564Z" fill="white"/>
<path d="M147.264 63.5727L147.502 62.1113L147.376 62.1776L146.649 63.5154L146.571 63.1327L146.525 63.2111L146.438 63.4943L146.176 66.5013L147.11 64.5639L147.264 63.5727Z" fill="white"/>
<path d="M163.18 68.1751L162.586 67.7773L160.808 68.0485L159.734 68.2835C160.271 68.2444 162.873 68.0124 162.873 68.0124L163.18 68.1751Z" fill="white"/>
<path d="M160.774 68.5721L161.998 68.1443L163.18 68.1744L162.873 68.0117C162.873 68.0117 160.271 68.2437 159.734 68.2829L160.777 68.5721H160.774Z" fill="white"/>
<path d="M178.193 61.3956L178.341 62.3567L178.362 63.0136L178.757 61.1756L178.821 60.582L178.263 60.5881L178.121 60.7568L178.193 61.3956Z" fill="white"/>
<path d="M178.758 61.1756L178.363 63.0136V63.0166L178.855 62.4833L178.915 60.582H178.822L178.758 61.1756Z" fill="white"/>
<path d="M194.373 61.8174L194.361 61.7059L194.719 60.4254L194.264 60.4224L194.252 60.4043L194.18 61.0913L194.373 61.8174Z" fill="white"/>
<path d="M194.375 61.8159L194.894 60.4268L194.722 60.4238L194.363 61.7044L194.375 61.8159Z" fill="white"/>
<path d="M195.175 66.0841L193.945 64.7734L192.438 65.1742L193.526 65.2194L195.175 66.0841Z" fill="white"/>
<path d="M193.779 65.4992L195.175 66.0838L193.526 65.219L192.438 65.1738L193.779 65.4992Z" fill="white"/>
<path d="M216.949 66.2523L219.295 65.945L220.076 65.9178L220.802 66.2794L219.982 65.8516L218.776 65.9721L216.865 66.0293L216.392 65.8606L215.668 66.1619L215.804 66.1137L216.949 66.2523Z" fill="white"/>
<path d="M216.78 66.4754L218.164 66.2795L219.461 66.1138L220.802 66.2795L220.076 65.918L219.295 65.9451L216.949 66.2524L215.804 66.1138L215.668 66.162L216.153 66.2795L216.78 66.4754Z" fill="white"/>
<path d="M38.2441 48.8477H38.2305L38.2441 48.8579V48.8477Z" fill="white"/>
<path d="M22.4751 36.9258L22.457 36.9318L22.4872 36.9258H22.4751Z" fill="white"/>
<path d="M22.3281 36.9678L22.3522 36.9708L22.4578 36.9316L22.3281 36.9678Z" fill="white"/>
<path d="M26.4648 36.9955L27.1311 36.9563L27.113 36.9473L26.7181 36.9563L26.4648 36.9955Z" fill="white"/>
<path d="M38.2452 49.0985L38.3025 48.8966L38.2422 48.8574V49.0985H38.2452Z" fill="white"/>
<path d="M35.8438 59.9453L35.8497 59.9543L35.8826 59.9513L35.8438 59.9453Z" fill="white"/>
<path d="M35.9315 59.9453L35.8867 59.9513L35.9465 59.9573L35.9315 59.9453Z" fill="white"/>
<path d="M100.672 52.6789H100.714L100.678 52.6699L100.672 52.6789Z" fill="white"/>
<path d="M178.825 60.5449H178.298L178.262 60.5871L178.819 60.5811L178.825 60.5449Z" fill="white"/>
<path d="M178.914 60.5811L178.917 60.5449H178.826L178.82 60.5811H178.914Z" fill="white"/>
<path d="M201.594 59.3309H212.857V59.3008L201.594 59.3309Z" fill="white"/>
<path d="M254.224 59.3033L253.91 59.1074L254.133 59.3696L254.218 59.3304L254.224 59.3033Z" fill="white"/>
<path d="M254.251 59.1165L253.91 59.1074L254.224 59.3033L254.251 59.1165Z" fill="white"/>
</svg>
