<svg width="174" height="68" viewBox="0 0 174 68" fill="none" xmlns="http://www.w3.org/2000/svg">
<path d="M15.3594 10.3242H36.9301C38.355 10.3419 39.7202 10.9002 40.7469 11.8846L54.2947 25.3957C55.4873 26.5853 56.1599 28.1986 56.1599 29.8826V50.178L49.3185 43.2988V26.0314L42.4771 19.0021L33.6245 28.2229L15.3594 10.3242Z" fill="white"/>
<path d="M52.818 56.3317H30.3755C28.9395 56.3207 27.5677 55.7402 26.561 54.7206L13.0176 40.8651C11.8183 39.6182 11.1501 37.9563 11.1523 36.2305V15.3965L18.3433 22.5206V40.2317L25.1847 47.5015V29.3513L33.7475 37.6937L42.4542 29.3513V45.8419L52.818 56.3339V56.3317Z" fill="white"/>
<path d="M45.4414 10.3262L56.1549 21.0102V10.3262H45.4414Z" fill="white"/>
<path d="M21.8636 56.3325L11.1523 45.6484V56.3325H21.8636Z" fill="white"/>
<path d="M68.039 18.8631L59.4297 9.20312V27.744L63.1004 26.0358V18.2297L68.039 24.1334L72.9797 18.2297V26.0358L76.5996 27.744V9.20312L68.039 18.8631Z" fill="white"/>
<path d="M87.0231 13.7406C89.9549 13.7539 92.3179 16.1352 92.3047 19.0595C92.2914 21.9837 89.904 24.3408 86.9723 24.3276C84.0405 24.3143 81.6775 21.933 81.6908 19.0087C81.7239 16.0933 84.1003 13.7473 87.0231 13.7406ZM87.0231 10.3242C82.1864 10.3242 78.2656 14.2328 78.2656 19.0551C78.2656 23.8795 82.1842 27.7903 87.0187 27.7903C91.8555 27.7903 95.7762 23.8817 95.7762 19.0595C95.7807 14.2394 91.8688 10.3286 87.0364 10.3242C87.032 10.3242 87.0276 10.3242 87.0209 10.3242H87.0231Z" fill="white"/>
<path d="M86.814 21.4009L84.6124 19.205C84.5173 19.1145 84.5151 18.9666 84.6036 18.8717C84.6058 18.8695 84.608 18.8673 84.6124 18.8629L86.814 16.6669C86.9047 16.572 87.0529 16.5698 87.1481 16.6581C87.1503 16.6603 87.1525 16.6625 87.1569 16.6669L89.3651 18.8629C89.4603 18.9534 89.4625 19.1012 89.374 19.1961C89.3717 19.1983 89.3695 19.2005 89.3651 19.205L87.1636 21.4009C87.0751 21.4958 86.9268 21.5024 86.8295 21.4142C86.825 21.4097 86.8206 21.4053 86.8162 21.4009H86.814Z" fill="white"/>
<path d="M108.246 17.9842C109.81 17.9842 109.615 14.8128 109.615 14.8128C109.615 9.93531 104.38 10.3237 104.38 10.3237H96.4567L97.5321 11.7406V26.0353L96.3594 27.7435H105.407C107.217 27.7435 110.25 25.6954 110.25 22.3783C110.25 19.0612 108.243 17.9864 108.243 17.9864L108.246 17.9842ZM100.811 13.1045H104.088C105.168 13.1045 106.044 13.9785 106.044 15.0555C106.044 16.1325 105.168 17.0065 104.088 17.0065H100.811V13.1023V13.1045ZM106.241 23.8393C105.825 24.2851 105.236 24.5345 104.626 24.5213H100.811V19.9352H104.626C105.894 19.9352 106.922 20.957 106.922 22.2216C106.922 22.2216 106.922 22.226 106.922 22.2282C106.905 22.8307 106.661 23.4046 106.241 23.8393Z" fill="white"/>
<path d="M115.535 11.838L116.707 10.3262H113.725H110.742L111.915 11.838V26.0355L110.742 27.7437H113.725H116.707L115.535 26.0355V11.838Z" fill="white"/>
<path d="M117.195 10.3262L118.076 11.7409V27.7437H130.157V23.0119L128.495 24.1331H121.893V11.7409L122.871 10.3262H117.195Z" fill="white"/>
<path d="M130.941 10.3262L131.773 11.4959V25.987L130.941 27.7437H144.883V23.0119L142.876 24.1331H135.345V20.6218H142.193V16.9626H135.345V13.7404H143.414L144.883 14.6695V10.3262H130.941Z" fill="white"/>
<path d="M63.0008 29.1094V44.6245H69.8489L71.5128 43.5011V47.8931H59.4297V30.9632L63.0008 29.1094Z" fill="white"/>
<path d="M72.4883 30.9629L73.2229 32.1326V46.1845L72.4883 47.8927H85.9874V43.3066L84.0315 44.3792H76.7431V41.2077H83.3942V37.6479H76.7431V34.28H84.5714L85.9874 35.2069V30.9629H72.4883Z" fill="white"/>
<path d="M102.425 39.4571V47.9342L100.126 46.5195C96.2093 49.1105 90.9278 48.0423 88.3324 44.136C85.7348 40.2296 86.8057 34.9615 90.7221 32.3727C94.426 29.923 99.3977 30.7307 102.133 34.2244L99.4375 36.3232C98.4684 35.0983 96.9904 34.3811 95.4261 34.3722C92.6161 34.3722 90.3393 36.6454 90.3393 39.4483C90.3393 42.2512 92.6183 44.5222 95.4283 44.5222C96.8355 44.5222 98.1808 43.9395 99.1433 42.9133V40.9623L98.121 39.4616H102.425V39.4571Z" fill="white"/>
<path d="M103.5 30.9629L104.281 32.1326V46.1845L103.5 47.8927H116.999V43.3066L115.092 44.3792H107.753V41.2077H114.408V37.6479H107.753V34.28H115.63L116.999 35.2069V30.9629H103.5Z" fill="white"/>
<path d="M118.662 30.9629V46.5751L117.684 47.8927H123.456L122.33 46.5751V39.4532L131.428 47.8927H131.869V32.2297L132.555 30.9629H127.322L128.249 32.3776V39.5966L119.104 30.9629H118.662Z" fill="white"/>
<path d="M139.794 30.9632H133.387L134.316 32.7177V46.2311L133.387 47.8842H139.794C144.381 47.8886 148.105 44.183 148.109 39.608V39.1997C148.092 34.6356 144.37 30.9477 139.794 30.961V30.9632ZM144.49 40.2833C144.49 42.6823 142.54 44.6244 140.137 44.6244H137.65V34.2869H140.137C142.543 34.2869 144.49 36.2313 144.49 38.628V40.2811V40.2833Z" fill="white"/>
<path d="M161.803 30.9642V36.1837C161.803 36.1837 159.75 34.2327 157.059 34.2327H154.711C152.95 34.577 152.95 36.4287 154.663 37.0643C155.054 37.2121 156.913 37.7462 157.404 37.8919C158.741 38.2318 159.969 38.9027 160.973 39.8429C162.38 41.1693 162.843 43.2107 162.146 45.0116C161.56 46.4285 160.19 47.8896 156.864 47.8896C156.864 47.8896 152.61 48.086 151.337 46.7684L149.527 47.8896V42.6259C149.527 42.6259 151.481 44.4312 155.298 44.674C158.723 44.9189 158.966 43.5043 158.966 43.5043C158.966 43.5043 159.504 41.9903 156.373 41.5025C154.886 41.2708 153.468 40.7235 152.216 39.8936C150.645 38.9402 149.68 37.2408 149.671 35.4046C149.671 33.4029 150.797 31.1098 155.891 30.9664C157.229 30.9244 158.553 31.2621 159.708 31.9397H159.756L161.805 30.9664L161.803 30.9642Z" fill="white"/>
<path d="M59.7753 56.3322C59.7222 56.3278 59.6802 56.2859 59.6758 56.2329L59.7245 53.4521L59.6758 50.6205C59.6802 50.5676 59.7222 50.5256 59.7753 50.5234H62.4172C63.6408 50.5234 64.5192 50.9119 64.5192 51.9845C64.5192 52.6686 64.1762 53.0593 63.5412 53.2535C64.3245 53.4013 64.7161 53.9354 64.7161 54.6196C64.7161 55.8401 63.5899 56.3278 62.4659 56.3278H59.7776L59.7753 56.3322ZM61.291 51.6004L61.2423 52.8209H62.3685C62.7602 52.8209 63.0544 52.6245 63.0544 52.2339C63.0544 51.8432 62.7602 51.649 62.3685 51.649H61.2932V51.6004H61.291ZM61.2423 53.845L61.291 55.2596H62.3663C62.8553 55.2596 63.1496 55.0654 63.1496 54.5269C63.1496 54.0414 62.8553 53.845 62.3663 53.845H61.2401H61.2423Z" fill="white"/>
<path d="M72.8823 50.6225L74.7475 56.2327C74.7475 56.2812 74.7475 56.332 74.6501 56.332H73.2805C73.2318 56.332 73.1832 56.332 73.1832 56.2327L72.7849 54.9659H70.7316L70.3886 56.2327C70.3842 56.2856 70.3444 56.3276 70.2913 56.332H68.8708C68.8177 56.3276 68.7779 56.2856 68.7734 56.2327L70.7294 50.6225C70.7338 50.5695 70.7736 50.5298 70.8267 50.5254H72.7827C72.8358 50.5276 72.8778 50.5695 72.88 50.6225H72.8823ZM71.7582 51.598L71.121 53.7939H72.4419L71.7582 51.598Z" fill="white"/>
<path d="M80.608 56.2329C80.6036 56.2859 80.5615 56.3278 80.5084 56.3322H79.2849C79.2318 56.3278 79.1919 56.2859 79.1875 56.2329L79.2362 53.4521L79.1875 50.6205C79.1919 50.5676 79.2318 50.5279 79.2849 50.5234H80.9001C80.9487 50.5234 80.9974 50.5234 80.9974 50.572L83.0507 54.1826L83.002 53.2071V50.6228C83.0043 50.5698 83.0463 50.5279 83.0994 50.5256H84.323C84.3761 50.5301 84.4159 50.5698 84.4203 50.6228L84.3716 53.4521L84.4203 56.2329C84.4159 56.2859 84.3761 56.3278 84.323 56.3322H82.6657C82.617 56.3322 82.5662 56.3322 82.5662 56.2837L80.5615 52.7216L80.6102 53.845L80.6058 56.2373L80.608 56.2329Z" fill="white"/>
<path d="M89.0234 53.4535C89.0234 51.6482 90.247 50.4277 92.006 50.4277C93.5239 50.4277 94.493 51.1605 94.7939 52.3787C94.7917 52.4317 94.7497 52.4736 94.6966 52.4758H93.2783C93.2252 52.4736 93.1832 52.4317 93.1809 52.3787C93.0393 51.8579 92.5459 51.5092 92.006 51.5511C91.0767 51.5511 90.5878 52.2838 90.5878 53.4535C90.5878 54.6232 91.0767 55.3581 92.006 55.3581C92.692 55.3581 93.1809 54.9675 93.2296 54.2348H91.9087C91.8556 54.2304 91.8158 54.1906 91.8113 54.1377V53.2085C91.8158 53.1556 91.8556 53.1158 91.9087 53.1114H94.7475C94.8006 53.1158 94.8404 53.1556 94.8448 53.2085C94.8448 55.4045 93.7695 56.4771 91.9596 56.4771C90.247 56.4771 89.0234 55.2081 89.0234 53.4491V53.4535Z" fill="white"/>
<path d="M108.39 56.3322C108.337 56.3278 108.297 56.2859 108.293 56.2329L108.342 53.4521L108.293 50.6205C108.297 50.5676 108.337 50.5279 108.39 50.5234H111.032C112.256 50.5234 113.136 50.9119 113.136 51.9845C113.136 52.6686 112.793 53.0593 112.158 53.2535C112.942 53.4013 113.331 53.9354 113.331 54.6196C113.331 55.8401 112.207 56.3278 111.081 56.3278H108.39V56.3322ZM109.857 51.6004L109.809 52.8209H110.935C111.326 52.8209 111.621 52.6245 111.621 52.2339C111.621 51.8432 111.326 51.649 110.935 51.649H109.859V51.6004H109.857ZM109.809 53.845L109.857 55.2596H110.933C111.422 55.2596 111.716 55.0654 111.716 54.5269C111.716 54.0414 111.422 53.845 110.933 53.845H109.806H109.809Z" fill="white"/>
<path d="M121.5 50.6225L123.365 56.2327C123.365 56.2812 123.365 56.332 123.265 56.332H121.845C121.796 56.332 121.747 56.332 121.747 56.2327L121.351 54.9659H119.298L118.955 56.2327C118.951 56.2856 118.911 56.3276 118.858 56.332H117.437C117.384 56.3276 117.344 56.2856 117.34 56.2327L119.296 50.6225C119.3 50.5695 119.34 50.5298 119.393 50.5254H121.349C121.446 50.5254 121.446 50.5739 121.497 50.6225H121.5ZM120.327 51.598L119.69 53.7939H121.017L120.327 51.598Z" fill="white"/>
<path d="M129.182 56.2329C129.178 56.2859 129.136 56.3278 129.083 56.3322H127.859C127.806 56.3278 127.766 56.2859 127.762 56.2329L127.81 53.4521L127.762 50.6205C127.766 50.5676 127.806 50.5279 127.859 50.5234H129.474C129.523 50.5234 129.572 50.5234 129.572 50.572L131.625 54.1826L131.576 53.2071V50.6228C131.578 50.5698 131.621 50.5279 131.674 50.5256H132.897C132.95 50.5301 132.99 50.5698 132.995 50.6228L132.946 53.4521L132.995 56.2329C132.99 56.2859 132.95 56.3278 132.897 56.3322H131.24C131.191 56.3322 131.14 56.3322 131.14 56.2837L129.136 52.7216L129.184 53.845L129.18 56.2373L129.182 56.2329Z" fill="white"/>
<path d="M137.602 53.4535C137.602 51.6482 138.825 50.4277 140.584 50.4277C142.102 50.4277 143.071 51.1605 143.372 52.3787C143.37 52.4317 143.328 52.4736 143.275 52.4758H141.856C141.803 52.4736 141.761 52.4317 141.759 52.3787C141.617 51.8579 141.124 51.5092 140.584 51.5511C139.655 51.5511 139.166 52.2838 139.166 53.4535C139.166 54.6232 139.655 55.3581 140.584 55.3581C141.27 55.3581 141.759 54.9675 141.808 54.2348H140.487C140.434 54.2304 140.394 54.1906 140.389 54.1377V53.2085C140.394 53.1556 140.434 53.1158 140.487 53.1114H143.326C143.379 53.1158 143.419 53.1556 143.423 53.2085C143.423 55.4045 142.348 56.4771 140.538 56.4771C138.816 56.4771 137.602 55.2081 137.602 53.4491V53.4535Z" fill="white"/>
</svg>
