<svg width="105" height="62" viewBox="0 0 105 62" fill="none" xmlns="http://www.w3.org/2000/svg">
<path d="M64.2949 0.769531H92.5256C92.0529 0.949877 91.5365 0.81333 91.056 0.967912C92.8417 0.991099 94.5887 1.43166 96.3846 1.37498C97.9441 1.32603 98.6276 1.91601 99.0386 3.41804C99.0618 3.50306 99.0823 3.58808 99.0977 3.6731C99.4086 5.2756 99.4626 6.90129 99.5191 8.5244C99.5525 9.51115 99.5859 10.4979 99.7092 11.4769C99.7863 12.0927 99.9815 12.2241 100.583 12.139C100.899 12.0952 101.215 12.0411 101.531 12.0128C102.304 11.9458 103.072 11.9767 103.81 12.2292C103.974 12.2859 104.452 12.3452 103.99 12.7007C103.894 12.7754 103.951 12.8656 104.02 12.9223C104.37 13.2031 104.38 13.605 104.385 13.9966C104.395 14.6355 104.431 15.2719 104.493 15.9083C104.606 17.0805 103.928 17.8612 102.743 17.9848C101.947 18.0673 101.148 18.026 100.352 18.0389C99.7041 18.0492 99.6989 18.0467 99.7041 18.7011C99.7272 23.725 99.758 28.7515 99.7734 33.7754C99.7837 37.0422 99.7786 40.3116 99.7837 43.5785C99.7837 44.2225 99.7914 44.2097 100.449 44.2457C101.289 44.2895 102.129 44.3488 102.967 44.4184C103.815 44.4905 104.285 44.9336 104.419 45.7761C104.588 46.8376 104.403 47.8887 104.282 48.9399C104.264 49.0996 104.19 49.249 104.036 49.3341C103.805 49.4603 103.792 49.6097 103.992 49.7695C104.326 50.0348 104.146 50.1585 103.861 50.2023C102.882 50.3517 101.896 50.3852 100.912 50.259C100.218 50.1714 100.069 50.2564 100.061 50.9649C100.048 52.2144 99.9379 53.4588 99.9533 54.7084C99.9687 55.9424 99.979 57.1739 99.8865 58.408C99.7734 59.9049 99.1645 60.719 97.6872 61.0308C95.9787 61.3915 94.2367 61.461 92.4948 61.4662C92.243 61.4662 92.0067 61.3966 91.8268 61.2008C91.724 61.0874 91.6059 61.0102 91.444 61.0643C90.7837 61.2858 90.0951 61.2626 89.4169 61.2678C83.6387 61.3193 77.8605 61.3193 72.0823 61.206C71.2987 61.1905 70.5151 61.206 69.7314 61.2111C69.4642 61.2111 69.233 61.1699 69.1662 60.8607C69.1225 60.652 69.0223 60.6108 68.8784 60.7731C68.6447 61.0359 68.3286 61.0849 68.0101 61.1184C66.1602 61.3039 64.3052 61.3528 62.4477 61.3863C57.3503 61.4791 52.2607 61.175 47.1633 61.2008C46.1331 61.206 45.1002 61.2111 44.07 61.1957C43.515 61.1879 42.9498 61.1673 42.6518 60.5619C42.6209 60.5 42.5593 60.4459 42.4719 60.4872C42.4205 60.5387 42.4385 60.5928 42.4591 60.6495C42.5079 60.786 42.5875 60.9329 42.4591 61.054C42.328 61.175 42.1842 61.0823 42.0557 61.023C41.899 60.9509 41.75 60.9483 41.5958 61.023C41.2464 61.1931 40.8713 61.2137 40.491 61.2137C39.6355 61.2163 38.7748 61.1802 37.9218 61.2395C34.3403 61.4842 30.7537 61.3734 27.1722 61.4353C25.9852 61.4559 24.7931 61.3837 23.6035 61.394C20.3354 61.4198 17.0725 61.309 13.8045 61.2755C12.1216 61.2601 10.4388 61.1879 8.7585 61.1081C8.06481 61.0746 7.36855 61.0385 6.68513 60.8839C5.47759 60.6108 4.94576 60.0569 4.76849 58.828C4.62204 57.8206 4.56295 56.803 4.62204 55.7879C4.7094 54.2498 4.64774 52.7091 4.6837 51.171C4.69655 50.5913 4.66058 50.5578 4.07223 50.5553C3.15758 50.5527 2.24037 50.5759 1.336 50.4161C0.570368 50.2796 0.241508 49.8622 0.231231 49.0893C0.226093 48.7338 0.282616 48.3757 0.213246 47.9737C0.138739 48.3396 0.192692 48.6874 0 48.9837V45.4103C0.179846 45.6679 0.0873544 46.0002 0.241508 46.3429C0.241508 46.1265 0.254354 45.9796 0.241508 45.8354C0.172139 45.217 0.485584 44.8435 1.02512 44.627C1.23837 44.542 1.46446 44.4725 1.68798 44.4235C2.35855 44.2766 3.04711 44.3333 3.72538 44.2586C4.28804 44.1994 4.41394 44.0937 4.41394 43.5347C4.40623 40.8758 4.5424 38.2222 4.50386 35.5634C4.48587 34.2134 4.49101 32.8608 4.51157 31.5108C4.57066 27.2701 4.67857 23.0319 4.52698 18.7912C4.50386 18.1214 4.45247 18.0389 3.7819 17.9977C3.173 17.9616 2.56409 17.9771 1.95261 17.9797C1.26149 17.9822 0.716816 17.7169 0.316016 17.1475C0.215816 17.0058 0.105338 16.8718 0 16.7327C0 15.5708 0 14.4088 0 13.2469C0.151584 13.4813 0.0616623 13.775 0.187555 14.0275C0.262062 13.6205 0.174707 13.1696 0.554952 12.8682C0.614045 12.8192 0.608906 12.7342 0.554952 12.6723C0.213245 12.3091 0.536969 12.2421 0.788753 12.1674C1.66486 11.9046 2.55381 11.884 3.45818 11.9922C4.49101 12.1159 4.49872 12.0927 4.49872 11.0364C4.49872 8.53986 4.51157 6.04078 4.49101 3.54428C4.48587 2.84608 4.75564 2.31278 5.24636 1.85676C5.79875 1.34406 6.46932 1.09673 7.19641 0.957606C7.30175 0.936995 7.515 1.03747 7.49444 0.782413H35.7251C35.3449 0.960182 34.9158 0.833941 34.4919 0.949877C34.5407 0.98337 34.5536 0.996252 34.5638 0.996252C34.998 1.00398 35.4322 1.0014 35.8664 1.01944C36.2595 1.0349 36.6012 1.1431 36.9506 1.37498C37.3566 1.6455 37.652 0.998828 38.1017 1.07612C38.2687 1.10446 38.2738 0.91896 38.2507 0.782413H45.3957C45.3829 0.898349 45.3546 1.04263 45.5036 1.07097C45.8325 1.1328 46.1331 1.25904 46.4388 1.38271C46.6521 1.46773 47.0837 1.01944 47.0529 0.782413H61.3429C61.366 1.01944 61.5176 1.09158 61.7309 1.089C62.4939 1.089 63.257 1.089 64.02 1.089C64.2333 1.089 64.3566 1.01944 64.3052 0.779837L64.2949 0.769531ZM93.5482 21.906C93.6021 20.7956 93.484 19.2575 93.4583 17.7195C93.4095 14.5248 93.3504 11.3326 93.2938 8.13794C93.2784 7.23879 93.2733 7.21303 92.3946 7.11255C91.6213 7.02238 90.8865 6.71321 90.0772 6.80338C88.3738 6.99661 86.6524 6.94508 84.9438 6.94766C67.229 6.98373 49.5167 7.05844 31.8019 6.90644C26.1702 6.85749 20.5358 6.97085 14.9041 6.80596C13.6709 6.76989 12.4351 6.80081 11.2018 6.76474C10.6777 6.74928 10.6495 6.73125 10.6443 7.2491C10.6315 8.57077 10.6315 9.89502 10.4568 11.2064C10.3334 12.139 10.3155 13.0356 10.5287 13.9631C10.7034 14.7231 10.7342 15.5218 10.5698 16.2999C10.4593 16.8177 10.2718 17.3201 10.6109 17.8277C10.6597 17.9024 10.6392 18.026 10.6417 18.1265C10.67 19.2575 10.7137 20.3911 10.7163 21.5222C10.7317 26.6646 10.7368 31.8045 10.6572 36.9469C10.5904 41.3164 10.7419 45.6911 10.5647 50.0606C10.5467 50.4986 10.5159 50.8979 10.0662 51.1349C9.84015 51.256 9.88382 51.4415 10.1022 51.5111C10.6032 51.6708 10.6289 52.0624 10.6417 52.4824C10.6623 53.1625 10.6212 53.8453 10.7034 54.528C10.7599 54.9969 10.9757 55.118 11.4125 55.1412C12.5147 55.203 13.6169 55.203 14.7191 55.2288C15.3254 55.2417 15.9395 55.2468 16.5073 55.5276C16.6589 55.6024 16.8413 55.6127 16.962 55.4967C17.3243 55.1489 17.72 55.2211 18.1413 55.337C18.3212 55.3859 18.5139 55.3911 18.7014 55.3911C20.0374 55.404 21.3708 55.3679 22.7068 55.3293C25.145 55.2571 27.5832 55.27 30.0214 55.2442C34.9723 55.1927 39.9232 55.2185 44.8741 55.2236C45.7014 55.2236 46.5287 55.2777 47.3535 55.3087C47.6207 55.319 47.8699 55.3653 48.0369 55.6152C48.2167 55.8883 48.4094 55.8548 48.5815 55.6024C48.728 55.3859 48.9438 55.3215 49.1827 55.3087C49.7916 55.2752 50.4006 55.2288 51.0095 55.2211C54.203 55.1773 57.3966 55.1901 60.5901 55.167C68.4443 55.1103 76.301 55.1335 84.1551 55.136C86.0563 55.136 87.9575 55.1026 89.8588 55.1979C90.8736 55.2494 91.891 55.2159 92.9084 55.2056C93.5713 55.1979 93.6535 55.1154 93.7357 54.4739C93.7666 54.2292 93.7923 53.9818 93.7897 53.7371C93.7409 50.63 93.6844 47.5229 93.6355 44.4158C93.5842 40.9609 93.6767 37.5034 93.5739 34.0459C93.5251 32.4073 93.5431 30.7636 93.6124 29.125C93.7101 26.8604 93.5071 24.5958 93.5379 21.9009L93.5482 21.906Z" fill="white"/>
<path d="M61.8202 12.4371C63.7343 12.45 65.6535 12.4217 67.5573 12.6793C67.8322 12.7179 68.0994 12.7824 68.3512 12.8957C68.9755 13.174 69.3532 13.6351 69.366 14.3385C69.3891 15.6318 69.4225 16.9226 69.3223 18.2133C69.2992 18.5174 69.2915 18.8239 69.2966 19.1279C69.3223 21.5678 69.253 24.0076 69.2016 26.4474C69.1887 26.9988 69.1142 27.5475 69.0063 28.0886C68.901 28.6116 68.6954 29.0908 68.233 29.4077C67.9272 29.6189 67.9426 29.8379 68.1662 30.0955C68.4719 30.4434 68.7648 30.8066 69.0808 31.1467C69.3634 31.4481 69.5073 31.8037 69.5381 32.203C69.5792 32.7518 69.6332 33.3031 69.6332 33.8545C69.6409 37.3686 69.6409 40.8854 69.6332 44.3995C69.6332 45.2291 69.5715 46.0536 69.4097 46.8677C69.0834 48.5166 68.2484 49.2534 66.5784 49.4312C65.913 49.5007 65.2475 49.5317 64.5795 49.5188C61.7765 49.4621 58.976 49.6476 56.1756 49.6115C55.5744 49.6038 55.5436 49.5806 55.487 48.9855C55.4819 48.9417 55.4742 48.8979 55.4793 48.8541C55.6489 47.4731 55.3945 46.1051 55.3714 44.7293C55.3123 41.2718 55.2866 37.8169 55.3123 34.3594C55.32 33.3959 55.0066 32.5482 54.5981 31.7161C54.3771 31.2652 54.3668 30.786 54.372 30.312C54.3797 29.3767 54.4927 28.4596 54.9757 27.6248C55.0657 27.4702 55.1505 27.3182 55.3046 27.228C55.654 27.0245 55.7183 26.7153 55.6258 26.3624C55.4305 25.6178 55.4588 24.8707 55.5358 24.1132C55.6463 23.0518 55.4305 22.0006 55.3663 20.9443C55.2378 18.8703 55.2841 16.7938 55.3483 14.7172C55.3637 14.1942 55.3971 13.6738 55.4279 13.1534C55.4485 12.803 55.6181 12.5866 55.9932 12.5634C56.6432 12.5221 57.2932 12.4449 57.9458 12.4345C59.2381 12.4139 60.5304 12.4294 61.8227 12.4294L61.8202 12.4371ZM63.7497 39.3318C63.7034 37.4176 63.8088 35.5008 63.6675 33.5865C63.6392 33.1898 63.4876 32.9733 63.1125 32.8703C62.7117 32.7595 62.3083 32.7698 61.9024 32.7801C61.3706 32.7956 61.1702 32.9759 61.1136 33.5067C61.0674 33.9395 61.0289 34.3749 61.0237 34.8077C60.9903 37.7809 61.1162 40.7566 60.7565 43.7194C60.6974 44.1986 60.8619 44.3712 61.3295 44.4846C61.9152 44.6263 62.5113 44.6005 63.1048 44.585C63.6495 44.5722 63.742 44.482 63.7445 43.9435C63.7522 42.4054 63.7471 40.8673 63.7471 39.3267L63.7497 39.3318ZM63.742 21.6348C63.742 20.277 63.7317 19.2465 63.7471 18.2185C63.7522 17.8552 63.5878 17.6903 63.2512 17.6311C62.6629 17.528 62.0694 17.5358 61.4733 17.5383C61.2215 17.5383 61.1059 17.6491 61.0931 17.9016C61.0134 19.3469 60.9261 20.7949 60.8413 22.2402C60.7514 23.7809 61.0186 25.3061 61.0211 26.8416C61.0211 27.1482 61.1856 27.2847 61.4708 27.3208C61.8741 27.3723 62.2724 27.4367 62.6757 27.4857C63.4285 27.5733 63.652 27.3826 63.6597 26.6123C63.6777 24.8449 63.7985 23.0775 63.7394 21.6348H63.742Z" fill="white"/>
<path d="M51.5162 27.1236C51.5162 31.0784 51.5162 34.4328 51.5162 37.7898C51.5162 40.258 51.4391 42.7261 51.3261 45.1917C51.2978 45.8152 51.2336 46.4361 51.1462 47.0544C50.9356 48.5075 50.2367 49.1748 48.7337 49.3422C47.9861 49.4273 47.2307 49.4917 46.4779 49.5071C43.8368 49.5587 41.1956 49.587 38.5519 49.6153C37.3957 49.6282 36.3783 48.8553 36.0238 47.7423C35.8413 47.1652 35.8028 46.5701 35.7951 45.9775C35.7411 40.7629 35.7591 35.5509 35.8028 30.3364C35.8234 28.0718 35.8927 25.8071 35.957 23.5451C35.9775 22.8495 36.0546 22.1564 36.1008 21.4608C36.1214 21.1465 36.1368 20.8502 35.9955 20.5307C35.754 19.9794 35.7129 19.2735 36.0186 18.8458C36.3757 18.3434 36.1959 18.0806 36.0854 17.5962C35.7514 16.1354 35.7591 14.6283 35.9621 13.1365C36.0263 12.6728 36.291 12.4487 36.7457 12.5053C37.6604 12.6161 38.557 12.6316 39.4742 12.4744C39.9393 12.3946 40.3426 12.7501 40.7743 12.9124C41.4037 13.1469 41.5913 13.5385 41.6067 14.2263C41.7274 19.6573 41.7865 25.0883 41.7146 30.5193C41.6709 33.7578 41.6966 36.9963 41.6478 40.2348C41.6324 41.2215 41.5527 42.2057 41.5014 43.1899C41.4834 43.5428 41.4602 43.8881 41.7686 44.1534C41.9972 44.3518 42.2284 44.4368 42.5265 44.3209C42.7423 44.2359 42.9632 44.1612 43.1893 44.1122C43.7109 43.9989 44.2093 44.0349 44.605 44.4446C44.8568 44.7048 45.0212 44.6043 45.1959 44.3647C45.4477 44.0195 45.5042 43.615 45.5248 43.2079C45.5941 41.8321 45.6455 40.4538 45.7072 39.0754C45.7226 38.6967 45.7611 38.3205 45.9281 37.9727C46.0155 37.7924 45.9924 37.6636 45.8382 37.5141C45.3475 37.0427 45.3372 36.8804 45.702 36.3393C45.8613 36.1049 45.8331 35.8369 45.8279 35.5793C45.7997 34.3452 45.7329 33.1111 45.7252 31.877C45.6943 26.8377 45.5633 21.7983 45.6147 16.7589C45.625 15.8726 45.6609 14.989 45.7997 14.113C45.9487 13.1906 46.3212 12.8428 47.2436 12.7965C48.0709 12.7552 48.8982 12.7965 49.7229 12.866C49.9901 12.8892 50.1853 13.0232 50.3087 13.2628C50.4269 13.4972 50.5425 13.5591 50.7583 13.3349C51.0692 13.0129 51.2079 13.0541 51.2721 13.4844C51.3466 13.9842 51.4032 14.4943 51.4134 14.9993C51.434 16.205 51.434 17.4107 51.4237 18.6165C51.3929 21.6514 51.5625 24.6864 51.5162 27.1236Z" fill="white"/>
<path d="M88.0141 39.8149C88.0141 41.0284 88.0219 43.2209 88.009 45.4134C88.0064 45.9338 87.9833 46.4619 87.8908 46.9746C87.6031 48.5874 86.5754 49.4814 84.7358 49.5768C82.8834 49.6747 81.0258 49.7494 79.1657 49.636C77.9787 49.5639 76.7866 49.6025 75.6048 49.4428C75.2014 49.3887 74.8468 49.2367 74.5514 48.9662C73.7446 48.2268 73.2077 47.4023 73.2257 46.2146C73.277 42.4248 73.2257 38.6324 73.2668 34.8399C73.2925 32.5032 73.385 30.1638 73.3233 27.8271C73.2436 24.8076 73.0535 21.7932 73.0715 18.7711C73.0792 17.5654 73.1511 16.3648 73.3027 15.1668C73.3952 14.4222 73.7549 13.8529 74.2431 13.3015C74.8263 12.6445 75.4712 12.3818 76.3704 12.3972C78.8369 12.4359 81.3033 12.3019 83.7723 12.3328C84.4301 12.3405 85.0698 12.4487 85.7095 12.5776C86.4983 12.7347 87.0661 13.201 87.5697 13.7884C87.7238 13.9662 87.7649 14.1698 87.7598 14.3939C87.7033 16.5709 87.7058 18.748 87.5029 20.9198C87.472 21.2393 87.3384 21.4248 87.007 21.4763C85.8406 21.6593 84.6664 21.6773 83.4923 21.5923C83.3227 21.5794 83.1429 21.5279 82.999 21.4428C82.7832 21.3166 82.6213 21.1053 82.814 20.8683C82.9964 20.6467 82.9553 20.4638 82.8757 20.2294C82.6753 19.6394 82.7498 19.0211 82.7395 18.413C82.7267 17.6504 82.5365 17.4366 81.7786 17.4623C80.9667 17.4881 80.1574 17.5654 79.3456 17.6118C79.0758 17.6272 78.9525 17.7483 78.9602 18.0214C79.0013 19.6909 79.0193 21.3604 79.0861 23.0273C79.1195 23.8543 79.1375 24.6813 79.14 25.5109C79.1452 29.2157 79.158 32.9206 79.1349 36.6228C79.122 38.8282 79.0758 41.0361 78.9602 43.2389C78.9576 43.311 78.9525 43.3832 78.9448 43.4553C78.842 44.2488 78.8523 44.2385 79.6719 44.339C80.3527 44.4215 81.0335 44.4112 81.7144 44.4266C82.3875 44.4395 82.8294 43.8778 82.6085 43.2389C82.3567 42.5098 82.3027 41.7652 82.3027 41.0078C82.3027 38.5087 82.2925 36.0096 82.3207 33.5131C82.3259 32.9927 82.1974 32.6269 81.7015 32.462C81.1029 32.261 80.9411 31.8617 80.9822 31.2562C81.0515 30.1999 80.9436 29.1384 81.0747 28.0796C81.126 27.6673 81.3033 27.4406 81.7195 27.4046C81.8197 27.3968 81.9199 27.3556 82.0201 27.353C83.7338 27.3221 85.4449 27.2886 87.1586 27.268C87.6288 27.2629 87.7649 27.6184 87.8292 27.9894C87.8882 28.332 87.9114 28.6824 87.9217 29.0302C88.027 32.2971 88.0373 35.5639 88.0141 39.8123V39.8149Z" fill="white"/>
<path d="M31.9128 24.2869C31.9128 27.1184 31.9102 29.9498 31.9179 32.7812C31.9179 33.0955 31.81 33.3274 31.607 33.5593C30.8671 34.4095 29.86 34.5847 28.822 34.7058C27.5913 34.8475 26.3555 34.7676 25.1249 34.796C24.6033 34.8088 24.0818 34.8449 23.5602 34.8887C23.1928 34.9196 22.9719 35.0897 23.0284 35.5122C23.1774 36.6226 23.1517 37.7433 23.1697 38.8589C23.2159 41.7058 23.1902 44.5527 23.1979 47.3995C23.1979 47.9122 23.144 48.4146 22.995 48.9041C22.8485 49.3859 22.5351 49.726 22.0212 49.7878C20.7931 49.9347 19.5625 49.9167 18.3318 49.775C18.1828 49.7569 18.0441 49.6925 17.9567 49.5714C17.5739 49.0458 17.2271 48.5409 17.1937 47.8221C17.078 45.3668 17.1192 42.9141 17.15 40.4614C17.168 38.9542 17.1757 37.4419 17.3067 35.9347C17.3196 35.7904 17.3427 35.6462 17.3812 35.507C17.5431 34.9067 17.4557 34.6414 16.9213 34.3683C16.6387 34.224 16.5231 34.0359 16.5 33.7268C16.4049 32.4643 16.3921 31.2045 16.5154 29.9447C16.5385 29.7102 16.5822 29.4706 16.7286 29.2903C17.1577 28.7673 17.1937 28.1463 17.2116 27.5203C17.2502 26.1574 17.186 24.7919 17.2862 23.4264C17.3247 22.8983 17.4763 22.4345 17.7383 21.994C17.8822 21.7518 17.9002 21.5534 17.5534 21.489C17.3273 21.4478 17.317 21.2752 17.3093 21.0923C17.2014 18.7271 17.1988 16.3595 17.2245 13.9944C17.2373 12.7629 17.335 12.6289 18.5631 12.6186C21.7129 12.5928 24.8628 12.5258 28.0127 12.6675C28.8246 12.7036 29.639 12.701 30.438 12.8608C31.5377 13.0823 31.8665 13.5358 31.9205 14.6616C32.0746 17.8692 31.9564 21.0794 31.9179 24.2895L31.9128 24.2869ZM26.0986 23.1199C26.1397 21.878 26.0601 20.1545 26.0215 18.4283C26.0087 17.8924 25.929 17.8048 25.3767 17.7945C24.8268 17.7842 24.2745 17.8048 23.7221 17.7919C23.3264 17.7816 23.1851 17.9542 23.1877 18.3407C23.2005 20.3863 23.1723 22.4345 23.2134 24.4802C23.2313 25.4231 23.2725 26.3635 23.2005 27.3064C23.1851 27.5126 23.1646 27.7084 23.0644 27.8939C22.7047 28.5483 22.8562 28.9012 23.5808 29.0893C24.2899 29.2722 25.0195 29.2336 25.7389 29.3134C25.8931 29.3315 26.0498 29.2748 26.0755 29.1048C26.114 28.8497 26.281 28.7466 26.4917 28.6539C26.8617 28.489 26.669 28.1489 26.7024 27.8836C26.7255 27.6981 26.6741 27.51 26.4583 27.4868C26.1089 27.4507 26.096 27.2266 26.0986 26.9612C26.1037 25.8431 26.0986 24.7249 26.0986 23.1224V23.1199Z" fill="white"/>
</svg>
