<svg width="172" height="53" viewBox="0 0 172 53" fill="none" xmlns="http://www.w3.org/2000/svg">
<path d="M0 25.1884C0.0483552 25.2139 0.10689 25.2547 0.124705 25.1629C0.1527 25.0202 0.173061 24.8775 0.190876 24.7322C0.465737 22.5226 0.824583 20.3309 1.58809 18.2258C2.69771 15.1599 4.23999 12.3412 6.38034 9.86653C6.75191 9.43583 7.17693 9.05099 7.57395 8.64068C8.04223 8.159 8.58432 8.03922 9.22821 8.23291C10.4065 8.58461 11.5085 9.08922 12.5342 9.76204C13.7329 10.5495 14.8527 11.439 15.9343 12.3743C16.8047 13.1287 17.6522 13.906 18.5099 14.6756C18.6015 14.7572 18.6931 14.8413 18.7771 14.9279C18.9552 15.1089 18.9603 15.1446 18.7949 15.351C18.2859 15.9881 17.7693 16.6202 17.2628 17.2599C15.7689 19.1458 14.3869 21.1107 13.061 23.1139C11.646 25.2496 10.3226 27.4388 9.1035 29.6891C8.11858 31.5062 7.19474 33.3565 6.45669 35.2934C5.86116 36.8556 5.41578 38.4587 5.26308 40.128C5.19437 40.8721 5.16637 41.6265 5.44378 42.3478C5.46923 42.4166 5.50486 42.4956 5.42342 42.5822C5.3038 42.5695 5.25799 42.4599 5.19437 42.3758C4.3876 41.3003 3.69027 40.1586 3.0591 38.9709C1.8375 36.667 1.07908 34.2102 0.598077 31.6591C0.425016 30.7366 0.274862 29.8115 0.178152 28.8761C0.165427 28.7513 0.223961 28.5627 0 28.5372V25.1833V25.1884Z" fill="white"/>
<path d="M26.3735 0.77208C26.3709 0.820503 26.3836 0.868925 26.4345 0.874022C26.5236 0.884216 26.6127 0.886764 26.7018 0.886764C29.2519 0.871473 31.7282 1.29963 34.1383 2.12536C35.4286 2.5688 36.7011 3.05558 37.9304 3.65194C38.3528 3.85837 38.7524 4.10558 39.1571 4.34514C39.1952 4.36808 39.2334 4.39356 39.269 4.4216C39.3047 4.44963 39.3428 4.48276 39.3148 4.53119C39.2996 4.55667 39.2639 4.57961 39.236 4.58216C39.1596 4.5898 39.0782 4.5949 39.0018 4.58725C37.5512 4.43944 36.1234 4.5898 34.7109 4.92111C32.7233 5.3875 30.8196 6.09344 28.9719 6.9574C28.1117 7.36007 27.2439 7.74745 26.3862 8.15267C26.1113 8.28265 25.8721 8.29029 25.5922 8.14757C24.8668 7.77294 24.1288 7.42379 23.3958 7.06954C21.5201 6.15971 19.5681 5.45121 17.555 4.91347C16.5014 4.63058 15.4274 4.5108 14.3356 4.53119C13.9665 4.53883 13.5975 4.53883 13.2285 4.53883C13.1394 4.53883 13.03 4.53883 12.9969 4.44199C12.9587 4.3375 13.0554 4.28398 13.1292 4.23301C13.2107 4.17694 13.2972 4.12087 13.3863 4.075C15.2365 3.14733 17.1198 2.29611 19.1227 1.74562C20.4945 1.36844 21.8841 1.08045 23.3042 0.978512C24.027 0.927541 24.7523 0.868925 25.4802 0.884216C25.61 0.886765 25.755 0.917347 25.8416 0.769531H26.3786L26.3735 0.77208Z" fill="white"/>
<path d="M25.8571 52.9025C23.2968 52.9177 20.8001 52.5355 18.3645 51.7505C16.1402 51.0344 14.0278 50.0812 12.0656 48.8018C11.2869 48.2947 10.5005 47.8028 9.79295 47.1963C9.48755 46.9338 9.19233 46.6611 8.92765 46.3552C8.53572 45.8991 8.33466 45.3664 8.30412 44.7624C8.24559 43.6283 8.54844 42.5707 8.96837 41.5385C9.60462 39.9788 10.4623 38.5414 11.3989 37.1448C12.4856 35.5265 13.6868 33.9973 14.9415 32.5115C15.6338 31.6909 16.354 30.8958 17.0844 30.1108C18.0668 29.0557 19.0492 27.9981 20.0926 27.0041C21.7112 25.4623 23.3273 23.9153 25.091 22.5365C25.3124 22.3632 25.5389 22.2027 25.7731 22.0523C26.0199 21.8943 26.2337 21.8994 26.4831 22.0676C26.9463 22.3836 27.3841 22.7302 27.804 23.0998C28.8983 24.058 29.9469 25.0621 31.0031 26.0612C31.7589 26.7773 32.4995 27.5062 33.2223 28.2529C34.6348 29.7158 36.0575 31.171 37.3758 32.7231C39.0555 34.7033 40.6054 36.7829 41.9135 39.0307C42.6516 40.2973 43.3056 41.6073 43.667 43.0421C43.7688 43.4448 43.8452 43.85 43.8808 44.2629C43.975 45.3282 43.5525 46.1667 42.7559 46.8573C41.6158 47.8436 40.356 48.6489 39.0529 49.3906C37.6201 50.2036 36.1414 50.9222 34.5915 51.4778C32.9551 52.0614 31.2627 52.4284 29.5371 52.6451C28.3155 52.798 27.0914 52.877 25.8621 52.8999L25.8571 52.9025Z" fill="white"/>
<path d="M111.863 26.866C112.153 27.0291 112.428 27.1744 112.695 27.3324C114.247 28.2575 115.385 29.5343 116.008 31.2418C116.293 32.0242 116.413 32.8372 116.454 33.6706C116.51 34.792 116.355 35.8776 116.014 36.9378C115.415 38.7957 114.232 40.1949 112.59 41.2194C111.272 42.0426 109.822 42.5115 108.295 42.7689C107.378 42.9244 106.454 42.983 105.523 42.983C101.599 42.9779 97.6717 42.9804 93.7472 42.983C93.536 42.983 93.3222 42.983 93.111 42.9932C92.9557 43.0008 92.8819 42.9295 92.8768 42.7791C92.8743 42.6568 92.8718 42.5345 92.8718 42.4096C92.8718 38.049 92.8718 33.691 92.8718 29.3304C92.8718 28.7162 92.8947 28.7417 92.2864 28.7417C90.5202 28.7417 88.7514 28.7417 86.9852 28.7417C86.835 28.7417 86.6263 28.8131 86.5499 28.6627C86.4711 28.5073 86.6619 28.3926 86.7485 28.2728C87.3084 27.5057 87.8912 26.7538 88.4384 25.9765C88.6394 25.6911 88.8608 25.5739 89.2146 25.5815C90.2657 25.6045 91.3168 25.5917 92.3678 25.5917C92.4569 25.5917 92.546 25.5917 92.6351 25.5866C92.7852 25.5841 92.8616 25.5051 92.8641 25.3572C92.8641 25.2349 92.8692 25.1126 92.8692 24.9877C92.8692 21.0196 92.8692 17.0515 92.8692 13.0809C92.8692 12.3648 92.8565 12.4361 93.4978 12.4361C97.6691 12.4361 101.84 12.4132 106.012 12.454C107.918 12.4718 109.773 12.8362 111.476 13.7537C113.275 14.7247 114.466 16.2003 115.064 18.1576C115.321 18.9986 115.469 19.86 115.464 20.7316C115.456 22.0161 115.143 23.2318 114.451 24.3327C113.853 25.2859 113.089 26.0708 112.122 26.6545C112.038 26.7054 111.939 26.7411 111.858 26.866H111.863ZM96.4297 34.2466C96.4297 35.9439 96.4297 37.6438 96.4297 39.3411C96.4297 39.7081 96.45 39.7234 96.8038 39.7285C96.87 39.7285 96.9387 39.7285 97.0049 39.7285C99.7535 39.7285 102.505 39.7285 105.253 39.7285C105.991 39.7285 106.727 39.6928 107.457 39.5909C108.679 39.4201 109.827 39.0429 110.86 38.3523C111.639 37.8324 112.178 37.129 112.535 36.2701C112.949 35.2711 112.982 34.2287 112.906 33.1736C112.888 32.9417 112.835 32.7098 112.769 32.4855C112.346 31.0456 111.394 30.0823 110.038 29.5012C108.712 28.9329 107.307 28.7494 105.877 28.7468C102.891 28.7392 99.9087 28.7443 96.9234 28.7468C96.4297 28.7468 96.4271 28.7468 96.4271 29.2565C96.4271 30.9207 96.4271 32.5849 96.4271 34.2517L96.4297 34.2466ZM101.779 25.5764C103.164 25.5306 104.897 25.6529 106.628 25.5153C107.722 25.4286 108.768 25.1636 109.722 24.6029C110.605 24.083 111.272 23.3668 111.641 22.3958C112.01 21.4299 112.087 20.436 111.888 19.4293C111.697 18.4558 111.219 17.6377 110.427 17.0133C109.865 16.5699 109.229 16.2793 108.546 16.0831C107.452 15.7645 106.325 15.6881 105.195 15.683C102.444 15.6677 99.6924 15.6779 96.9438 15.6779C96.4348 15.6779 96.4322 15.6779 96.4322 16.2003C96.4322 19.1745 96.4322 22.1461 96.4322 25.1202C96.4322 25.1763 96.4322 25.2324 96.4322 25.2884C96.4475 25.5382 96.478 25.5662 96.7376 25.5764C96.8267 25.579 96.9158 25.5764 97.0049 25.5764C98.481 25.5764 99.9571 25.5764 101.782 25.5764H101.779Z" fill="white"/>
<path d="M51.9463 27.0306C51.9642 28.4833 51.8929 29.8544 51.6842 31.2153C51.5468 32.1124 51.3126 32.9866 51.0683 33.8582C50.7146 35.107 50.2921 36.3328 49.7754 37.523C49.2944 38.6342 48.6785 39.674 48.0576 40.7087C47.7522 41.2158 47.4519 41.7281 47.0905 42.1996C47.0294 42.2786 46.9683 42.3576 46.9021 42.4366C46.8741 42.4697 46.836 42.5029 46.7876 42.4901C46.7214 42.4697 46.7113 42.406 46.7189 42.3525C46.7545 42.0976 46.7902 41.8428 46.8385 41.5905C46.9149 41.1904 46.9021 40.7877 46.8767 40.3876C46.7622 38.573 46.2761 36.8451 45.6118 35.163C44.7872 33.0681 43.7616 31.0701 42.6698 29.1026C41.2115 26.47 39.6158 23.9214 37.9284 21.4315C36.5414 19.385 35.0398 17.4252 33.4848 15.5036C33.1616 15.106 33.1693 15.1162 33.5612 14.7696C34.172 14.2293 34.7701 13.6737 35.3758 13.1258C36.7348 11.8923 38.1346 10.7097 39.6845 9.71835C40.7839 9.01496 41.9546 8.46957 43.2348 8.17139C43.6216 8.07964 43.9499 8.16119 44.268 8.40585C44.7796 8.79578 45.2173 9.25452 45.6373 9.73619C46.5713 10.8091 47.4162 11.9483 48.1543 13.164C49.2614 14.9887 50.147 16.9154 50.7884 18.9492C51.1854 20.2056 51.5315 21.4799 51.7071 22.7924C51.786 23.3913 51.8471 23.9902 51.8751 24.5942C51.9158 25.4301 51.9692 26.2686 51.9438 27.0306H51.9463Z" fill="white"/>
<path d="M132.95 43.6586C131.454 43.6866 130.224 43.5414 129.013 43.2406C126.99 42.736 125.14 41.8746 123.508 40.5621C121.851 39.2267 120.597 37.5701 119.663 35.6714C118.881 34.0863 118.423 32.3966 118.159 30.6483C117.958 29.3154 117.904 27.9748 117.975 26.6369C118.151 23.3824 119.011 20.3343 120.92 17.6456C123.086 14.5924 126.038 12.7345 129.708 12.0311C132.49 11.4985 135.228 11.6896 137.905 12.6275C139.781 13.285 141.423 14.3223 142.843 15.7138C144.311 17.1512 145.395 18.8434 146.156 20.7446C146.772 22.2814 147.123 23.8793 147.309 25.5206C147.411 26.4202 147.459 27.325 147.429 28.2297C147.335 30.9668 146.792 33.5995 145.52 36.0435C143.945 39.0712 141.601 41.2859 138.43 42.5908C137.139 43.1208 135.793 43.4343 134.406 43.5847C133.836 43.6459 133.266 43.6204 132.948 43.6535L132.95 43.6586ZM121.531 27.8041C121.538 28.2679 121.546 28.7929 121.592 29.3179C121.762 31.2829 122.294 33.1331 123.249 34.8636C124.312 36.7903 125.822 38.2659 127.776 39.2573C130.054 40.4143 132.477 40.6284 134.963 40.1696C136.786 39.8332 138.394 39.0228 139.789 37.8122C141.094 36.6781 142.036 35.2739 142.723 33.6938C143.479 31.9557 143.792 30.1233 143.858 28.245C143.901 27.0242 143.82 25.8111 143.588 24.6082C143.191 22.5439 142.41 20.6503 141.102 18.9912C139.812 17.355 138.178 16.2006 136.198 15.566C134.434 15.0002 132.622 14.9135 130.792 15.199C128.191 15.6042 126.071 16.8581 124.389 18.8638C123.437 20.0004 122.765 21.2951 122.292 22.6943C121.737 24.3304 121.515 26.0201 121.528 27.8015L121.531 27.8041Z" fill="white"/>
<path d="M66.5306 12.4334C67.1007 12.4334 67.6708 12.4411 68.2409 12.4309C68.4648 12.4258 68.615 12.5074 68.7473 12.6883C70.4626 15.0049 72.1856 17.319 73.906 19.6331C74.9877 21.0858 76.0718 22.5359 77.1535 23.9886C77.1866 24.0344 77.2222 24.0778 77.2553 24.1211C77.3189 24.2026 77.3876 24.195 77.4512 24.1236C77.5021 24.065 77.5505 24.0013 77.5963 23.9401C79.9275 20.8131 82.2588 17.6835 84.59 14.5564C85.0583 13.9294 85.5317 13.3076 85.9923 12.6756C86.117 12.5023 86.2646 12.4334 86.4733 12.4334C87.6033 12.4385 88.7333 12.436 89.8607 12.4385C89.8938 12.4385 89.9269 12.4385 89.9625 12.4411C90.1712 12.464 90.2068 12.5252 90.0923 12.6934C89.9676 12.8794 89.8251 13.0527 89.6927 13.2311C87.7509 15.8409 85.8091 18.4506 83.8647 21.0577C82.4751 22.9207 81.083 24.7837 79.6909 26.6467C79.6578 26.6926 79.6247 26.7384 79.5891 26.7792C79.4643 26.9194 79.4745 27.0519 79.5891 27.1972C79.8105 27.4775 80.0217 27.768 80.2329 28.056C81.424 29.6642 82.6176 31.2697 83.8061 32.8779C85.3357 34.9448 86.8627 37.0116 88.3922 39.0785C89.2626 40.2559 90.1407 41.4283 91.0111 42.6057C91.0925 42.7153 91.2605 42.8274 91.1765 42.9727C91.1078 43.0925 90.9296 43.0313 90.7998 43.0313C89.7156 43.0364 88.6315 43.0287 87.5448 43.0389C87.2724 43.0415 87.0917 42.9497 86.9263 42.728C84.5467 39.5092 82.1621 36.298 79.7774 33.0843C79.0521 32.1057 78.3242 31.127 77.5963 30.1509C77.5429 30.0796 77.4894 30.0082 77.4309 29.9394C77.3774 29.8757 77.3138 29.8757 77.2604 29.9394C77.1942 30.0159 77.1357 30.0974 77.0746 30.1764C75.8504 31.8279 74.6263 33.4819 73.3996 35.1333C72.1933 36.7568 70.9818 38.3776 69.7755 40.0011C69.1087 40.8982 68.4394 41.7927 67.7827 42.6974C67.6097 42.937 67.4188 43.0466 67.1134 43.0415C66.0292 43.0236 64.9451 43.0364 63.8583 43.0338C63.7413 43.0338 63.5835 43.0797 63.5199 42.9523C63.4562 42.8223 63.5988 42.7331 63.67 42.6414C65.3039 40.442 66.9404 38.2477 68.5742 36.0483C70.7401 33.1327 72.9033 30.2121 75.0666 27.294C75.2057 27.1071 75.2023 26.9168 75.0564 26.7231C72.3536 23.1042 69.6508 19.4878 66.948 15.8689C66.1921 14.8571 65.4439 13.8402 64.6931 12.8234C64.6244 12.7291 64.4844 12.6373 64.543 12.5099C64.6066 12.3774 64.7644 12.4411 64.8789 12.4411C65.4261 12.436 65.9758 12.4411 66.523 12.4411L66.5306 12.4334Z" fill="white"/>
<path d="M147.347 12.4338C147.907 12.4338 148.464 12.4389 149.024 12.4312C149.245 12.4287 149.396 12.5026 149.531 12.6861C150.49 13.9935 151.46 15.2907 152.427 16.593C154.229 19.0141 156.03 21.4353 157.832 23.8564C158.173 24.3151 158.128 24.2769 158.438 23.8615C160.538 21.0479 162.632 18.2317 164.729 15.4156C165.411 14.5007 166.096 13.5883 166.773 12.6734C166.89 12.5153 167.022 12.4338 167.221 12.4338C168.374 12.4363 169.524 12.4338 170.677 12.4338C170.71 12.4338 170.743 12.4338 170.776 12.4363C170.982 12.4618 171.021 12.5255 170.901 12.6912C170.659 13.0276 170.407 13.3538 170.16 13.6851C168.781 15.5303 167.404 17.3754 166.025 19.218C164.258 21.5805 162.49 23.9456 160.723 26.3081C160.637 26.4253 160.545 26.5374 160.456 26.6521C160.222 26.9554 160.222 26.9885 160.449 27.2893C160.843 27.8168 161.243 28.3418 161.635 28.8719C163.714 31.6702 165.793 34.4711 167.872 37.2719C169.137 38.9769 170.4 40.6844 171.664 42.392C171.738 42.4913 171.82 42.5856 171.855 42.7054C171.914 42.8991 171.843 43.0036 171.639 43.024C171.583 43.0291 171.527 43.0265 171.471 43.0265C170.43 43.0265 169.392 43.0214 168.351 43.0316C168.076 43.0342 167.898 42.9424 167.732 42.7207C165.17 39.2623 162.599 35.8116 160.031 32.3583C159.512 31.6575 158.998 30.9541 158.481 30.2507C158.415 30.1615 158.352 30.0697 158.28 29.9831C158.158 29.8353 158.115 29.8302 158 29.9831C157.797 30.2481 157.601 30.5208 157.4 30.791C156.15 32.4807 154.898 34.1703 153.648 35.8575C151.964 38.1282 150.276 40.399 148.599 42.6748C148.416 42.9246 148.217 43.0393 147.902 43.0342C146.851 43.0163 145.8 43.0291 144.748 43.0291C144.692 43.0291 144.636 43.0316 144.58 43.0291C144.484 43.0214 144.359 43.052 144.316 42.9348C144.283 42.843 144.372 42.7717 144.423 42.7003C145.591 41.1304 146.762 39.5656 147.927 37.9932C150.561 34.4354 153.195 30.8776 155.827 27.3173C156.056 27.0064 156.053 27.0038 155.814 26.6827C154.058 24.3253 152.302 21.9679 150.549 19.6079C148.866 17.3474 147.187 15.0868 145.507 12.8263C145.494 12.8084 145.476 12.7931 145.466 12.7727C145.415 12.681 145.28 12.6045 145.354 12.4822C145.413 12.3879 145.537 12.4287 145.637 12.4287C146.207 12.4261 146.777 12.4287 147.347 12.4287V12.4338Z" fill="white"/>
</svg>
