<svg fill="none" height="25" viewBox="0 0 33 25" width="33" xmlns="http://www.w3.org/2000/svg" xmlns:xlink="http://www.w3.org/1999/xlink"><clipPath id="a"><path d="m0 0h33v25h-33z"/></clipPath><g clip-path="url(#a)"><path d="m11.3849 0h.5117c.1192.225256.2402.450513.356.677502.5324 1.048308.5289 1.029248 1.6974.904488 1.7544-.18713 3.5105-.18713 5.2632.0208 1.0094.12129 1.0059.12822 1.4467-.757212.14-.285902.2956-.564874.4442-.845578h.5117c1.9272.457444 3.8354.970336 5.659 1.76393.3768.16288.7121.34655.9524.71043 2.1104 3.2073 3.628 6.65892 4.3021 10.45534.1971 1.1107.3146 2.2335.4684 3.3529v3.462c.0433 1.0015-.6118 1.4919-1.3637 1.958-1.2687.7867-2.5461 1.5508-3.9236 2.1295-.9594.4038-1.9308.7798-2.897 1.1679h-.3837c-.5358-.7711-1.0578-1.5491-1.5072-2.3756-.1953-.3604-.1314-.5822.261-.7451.5496-.2287 1.0889-.4869 1.6213-.7554.1867-.0936.5133-.1647.3543-.4887-.1175-.2426-.3768-.2564-.6188-.1854-.1417.0416-.2783.1057-.4165.1612-5.0783 2.0585-10.1565 2.0671-15.23652.0069-.19532-.0797-.39755-.1577-.60497-.1923-.2005-.033-.39236.0485-.46668.2529-.07951.2184.10889.3067.25581.3812.47533.2392.95239.4748 1.43809.6949.83487.3777.85387.3864.36817 1.1973-.41484.6948-.86943 1.3671-1.305 2.0498h-.38372c-.21433-.0901-.42521-.194-.64472-.2703-2.18134-.7589-4.23303-1.7743-6.17238-3.0305-.732871-.4765-1.4225318-.9461-1.36894915-1.958 0-1.1974 0-2.393 0-3.5903.03111255-.1663.07950975-.3327.09333755-.5007.3647076-4.701 1.9635416-8.96871 4.4940316-12.9159.30248-.47131.67583-.7832 1.19092-.99979 1.81143-.765874 3.70066-1.271835 5.60368-1.73621zm2.5443 13.7424c.0069-1.7033-1.1148-3.0912-2.5944-3.2125-2.00676-.1646-3.58313 1.7344-3.16829 3.8155.40792 2.0394 2.17959 3.1449 3.90119 2.4345 1.1269-.4661 1.8563-1.6548 1.8615-3.0375zm5.1422.1022c.0035.0711 0 .2443.026.4107.1866 1.18.7726 2.0775 1.8961 2.5402 1.0267.421 1.9722.194 2.7949-.5147.7001-.603.9991-1.4225 1.0907-2.3184.2005-1.9493-1.3396-3.585-3.2167-3.4308-1.4778.1213-2.5996 1.511-2.5944 3.3147z" fill="#fff"/></g></svg>