<svg fill="none" height="31" viewBox="0 0 31 31" width="31" xmlns="http://www.w3.org/2000/svg" xmlns:xlink="http://www.w3.org/1999/xlink"><clipPath id="a"><path d="m0 0h31v31h-31z"/></clipPath><g clip-path="url(#a)" fill="#fff"><path d="m23.7066 5.53564c-1.0032 0-1.8179.81284-1.8179 1.81794 0 1.00509.8128 1.81793 1.8179 1.81793s1.8179-.81284 1.8179-1.81793c0-1.0051-.8128-1.81794-1.8179-1.81794z"/><path d="m15.6275 7.86572c-4.2088 0-7.63531 3.42458-7.63531 7.63338 0 4.2089 3.42451 7.6334 7.63531 7.6334 4.2107 0 7.6334-3.4245 7.6334-7.6334 0-4.2088-3.4246-7.63338-7.6334-7.63338zm0 12.52378c-2.6974 0-4.8903-2.193-4.8903-4.8904s2.1929-4.8903 4.8903-4.8903 4.8903 2.1929 4.8903 4.8903-2.1929 4.8904-4.8903 4.8904z"/><path d="m21.6876 31h-12.37713c-5.13399 0-9.31047-4.1765-9.31047-9.3105v-12.37903c0-5.13399 4.17648-9.31047 9.31047-9.31047h12.37713c5.134 0 9.3124 4.17648 9.3124 9.31047v12.37713c0 5.134-4.1784 9.3105-9.3124 9.3105zm-12.37713-28.0837c-3.52736 0-6.39417 2.86872-6.39417 6.39417v12.37713c0 3.5274 2.86872 6.3942 6.39417 6.3942h12.37713c3.5274 0 6.3961-2.8687 6.3961-6.3942v-12.37713c0-3.52545-2.8687-6.39417-6.3961-6.39417z"/></g></svg>