<svg fill="none" height="30" viewBox="0 0 30 30" width="30" xmlns="http://www.w3.org/2000/svg"><g fill="#fff"><path d="m3.79599 0c.24955.049426.50229.0733418.74864.143495 1.50528.424107 2.54506 1.811225 2.57385 3.368945.03039 1.69483-1.22214 3.25574-2.94817 3.53635-1.11816.18176-2.11795-.09248-2.97057-.84184-.798226-.70153-1.19974-1.59917-1.19974-2.65147.00159966-1.93399 1.48928-3.37372 3.20572-3.5299698.03999-.0031888.07998-.01594387.12157-.0255102z"/><path d="m15.8175 12.8556c.2544-.338.5151-.6489.8127-.9232 1.3133-1.2133 2.8553-1.96106 4.6326-2.19225 1.3981-.18176 2.777-.06537 4.0935.46875.9982.405 1.8812.9981 2.6426 1.7602.4111.413.7023.912.9662 1.4254.4319.8434.7855 1.7171.947 2.6578.0528.3062.088.6155.088.928v12.7901c0 .228 0 .2296-.2383.2296-1.8684 0-3.7368 0-5.6036 0-.248 0-.2528-.0032-.2496-.2535.0464-3.5315.0128-7.0631.0256-10.5947.0016-.558-.0656-1.1081-.2559-1.6358-.376-1.0459-1.1006-1.7379-2.1644-2.0472-1.2701-.3699-2.4987-.2344-3.6408.4432-.6927.4114-1.1102 1.0619-1.4013 1.7985-.2368.5963-.3327 1.2181-.3327 1.8559v10.1753c0 .1712-.0859.2573-.2576.2583-1.8476 0-3.6952 0-5.5412 0-.176 0-.2639-.0903-.2639-.271 0-6.4732 0-12.9448 0-19.4181 0-.0414.0016-.0829 0-.1243-.0032-.0941.0351-.1483.1375-.1419.0304.0016.0624 0 .0944 0h5.2453c.16 0 .2399.0808.2399.2423v2.3804c0 .0559-.0144.1132.0272.1898z"/><path d="m.451905 20.0111c0-3.2095 0-6.419 0-9.6285 0-.0462.004799-.094 0-.1403-.015997-.1451.038391-.212.191959-.1993.129572.0096.260744.0016.390316.0016h5.40045c.23355 0 .23515 0 .23515.2328v19.4755c0 .2423-.0048.2471-.24155.2471-1.91479 0-3.82958 0-5.742775 0-.231951 0-.231951 0-.231951-.236 0-3.2509 0-6.5019 0-9.7529z"/></g></svg>