<svg fill="none" height="30" viewBox="0 0 25 30" width="25" xmlns="http://www.w3.org/2000/svg" xmlns:xlink="http://www.w3.org/1999/xlink"><clipPath id="a"><path d="m0 0h25v30h-25z"/></clipPath><g clip-path="url(#a)"><path d="m24.9965 12.1377c-.2392.0234-.4785.0361-.7177.0379-2.6314 0-5.0851-1.3618-6.5257-3.62133v12.33233c0 5.0337-3.9735 9.1138-8.87566 9.1138-4.90221 0-8.87744-4.0819-8.87744-9.1156s3.97347-9.1138 8.87568-9.1138c.18469 0 .36586.0181.54879.0289v4.4919c-.18293-.0217-.36059-.056-.54879-.056-2.50124 0-4.53107 2.0825-4.53107 4.6526s2.02808 4.6526 4.53107 4.6526c2.50302 0 4.71222-2.0247 4.71222-4.5948l.044-20.94400273h4.1845c.394 3.85250273 3.4212 6.86333273 7.1836 7.14509273v4.99221" fill="#fff"/></g></svg>