<svg fill="none" height="30" viewBox="0 0 37 30" width="37" xmlns="http://www.w3.org/2000/svg" xmlns:xlink="http://www.w3.org/1999/xlink"><clipPath id="a"><path d="m0 0h37v30h-37z"/></clipPath><g clip-path="url(#a)"><path d="m36.8481 3.59593c-1.1744.52318-2.4741.84004-3.7419 1.05005.6021-.09948 1.4847-1.17347 1.8401-1.60639.5404-.66134.9892-1.41664 1.2416-2.230885.0337-.064476.0561-.14369-.0074-.191587-.0823-.031317-.1328-.014738-.1983.01658-1.4156.747932-2.8779 1.287692-4.4375 1.672702-.129.03132-.2244 0-.3067-.07921-.129-.14369-.2506-.27817-.3871-.39054-.6545-.54898-1.3576-.980048-2.1486-1.296904-1.0397-.418176-2.1767-.5950259-3.2968-.5231807-1.0903.0700031-2.1599.3721217-3.1267.8695117-.9687.499233-1.8345 1.193733-2.5226 2.030093-.7125.86582-1.238 1.88824-1.5054 2.97328-.2599 1.04637-.2394 2.08167-.0804 3.13725.0243.175.0075.19895-.1533.175-6.0944-.89346-11.1453-3.04144-15.24436-7.64322-.17765-.19896-.27489-.19896-.42075.01473-1.795209 2.64907-.92378 6.90636 1.31836 8.99719.2992.2801.60588.5582.93687.8125-.11968.0239-1.61195-.1345-2.94152-.8125-.17765-.1105-.26741-.0478-.28237.1511-.01683.2855.00935.549.04862.8603.34408 2.6859 2.23092 5.1692 4.81714 6.1382.30668.1271.64702.2395.97614.2947-.58905.1271-1.19493.2174-2.88542.0884-.20944-.0405-.28985.0645-.20944.2635 1.26973 3.408 4.0093 4.4231 6.06073 4.9997.2749.0479.5498.0479.8246.1105-.0168.024-.0336.024-.0486.0479-.6807 1.0224-3.04061 1.7832-4.14018 2.1609-1.99904.689-4.17386.9984-6.286969.7921-.338472-.0497-.409532-.046-.5011625 0-.0935004.0571-.01122.1363.0972405.2229.428232.2782.865811.5269 1.309011.7645 1.34079.7001 2.73956 1.2582 4.20191 1.6562 7.55295 2.054 16.05965.5452 21.73135-5.0053 4.4525-4.3586 6.014-10.3696 6.014-16.38804 0-.2358.2823-.36476.4506-.49003 1.1594-.85845 2.0945-1.88455 2.9584-3.03039.1945-.25791.1964-.48634.1964-.58029v-.03132c0-.09579-.0019-.06816-.1515 0z" fill="#fff"/></g></svg>