<svg width="43" height="39" viewBox="0 0 43 39" fill="none" xmlns="http://www.w3.org/2000/svg">
<path d="M41.7542 37.7741C36.674 31.0551 31.5975 24.3361 26.4877 17.6392C26.0431 17.0577 25.9467 16.7466 26.4877 16.1428C29.5818 12.6907 32.6277 9.19042 35.681 5.70125C37.0483 4.13817 38.397 2.56026 39.8977 0.82309C38.1117 0.82309 36.5703 0.893465 35.0362 0.800865C33.8949 0.730489 33.1612 1.13052 32.4276 2.00096C29.6559 5.279 26.8027 8.48666 23.9643 11.7128C22.8971 12.924 22.9009 12.8981 21.8781 11.535C19.4177 8.2533 16.9277 4.99008 14.471 1.70094C14.0041 1.07496 13.5075 0.782345 12.6664 0.800865C9.86508 0.871241 7.06376 0.826793 4.26244 0.826793H0.527344C1.36107 1.91206 2.03176 2.7825 2.69874 3.65665C7.07487 9.40154 11.4399 15.1538 15.8494 20.8728C16.2496 21.3951 16.2866 21.6099 15.842 22.1062C12.6182 25.7288 9.43154 29.3883 6.23744 33.0404C4.67374 34.8295 3.11746 36.6222 1.40924 38.5853C3.40278 38.5853 5.1221 38.552 6.83402 38.6001C7.54917 38.6224 8.01606 38.3816 8.47924 37.8445C11.8549 33.9516 15.275 30.0995 18.6396 26.1955C19.2325 25.5065 19.4659 25.5213 20.018 26.2547C22.9824 30.1847 26.0208 34.059 29 37.9742C29.3224 38.3964 29.604 38.5964 30.1413 38.5927C34.1061 38.5705 38.0673 38.5816 42.058 38.5816C42.1544 38.126 41.8987 37.9668 41.7542 37.7741ZM31.8236 34.7517C31.3382 34.7665 31.0306 34.5665 30.7453 34.1924C23.301 24.4398 15.8494 14.6946 8.40143 4.94564C8.33102 4.85304 8.28285 4.74562 8.13093 4.48634C9.25739 4.48634 10.269 4.50486 11.2806 4.47893C11.7808 4.46412 12.0439 4.71599 12.3218 5.08639C19.0472 13.9945 25.7837 22.8915 32.5165 31.7922C33.2057 32.7034 33.8949 33.6146 34.7509 34.7443C33.6096 34.7443 32.7166 34.7221 31.8199 34.7517H31.8236Z" fill="white"/>
</svg>
