<svg width="31" height="21" viewBox="0 0 31 21" fill="none" xmlns="http://www.w3.org/2000/svg">
<g clip-path="url(#clip0_320_10)">
<path d="M31 6.58301C31 2.94794 27.9538 0 24.1975 0H6.8025C3.04623 0 0 2.94794 0 6.58301V14.417C0 18.0521 3.04623 21 6.8025 21H24.1975C27.9538 21 31 18.0521 31 14.417V6.58301ZM20.7691 11.0865L12.968 14.8213C12.6627 14.9808 11.6229 14.7669 11.6229 14.4297V6.76431C11.6229 6.42347 12.6702 6.20953 12.9755 6.37814L20.4431 10.3087C20.756 10.481 21.0857 10.9197 20.7672 11.0865H20.7691Z" fill="white"/>
</g>
<defs>
<clipPath id="clip0_320_10">
<rect width="31" height="21" fill="white"/>
</clipPath>
</defs>
</svg>
