<svg fill="none" height="21" viewBox="0 0 31 21" width="31" xmlns="http://www.w3.org/2000/svg" xmlns:xlink="http://www.w3.org/1999/xlink"><clipPath id="a"><path d="m0 0h31v21h-31z"/></clipPath><g clip-path="url(#a)"><path d="m31 6.58301c0-3.63507-3.0462-6.58301-6.8025-6.58301h-17.395c-3.75627 0-6.8025 2.94794-6.8025 6.58301v7.83399c0 3.6351 3.04623 6.583 6.8025 6.583h17.395c3.7563 0 6.8025-2.9479 6.8025-6.583zm-10.2309 4.50349-7.8011 3.7348c-.3053.1595-1.3451-.0544-1.3451-.3916v-7.66539c0-.34084 1.0473-.55478 1.3526-.38617l7.4676 3.93056c.3129.1723.6426.611.3241.7778z" fill="#fff"/></g></svg>