<svg fill="none" height="82" viewBox="0 0 308 82" width="308" xmlns="http://www.w3.org/2000/svg"><g fill="#000"><path d="m9.14844 43.46c.0729-.8929.12757-1.7676.2187-2.6605.65606-7.1066 2.69726-13.7395 7.16236-19.4249 3.9366-5.0111 9.076-8.2364 15.1631-9.9857 2.9889-.8565 6.0506-1.2756 9.1489-1.42137 6.8707-.328 13.3041 1.22087 19.4276 4.31867 1.0753.5467 1.5856 1.0933 1.458 2.4418-.3645 4.1729-.5103 8.3822-.729 12.5551-.0364.7471-.1275 1.5124-.1093 2.2595 0 .6014-.2552.7289-.7837.6743-1.221-.1458-2.4603-.2734-3.6814-.4009-.4921-.0547-1.0024-.164-1.4944-.164-.565 0-.7655-.2369-.8566-.7654-.3645-2.132-.7654-4.264-1.1482-6.396-.729-4.0453-2.8248-6.2502-6.889-6.9608-4.6655-.8018-8.9848.0728-12.7209 3.0795-2.4968 2.0227-4.1917 4.6285-5.431 7.5622-1.3669 3.2618-2.0776 6.6694-2.4604 10.168-.3098 3.0067-.328 6.0316-.1822 9.0383.2005 4.3186.7654 8.5826 2.351 12.6644 1.2393 3.1889 2.9889 5.9769 5.8137 8.0178 2.2234 1.6035 4.7385 2.4053 7.454 2.6604 2.2599.2005 4.4833.1094 6.6885-.3644 2.3875-.5102 4.0641-1.9134 4.9389-4.2276.8566-2.2595 1.3669-4.6284 2.0777-6.9426.3098-1.0023.2916-1.0023 1.3122-1.0023h5.3398c.5103 0 .6561.1458.6197.6742-.2552 4.6285-.5103 9.2752-.729 13.9036-.0365.6196-.2552 1.0022-.8384 1.2938-3.6267 1.8951-7.5086 2.9702-11.5363 3.5715-1.6767.2552-3.3716.4556-5.0847.4738-.1094 0-.2187.0547-.3463.0729h-4.3011c-.1822-.0911-.3827-.0729-.5649-.0911-3.244-.1458-6.4152-.6742-9.5134-1.6582-5.0301-1.5854-9.3493-4.264-12.7027-8.3822-4.3375-5.3027-6.2147-11.5347-6.85256-18.2405-.0729-.8382-.1458-1.6947-.20048-2.5329 0-1.2755 0-2.5511 0-3.8266z"/><path d="m102.659 78.173c-.71-.1093-1.421-.1822-2.114-.3097-5.1208-.8747-8.5289-4.2823-9.3854-9.4209-.3827-2.3325-.4556-4.6649.0364-6.9792.8384-3.9906 3.2258-6.7239 6.8708-8.4368 2.5512-1.2027 5.2672-1.7858 8.0372-2.1685 2.898-.3826 5.814-.5649 8.73-.6013.237 0 .455-.0547.692-.0547 1.148-.0182 1.094.0729 1.075-1.2027 0-1.9315 0-3.8631-.036-5.8128-.036-1.1663-.31-2.3143-.875-3.3347-1.075-1.8951-2.806-2.7151-4.884-2.8791-3.609-.2916-7.035.492-10.388 1.7129-1.3671.492-2.7157 1.0386-4.0279 1.6764-.4192.2005-.6379.164-.8566-.2733-.7836-1.6582-1.6038-3.3165-2.4056-4.9565-.1641-.328-.1094-.5102.2004-.7106 4.7749-3.1343 9.9507-5.2298 15.6547-5.9587 3.882-.492 7.764-.4009 11.591.4191 5.231 1.1298 8.238 4.4462 9.423 9.5667.546 2.3506.765 4.7378.783 7.1431.037 7.4164 0 14.8329.019 22.2311 0 .7836 0 1.5853.127 2.3689.182 1.0751.747 1.7675 1.804 2.0409.748.2004 1.513.328 2.279.3644.492.0365.71.2187.692.7654-.036.9657-.036 1.9315 0 2.8973 0 .492-.182.6742-.62.8018-1.95.5102-3.918.9475-5.923 1.0569-.109 0-.218.0546-.328.0728h-2.788c-.747-.1093-1.494-.1822-2.223-.3279-2.406-.4738-4.411-1.5307-5.632-3.772-.364-.6561-.528-1.4032-.802-2.0956-.055.0182-.091.0364-.127.0547-.073.0911-.146.1822-.219.2733-2.278 2.9338-5.231 4.756-8.876 5.4849-.893.1822-1.804.2369-2.697.3826h-2.788zm13.942-17.548c0-1.3666 0-2.7515 0-4.1182 0-.4373-.145-.6196-.583-.656-.966-.0911-1.932.0365-2.897.0729-1.44.0547-2.844.2916-4.21.7836-2.133.7835-3.572 2.1866-3.973 4.5008-.164.9476-.128 1.8951-.037 2.8245.201 2.3506 1.604 4.1547 3.736 4.7378 1.659.4555 3.354.3826 4.957-.2369 1.914-.7471 2.971-2.1685 3.007-4.264 0-1.2209 0-2.4418 0-3.6627z"/><path d="m280.244 6.52342c1.257.164 2.533.27333 3.772.54666 5.231 1.148 9.55 3.80842 12.995 7.90842.291.3462.236.5831-.019.8929-2.715 3.444-6.05 6.1227-9.841 8.2911-3.718 2.1138-7.691 3.6262-11.81 4.7743-.455.1275-.638-.0001-.838-.4192-1.185-2.3506-3.135-3.6444-5.741-3.7173-3.7-.0911-6.415 2.624-6.707 5.9951-.31 3.5169 2.114 6.5418 5.668 7.1067 3.317.5284 6.561-1.7493 7.327-5.1205.018-.0911.054-.2004.054-.2915-.091-1.0387.492-1.4396 1.422-1.7129 2.041-.6196 4.028-1.3485 6.05-2.0227.183-.0546.42-.2551.584-.0729.127.1458 0 .3645-.055.5467-1.658 6.2502-6.47 10.496-12.885 11.2613-3.7.4556-6.925-.7471-9.732-3.0795-3.39-2.8245-4.556-6.56-4.101-10.8605.547-5.1204 2.698-9.4937 6.306-13.1382 3.736-3.75376 8.238-6.03154 13.505-6.74221.528-.07288 1.075-.12755 1.604-.20044h2.442z"/><path d="m302.203 31.1416c-.182 1.4942-.401 2.9884-.765 4.4462-2.296 8.8378-9.969 15.6347-19.027 16.8556-2.059.2733-4.119.328-6.178 0-1.093-.1823-1.349-.7289-.784-1.6765.748-1.2938 1.841-2.3324 2.862-3.4258 2.806-2.9884 5.558-6.0315 7.8-9.4937 1.95-3.0249 3.481-6.2503 4.228-9.8036.091-.4373.273-.656.747-.6924 1.713-.1276 3.445-.1094 5.158-.0183 2.005.1094 4.009.3645 5.978.8018v3.0249z"/><path d="m222.435 35.4058c.947-.9293 1.804-1.7311 2.715-2.4782 3.171-2.5329 6.707-4.2094 10.771-4.6649 2.934-.328 5.814-.1094 8.475 1.2937 3.134 1.64 4.72 4.4098 5.54 7.7263.456 1.8222.674 3.6991.674 5.576.018 8.0542 0 16.1084 0 24.1444 0 .9293.037 1.8587.219 2.7698.31 1.6947.966 2.296 2.679 2.5693.638.1094 1.258.2369 1.877.328.383.0547.547.2187.547.6014v3.3164c0 .4009-.201.5649-.565.5467-.128 0-.273 0-.401 0-7.199 0-14.398 0-21.596 0-.669 0-1.003-.3341-1.003-1.0023 0-.9293 0-1.8586 0-2.788 0-.4191.146-.6195.602-.6742.528-.0546 1.075-.1275 1.585-.2915.82-.2551 1.349-.8018 1.586-1.6218.164-.5831.273-1.1662.273-1.7676 0-8.3457 0-16.6733 0-25.0191 0-.8564-.127-1.6946-.383-2.5146-.565-1.8405-1.84-2.8974-3.699-3.1525-2.989-.4191-5.905.0182-8.694 1.148-.473.1822-.674.4738-.674 1.0022.018 9.3298 0 18.6596.037 27.9894 0 .5649.073 1.1115.145 1.6764.146 1.1845.821 1.9316 1.969 2.2231.565.1458 1.13.2551 1.695.3645.328.0546.473.2004.473.5284v3.4258c0 .3462-.182.492-.51.4738-.146 0-.31 0-.455 0-7.199 0-14.398 0-21.597 0-.632 0-.948-.322-.948-.9658 0-.8929.037-1.7858 0-2.6787-.036-.6013.201-.8382.766-.9111.619-.0911 1.221-.2369 1.822-.3644 1.294-.2551 2.041-1.0387 2.242-2.3325.091-.5466.164-1.1115.2-1.6764.146-3.7356.092-7.4711.092-11.2067 0-5.4484 0-10.9151 0-16.3635 0-1.0205-.055-2.0409-.219-3.0614-.237-1.4395-1.039-2.4235-2.442-2.8973-.802-.2733-1.64-.4373-2.479-.6013-.401-.0729-.565-.2551-.528-.656.091-1.1845.164-2.3507.255-3.5352.018-.2915.164-.4191.455-.4008h.401 15.911c1.13 0 1.512.3462 1.64 1.4577.182 1.4396.364 2.8792.583 4.4645z"/><path d="m84.2344 37.4646v24.0351c0 2.296.0547 4.6103.1093 6.9063 0 .492.1094 1.0022.1823 1.4942.2005 1.3302.9841 2.0956 2.2963 2.3507.7472.1457 1.4762.3097 2.2235.4191.3827.0546.5285.2186.5285.6013v3.3164c0 .4009-.1823.5649-.565.5467-.1458 0-.3098 0-.4556 0-7.5998 0-15.2178 0-22.8175 0-.7169 0-1.0753-.3644-1.0753-1.0933 0-.8747 0-1.7494 0-2.6058 0-.4556.1094-.7107.6196-.7653.729-.0729 1.458-.2187 2.1688-.3827 1.7678-.3827 2.3875-1.1298 2.5515-2.9338.1276-1.3484.1276-2.6969.1276-4.0635 0-15.2703 0-30.5405 0-45.8107 0-.7471 0-1.5124-.1094-2.2596-.2187-1.4942-.9477-2.5511-2.4239-3.0248-.8748-.2916-1.7678-.5467-2.679-.7654-.4921-.1275-.6379-.3462-.5468-.8564.164-.8929.3098-1.7858.3645-2.69691.0365-.60133.3281-.71066.8566-.71066h15.9649 1.9137c.7654 0 .7654 0 .7654.78355v20.20842z"/><path d="m157.226 36.4805c.747-1.1844 1.476-2.3324 2.351-3.3893 1.64-1.9862 3.535-3.6445 6.032-4.4462 2.661-.8565 5.267-.4556 7.891.2186.31.0729.365.2916.347.5831-.219 3.0614-.438 6.1227-.657 9.2023-.127 1.8404-.255 3.6626-.364 5.5031-.055 1.0022-.601 1.3302-1.549.8564-.346-.164-.674-.3827-1.002-.5831-2.534-1.4031-5.103-2.6969-7.965-3.28-1.385-.2733-2.77-.3098-4.137.0729-.419.1275-.583.328-.583.7835 0 8.3823 0 16.7645.018 25.1285 0 .8382.11 1.6947.237 2.5329.237 1.4942.911 2.1866 2.388 2.46 1.202.2004 2.405.3462 3.626.4738.511.0546.766.2186.729.7835-.036 1.0387-.036 2.0956 0 3.1342 0 .492-.182.6743-.656.6378-.31-.0182-.619 0-.929 0-7.91 0-15.838 0-23.747 0-.644 0-.972-.3158-.984-.9475 0-.9476 0-1.8952 0-2.8427 0-.4738.164-.7107.638-.7653.583-.0729 1.148-.2005 1.713-.328 1.95-.4192 2.551-1.0934 2.715-3.0432.073-.8928.128-1.7675.128-2.6604 0-8.8013 0-17.6027 0-26.404 0-.82-.073-1.6218-.201-2.4236-.291-1.8404-1.403-2.8608-3.171-3.2617-.565-.1276-1.13-.2551-1.713-.3463-.437-.0728-.638-.2551-.601-.7288.091-1.1298.164-2.2778.237-3.4076.018-.4373.291-.4738.637-.4738h5.231 10.516c1.13 0 1.512.328 1.713 1.4214.31 1.7311.601 3.4622.893 5.1933.018.1093 0 .2369.2.3644z"/><path d="m195.715 48.9081v16.6734c0 1.3302.037 2.6604.237 3.9906.237 1.5854.911 2.3143 2.479 2.6787.729.164 1.476.3098 2.223.4191.365.0547.547.2004.529.6013v3.3165c0 .4009-.164.5649-.547.5467-.128 0-.273 0-.401 0-7.891 0-15.801 0-23.692 0-.656 0-.984-.328-.984-.984 0-.9294 0-1.8587 0-2.788 0-.4192.127-.6378.565-.6925.71-.0911 1.421-.2187 2.114-.3462 2.187-.4374 2.934-1.2938 3.153-3.5351.109-1.1845.127-2.3507.127-3.5351 0-8.2183 0-16.4547 0-24.6729 0-1.0569 0-2.132-.255-3.1707-.292-1.2391-1.002-2.1138-2.169-2.6058-.747-.3097-1.549-.5102-2.333-.6924-.437-.0911-.619-.2916-.583-.7471.091-1.1116.182-2.2414.237-3.3529.018-.4556.292-.5102.656-.5102h7.035 10.097c.291 0 .565 0 .856.1275.492.2187.711.5467.693 1.1116-.018 6.0498 0 12.1178 0 18.1675z"/><path d="m200.783 13.1744c0 .4009-.146.7289-.547.984-5.631 3.4804-11.245 6.9791-16.858 10.4778-.328.2004-.547.1822-.82-.0729-1.203-1.0934-2.424-2.1685-3.645-3.2436-.328-.2733-.255-.492 0-.7653 2.989-3.5351 5.959-7.052 8.948-10.58712.839-.984 1.677-1.968 2.497-2.97023.273-.328.474-.34622.82-.12755 3.062 1.89511 6.124 3.772 9.186 5.6671.236.1458.455.3098.401.656z"/></g></svg>