<svg fill="none" height="126" viewBox="0 0 473 126" width="473" xmlns="http://www.w3.org/2000/svg"><g fill="#000"><path d="m15.0859 62.8322c.5878-3.556 1.1755-7.1121 2.6869-10.416 6.1574-13.552 16.597-21.224 31.5707-22.176 17.9963-1.148 34.3974 11.9 37.2242 30.184 1.7073 11.032-1.2035 20.888-8.5923 29.288-6.2694 7.14-14.246 11.0878-23.706 12.0118-.2799 0-.5318.14-.7837.196h-4.674c-.6997-.336-1.4274-.168-2.1551-.28-14.7498-2.3799-24.7136-10.5278-29.8074-24.5558-.9516-2.576-1.2875-5.292-1.7633-7.98v-6.3zm35.8809-30.352c-18.6122 0-33.7258 15.064-33.6138 33.6.1119 18.2 14.4419 33.46 33.6138 33.516 19.5357.056 33.8097-15.7641 33.7257-33.628-.056-18.564-15.0576-33.488-33.7257-33.46z"/><path d="m398.747 69.6082c.168 3.36-.28 7.532.224 11.648.364 2.912 1.763 4.592 4.198 5.04 2.603.504 5.458-.784 6.689-3.024.14-.28.252-.588.28-.896.196-3.668 2.351-5.992 5.346-7.756 3.33-1.932 6.997-3.108 10.579-4.508.588-.224 1.204-.448 1.792-.672 2.099-.812 2.099-.812 2.099-3.108 0-2.828-.504-5.488-2.855-7.392-3.023-2.436-7.697-2.128-10.72.588-1.343 1.204-2.379 2.632-3.106 4.284-.336.756-.812.868-1.54.56-.755-.308-.727-.812-.475-1.428 3.442-8.82 12.426-12.572 20.515-9.604 4.618 1.708 7.473 6.048 7.529 11.368.056 5.964 0 11.928 0 17.892 0 .728 0 1.456.224 2.156.699 2.212 2.686 2.8 4.506 1.288.336-.28.587-.756 1.119-.7.7.084 1.036 1.036.532 1.736-2.043 2.8-4.758 4.172-8.256 3.92-3.163-.224-5.43-1.736-6.774-4.564-.419-.896-.643-.98-1.343-.196-2.911 3.304-6.493 5.152-10.999 4.76-2.939-.252-5.43-1.428-6.913-4.032-.784-1.372-1.12-.952-1.904-.112-3.05 3.276-6.829 4.62-11.251 4.116-5.318-.588-8.844-4.9-8.9-10.864-.028-7.28-.028-14.588-.056-21.868 0-1.904 0-1.876-1.875-1.96-.728-.028-1.82.504-2.155-.588-.308-1.036.839-1.288 1.455-1.708 3.918-2.744 7.361-5.964 10.412-9.632.307-.364.531-1.036 1.119-.84.672.224.42.924.42 1.456 0 2.268.056 4.564 0 6.832 0 1.092.392 1.456 1.455 1.428 2.239-.056 4.478 0 6.717 0 1.204 0 2.827 1.68 2.771 2.828-.056.756-.671.476-1.063.504-2.687 0-5.402.084-8.089 0-1.371-.056-1.847.336-1.791 1.764.084 3.5.028 7.028.028 11.284zm31.179 8.064c0-1.736 0-3.444 0-5.18 0-.476.056-1.204-.756-.896-2.883 1.092-5.989 1.736-8.368 3.864-2.044 1.82-2.659 5.348-1.428 7.924 1.036 2.212 3.135 3.248 5.934 2.884 1.455-.168 2.631-.98 3.75-1.848.644-.504.924-1.064.896-1.876-.028-1.624 0-3.276 0-4.9z"/><path d="m305.464 58.9961c1.483-1.456 2.827-2.94 4.478-4.088 6.074-4.228 14.302-2.324 17.157 4.032.784 1.708 1.175 3.528 1.175 5.432v18.592c0 .56 0 1.092.028 1.652.252 2.884.644 3.304 3.527 3.612.7.084 1.091.308 1.091 1.092 0 .728-.447.924-1.063.924-5.43 0-10.859 0-16.317 0-.7 0-1.12-.224-1.12-1.008 0-.7.392-.924 1.036-.98 3.023-.364 3.386-.756 3.414-3.752 0-6.188 0-12.376 0-18.592 0-1.344-.167-2.632-.615-3.892-1.008-2.772-2.995-4.144-6.074-4.228-2.463-.084-5.625 1.932-6.549 4.088-.196.476-.168.98-.168 1.484v20.776c0 2.66.392 4.2 3.639 4.144.671 0 1.007.336 1.007 1.008 0 .7-.364.98-1.035.98-5.57 0-11.14 0-16.709 0-.588 0-.924-.252-.952-.896 0-.644.224-1.064.924-1.092.28 0 .559 0 .811-.028 1.848-.168 2.519-.756 2.827-2.548.112-.616.084-1.26.084-1.904 0-7.868 0-15.764 0-23.632 0-.42 0-.812 0-1.232-.168-2.268-.756-2.912-3.023-3.276-.447-.084-.951-.084-1.315-.28-.392-.224-.308-.728-.252-1.12.084-.588.588-.644 1.036-.644h11.783c.895 0 1.203.476 1.175 1.288v4.228z"/><path d="m124.687 89.9643c-5.402 0-10.775 0-16.177 0-.56 0-1.232.224-1.567-.504-.392-.868.055-1.708 1.007-1.736 3.611-.112 4.394-.756 4.394-5.096 0-10.528 0-21.056 0-31.584 0-.28 0-.56 0-.812-.056-3.276-.699-3.976-3.974-4.284-.672-.056-1.427.084-1.483-.952-.056-.812.167-1.344 1.091-1.316h.672 30.983c1.791 0 1.819.056 1.847 1.848 0 2.912.028 5.824.056 8.7359 0 .616.14 1.3721-.84 1.4281-.839.056-.895-.6161-1.007-1.2041-.14-.616-.252-1.2599-.42-1.8759-1.064-4.172-2.687-5.656-6.969-6.076-2.911-.308-5.85.028-8.76-.28-.7-.084-.98.336-.98 1.008v16.408c0 .728.336 1.0919 1.091 1.0919 2.379 0 4.758.0001 7.137-.1119 1.624-.084 2.715-.98 3.051-2.66.14-.672.28-1.344.392-2.016.112-.616.392-1.008 1.092-.924.671.084.727.588.727 1.12v10.668 1.372c0 .532-.112 1.008-.811 1.036-.644.028-.896-.336-1.008-.896-.028-.224-.112-.448-.168-.672-.644-3.304-1.595-4.088-4.982-4.144-1.735-.028-3.47 0-5.206 0-.895 0-1.343.28-1.343 1.26.028 5.32 0 10.668.056 15.988 0 1.372.672 2.2679 2.071 2.436 3.611.392 7.193.448 10.719-.588 2.016-.588 3.303-2.044 4.283-3.808.923-1.652 1.483-3.4161 1.987-5.2361.196-.756.56-1.2879 1.427-1.0639.84.224.588.924.532 1.484-.336 3.388-.728 6.776-1.008 10.192-.112 1.344-.559 1.8759-2.015 1.8759-5.289-.084-10.607-.028-15.897-.028z"/><path d="m219.959 53.1724v3.416c0 .644-.056 1.204-.896 1.26-.755.056-1.343-.14-1.539-.98-.224-.924-.448-1.848-.7-2.772-1.231-4.48-4.03-7.42-8.62-8.4-5.01-1.064-8.956.924-12.035 4.76s-4.45 8.344-4.898 13.132c-.644 6.916.728 13.356 5.122 18.9 2.547 3.22 5.682 5.516 10.076 5.46 4.338-.056 8.144-2.632 9.712-6.748.531-1.4.895-2.856 1.259-4.34.224-.896.616-1.344 1.595-1.26 1.036.112.924.84.924 1.512 0 2.1-.028 4.2 0 6.3 0 .924-.392 1.512-1.035 2.072-8.313 7.252-21.607 6.664-30.06.14-13.742-10.556-11.139-34.132 6.382-41.16 8.396-3.36 16.177-2.24 23.37 3.192.979.728 1.483 1.512 1.343 2.744-.084.896 0 1.82 0 2.744z"/><path d="m273.052 91.0563c-9.236 0-17.212-7-18.36-15.96-1.036-8.12 1.455-14.868 8.396-19.432 9.572-6.3 22.167-2.156 26.505 8.484 4.226 10.388-.531 21.924-10.663 25.816-1.987.756-4.031 1.204-5.878 1.064zm-8.984-18.648c-.14 1.288.14 3.108.336 4.9.336 2.968 1.091 5.824 2.855 8.316 2.715 3.808 8.032 3.92 10.887.224.896-1.176 1.567-2.464 1.987-3.864 1.624-5.264 1.708-10.668.952-16.072-.392-2.912-1.12-5.712-2.995-8.12-2.799-3.584-7.837-3.584-10.607 0-.896 1.12-1.512 2.38-1.96 3.724-1.147 3.36-1.427 6.832-1.455 10.892z"/><path d="m357.017 82.8521c0-1.148 0-2.2679 0-3.416 0-.6999-.112-1.54 1.007-1.596 1.064-.056 1.092.728 1.176 1.456.28 2.52 1.175 4.788 3.135 6.496 3.05 2.66 6.549 3.248 10.355 2.0441 1.735-.5601 2.827-1.8481 3.107-3.6681.336-2.072-.084-3.92-1.847-5.236-1.232-.9239-2.631-1.652-4.003-2.352-2.519-1.316-5.15-2.38-7.501-3.976-5.429-3.668-6.381-10.64-1.931-15.26 3.191-3.304 7.277-4.396 11.783-4.06 2.603.196 5.094.952 7.529 1.932.924.364 1.372.868 1.344 1.932-.056 2.1 0 4.2 0 6.272 0 .728-.056 1.344-1.064 1.372s-1.427-.364-1.455-1.344c-.028-1.484-.504-2.856-1.232-4.144-2.211-3.892-8.2-4.872-11.111-1.848-2.071 2.156-1.791 5.292.7 6.972 2.574 1.736 5.485 2.884 8.2 4.396 1.875 1.064 3.75 2.128 5.15 3.78 4.366 5.152 2.967 12.796-2.939 16.24-3.918 2.296-8.116 2.4921-12.483 1.7641-2.295-.3921-4.506-1.1481-6.577-2.2401-.951-.504-1.427-1.204-1.371-2.296s0-2.184 0-3.276z"/><path d="m238.599 60.5362c1.259-1.624 2.491-3.248 3.778-4.844 3.303-4.032 7.837-4.004 11.196.028.392.476.559.896.28 1.484-.952 2.016-1.876 4.06-2.799 6.076-.392.868-.756.896-1.316.112-1.287-1.82-2.826-3.332-5.094-3.892-.699-.168-1.343-.14-2.015.084-2.435.84-4.366 3.444-4.366 6.02v18.452c0 3.136.896 4.032 4.086 4.144.504 0 1.008 0 1.512.056.588.056.699.476.699.98s-.167.896-.755.952c-.196 0-.364.028-.56.028-5.877 0-11.783 0-17.66 0-.476 0-1.092.112-1.26-.532-.224-.84-.028-1.372 1.008-1.484 3.162-.308 3.526-.728 3.554-3.92 0-8.288 0-16.576 0-24.864 0-2.968-.448-3.472-3.358-3.864-.672-.084-1.288-.14-1.26-1.036 0-1.008.728-1.008 1.427-1.008 3.695 0 7.389.028 11.112 0 1.147 0 1.511.476 1.483 1.54-.056 1.82 0 3.612 0 5.432.112 0 .224.056.308.084z"/><path d="m160.12 65.38v18.984c0 3.136.308 3.416 3.443 3.836.644.084.98.336.98 1.036s-.336.98-1.008.98c-5.486 0-10.971 0-16.429 0-.644 0-1.036-.252-1.036-.952 0-.672.308-1.008.98-1.036.504 0 1.008-.028 1.483-.14 1.092-.224 1.792-.896 1.904-2.044.112-.98.251-1.988.251-2.996 0-10.752 0-21.504 0-32.256 0-.196 0-.364 0-.56-.084-3.528-.671-4.172-4.17-4.536-.727-.084-1.567 0-1.455-1.12.112-1.092.951-.924 1.651-.924 3.89 0 7.753.028 11.643-.028 1.372 0 1.707.532 1.707 1.792-.027 6.636 0 13.3 0 19.964z"/><path d="m349.096 69.9161v13.6641c0 .532 0 1.092.056 1.624.28 2.268.867 2.8 3.274 2.9959.476.028 1.036-.0559 1.26.5601.308.84-.14 1.4279-1.176 1.4279-3.414 0-6.857 0-10.271 0-1.959 0-3.919 0-5.878 0-.7 0-1.287-.1119-1.287-1.0079s.587-.9801 1.287-1.0081c2.743-.1959 3.331-.812 3.331-3.556 0-8.484 0-16.94 0-25.424 0-2.772-.476-3.304-3.275-3.668-.7-.084-1.399-.0839-1.371-1.0919.028-1.036.783-.952 1.483-.952h11.111c1.148 0 1.484.4479 1.484 1.5399-.028 4.956 0 9.94 0 14.896z"/><path d="m338.824 43.1762c0-2.856 2.407-5.208 5.374-5.236s5.43 2.38 5.43 5.32c0 2.912-2.547 5.376-5.458 5.32-2.995-.056-5.346-2.464-5.346-5.432z"/><path d="m67.0031 79.6323c0 .308-.0559.644 0 .952.5318 2.744-.8676 4.312-3.0227 5.768-7.9486 5.404-20.0395 4.872-27.8762-1.288-7.4728-5.88-10.1597-13.72-8.5924-22.82 1.5394-9.044 6.7732-15.484 15.5615-18.732 8.0046-2.968 15.4214-1.764 22.2785 3.22 1.1196.812 1.7633 1.68 1.6513 3.164-.1399 1.96-.0279 3.92-.0279 5.88 0 .7-.084 1.26-.9796 1.316-.8117.056-1.2595-.224-1.4554-1.064-.3079-1.316-.6717-2.66-1.1195-3.948-2.575-7.196-11.5871-9.744-17.6046-4.956-3.9743 3.136-5.9335 7.448-6.9411 12.236-1.7072 8.036-.6157 15.596 4.4502 22.288 2.239 2.94 5.0658 5.096 8.9282 5.544 4.5061.532 8.9842-1.988 10.7474-6.132.6718-1.568 1.1196-3.164 1.4834-4.816.1679-.868.5318-1.428 1.5394-1.344 1.1195.084.9236.924.9516 1.624v3.136z"/><path d="m47.1889 66.164c0-1.456-.0559-2.912 0-4.368.112-2.408 1.7073-3.304 3.8344-2.128 2.5469 1.428 5.0659 2.884 7.5848 4.368 2.0152 1.204 2.0711 3.052.056 4.256-2.5469 1.512-5.1219 2.996-7.6968 4.424-2.1271 1.176-3.6944.252-3.7784-2.184-.0559-1.456 0-2.912 0-4.368zm2.463-.196v3.696c0 .728.2239 1.036.9796.616 2.0431-1.176 4.1142-2.352 6.1854-3.528.6437-.364.6437-.7 0-1.064-2.0991-1.204-4.1983-2.408-6.2694-3.64-.6437-.364-.9236-.224-.8956.504z"/></g></svg>