<svg width="473" height="126" viewBox="0 0 473 126" fill="none" xmlns="http://www.w3.org/2000/svg">
<path d="M15.0859 62.8322C15.6737 59.2762 16.2614 55.7201 17.7728 52.4162C23.9302 38.8642 34.3698 31.1922 49.3435 30.2402C67.3398 29.0922 83.7409 42.1402 86.5677 60.4242C88.275 71.4562 85.3642 81.3122 77.9754 89.7122C71.706 96.8522 63.7294 100.8 54.2694 101.724C53.9895 101.724 53.7376 101.864 53.4857 101.92H48.8117C48.112 101.584 47.3843 101.752 46.6566 101.64C31.9068 99.2601 21.943 91.1122 16.8492 77.0842C15.8976 74.5082 15.5617 71.7922 15.0859 69.1042V62.8042V62.8322ZM50.9668 32.4802C32.3546 32.4802 17.241 47.5442 17.353 66.0802C17.4649 84.2802 31.7949 99.5402 50.9668 99.5962C70.5025 99.6522 84.7765 83.8321 84.6925 65.9682C84.6365 47.4042 69.6349 32.4802 50.9668 32.5082V32.4802Z" fill="black"/>
<path d="M398.747 69.6082C398.915 72.9682 398.467 77.1402 398.971 81.2562C399.335 84.1682 400.734 85.8482 403.169 86.2962C405.772 86.8002 408.627 85.5122 409.858 83.2722C409.998 82.9922 410.11 82.6842 410.138 82.3762C410.334 78.7082 412.489 76.3842 415.484 74.6202C418.814 72.6882 422.481 71.5122 426.063 70.1122C426.651 69.8882 427.267 69.6642 427.855 69.4402C429.954 68.6282 429.954 68.6282 429.954 66.3322C429.954 63.5042 429.45 60.8442 427.099 58.9402C424.076 56.5042 419.402 56.8122 416.379 59.5282C415.036 60.7322 414 62.1602 413.273 63.8122C412.937 64.5682 412.461 64.6802 411.733 64.3722C410.978 64.0642 411.006 63.5602 411.258 62.9442C414.7 54.1242 423.684 50.3722 431.773 53.3402C436.391 55.0482 439.246 59.3882 439.302 64.7082C439.358 70.6722 439.302 76.6362 439.302 82.6002C439.302 83.3282 439.302 84.0562 439.526 84.7562C440.225 86.9682 442.212 87.5562 444.032 86.0442C444.368 85.7642 444.619 85.2882 445.151 85.3442C445.851 85.4282 446.187 86.3802 445.683 87.0802C443.64 89.8802 440.925 91.2522 437.427 91.0002C434.264 90.7762 431.997 89.2642 430.653 86.4362C430.234 85.5402 430.01 85.4562 429.31 86.2402C426.399 89.5442 422.817 91.3922 418.311 91.0002C415.372 90.7482 412.881 89.5722 411.398 86.9682C410.614 85.5962 410.278 86.0162 409.494 86.8562C406.444 90.1322 402.665 91.4762 398.243 90.9722C392.925 90.3842 389.399 86.0722 389.343 80.1082C389.315 72.8282 389.315 65.5202 389.287 58.2402C389.287 56.3362 389.287 56.3642 387.412 56.2802C386.684 56.2522 385.592 56.7842 385.257 55.6922C384.949 54.6562 386.096 54.4042 386.712 53.9842C390.63 51.2402 394.073 48.0202 397.124 44.3522C397.431 43.9882 397.655 43.3162 398.243 43.5122C398.915 43.7362 398.663 44.4362 398.663 44.9682C398.663 47.2362 398.719 49.5322 398.663 51.8002C398.663 52.8922 399.055 53.2562 400.118 53.2282C402.357 53.1722 404.596 53.2282 406.835 53.2282C408.039 53.2282 409.662 54.9082 409.606 56.0562C409.55 56.8122 408.935 56.5322 408.543 56.5602C405.856 56.5602 403.141 56.6442 400.454 56.5602C399.083 56.5042 398.607 56.8962 398.663 58.3242C398.747 61.8242 398.691 65.3522 398.691 69.6082H398.747ZM429.926 77.6722C429.926 75.9362 429.926 74.2282 429.926 72.4922C429.926 72.0162 429.982 71.2882 429.17 71.5962C426.287 72.6882 423.181 73.3322 420.802 75.4602C418.758 77.2802 418.143 80.8082 419.374 83.3842C420.41 85.5962 422.509 86.6322 425.308 86.2682C426.763 86.1002 427.939 85.2882 429.058 84.4202C429.702 83.9162 429.982 83.3562 429.954 82.5442C429.926 80.9202 429.954 79.2682 429.954 77.6442L429.926 77.6722Z" fill="black"/>
<path d="M305.464 58.9961C306.947 57.5401 308.291 56.0561 309.942 54.9081C316.016 50.6801 324.244 52.5841 327.099 58.9401C327.883 60.6481 328.274 62.4681 328.274 64.3721C328.274 70.5601 328.274 76.7481 328.274 82.9641C328.274 83.5241 328.274 84.0561 328.302 84.6161C328.554 87.5001 328.946 87.9201 331.829 88.2281C332.529 88.3121 332.92 88.5361 332.92 89.3201C332.92 90.0481 332.473 90.2441 331.857 90.2441C326.427 90.2441 320.998 90.2441 315.54 90.2441C314.84 90.2441 314.42 90.0201 314.42 89.2361C314.42 88.5361 314.812 88.3121 315.456 88.2561C318.479 87.8921 318.842 87.5001 318.87 84.5041C318.87 78.3161 318.87 72.1281 318.87 65.9121C318.87 64.5681 318.703 63.2801 318.255 62.0201C317.247 59.2481 315.26 57.8761 312.181 57.7921C309.718 57.7081 306.556 59.7241 305.632 61.8801C305.436 62.3561 305.464 62.8601 305.464 63.3641C305.464 70.2801 305.464 77.1961 305.464 84.1401C305.464 86.8001 305.856 88.3401 309.103 88.2841C309.774 88.2841 310.11 88.6201 310.11 89.2921C310.11 89.9921 309.746 90.2721 309.075 90.2721C303.505 90.2721 297.935 90.2721 292.366 90.2721C291.778 90.2721 291.442 90.0201 291.414 89.3761C291.414 88.7321 291.638 88.3121 292.338 88.2841C292.618 88.2841 292.897 88.2841 293.149 88.2561C294.997 88.0881 295.668 87.5001 295.976 85.7081C296.088 85.0921 296.06 84.4481 296.06 83.8041C296.06 75.9361 296.06 68.0401 296.06 60.1721C296.06 59.7521 296.06 59.3601 296.06 58.9401C295.892 56.6721 295.304 56.0281 293.037 55.6641C292.59 55.5801 292.086 55.5801 291.722 55.3841C291.33 55.1601 291.414 54.6561 291.47 54.2641C291.554 53.6761 292.058 53.6201 292.506 53.6201C296.424 53.6201 300.37 53.6201 304.289 53.6201C305.184 53.6201 305.492 54.0961 305.464 54.9081C305.464 56.3081 305.464 57.7361 305.464 59.1361V58.9961Z" fill="black"/>
<path d="M124.687 89.9643C119.285 89.9643 113.912 89.9643 108.51 89.9643C107.95 89.9643 107.278 90.1883 106.943 89.4603C106.551 88.5923 106.998 87.7523 107.95 87.7243C111.561 87.6123 112.344 86.9683 112.344 82.6283C112.344 72.1003 112.344 61.5723 112.344 51.0443C112.344 50.7643 112.344 50.4843 112.344 50.2323C112.288 46.9563 111.645 46.2563 108.37 45.9483C107.698 45.8923 106.943 46.0323 106.887 44.9963C106.831 44.1843 107.054 43.6523 107.978 43.6803C108.202 43.6803 108.426 43.6803 108.65 43.6803C118.977 43.6803 129.305 43.6803 139.633 43.6803C141.424 43.6803 141.452 43.7363 141.48 45.5283C141.48 48.4403 141.508 51.3523 141.536 54.2642C141.536 54.8802 141.676 55.6363 140.696 55.6923C139.857 55.7483 139.801 55.0762 139.689 54.4882C139.549 53.8722 139.437 53.2283 139.269 52.6123C138.205 48.4403 136.582 46.9563 132.3 46.5363C129.389 46.2283 126.45 46.5643 123.54 46.2563C122.84 46.1723 122.56 46.5923 122.56 47.2643C122.56 52.7242 122.56 58.2123 122.56 63.6723C122.56 64.4003 122.896 64.7642 123.651 64.7642C126.03 64.7642 128.409 64.7643 130.788 64.6523C132.412 64.5683 133.503 63.6723 133.839 61.9923C133.979 61.3203 134.119 60.6483 134.231 59.9763C134.343 59.3603 134.623 58.9683 135.323 59.0523C135.994 59.1363 136.05 59.6403 136.05 60.1723C136.05 63.7283 136.05 67.2843 136.05 70.8403C136.05 71.2882 136.05 71.7643 136.05 72.2123C136.05 72.7443 135.938 73.2203 135.239 73.2483C134.595 73.2763 134.343 72.9123 134.231 72.3523C134.203 72.1283 134.119 71.9043 134.063 71.6803C133.419 68.3763 132.468 67.5923 129.081 67.5363C127.346 67.5083 125.611 67.5363 123.875 67.5363C122.98 67.5363 122.532 67.8163 122.532 68.7963C122.56 74.1163 122.532 79.4643 122.588 84.7843C122.588 86.1563 123.26 87.0522 124.659 87.2203C128.27 87.6123 131.852 87.6683 135.378 86.6323C137.394 86.0443 138.681 84.5883 139.661 82.8243C140.584 81.1723 141.144 79.4082 141.648 77.5882C141.844 76.8322 142.208 76.3003 143.075 76.5243C143.915 76.7483 143.663 77.4483 143.607 78.0083C143.271 81.3963 142.879 84.7843 142.599 88.2003C142.487 89.5443 142.04 90.0762 140.584 90.0762C135.295 89.9922 129.977 90.0482 124.687 90.0482V89.9643Z" fill="black"/>
<path d="M219.959 53.1724C219.959 54.3204 219.959 55.4404 219.959 56.5884C219.959 57.2324 219.903 57.7924 219.063 57.8484C218.308 57.9044 217.72 57.7084 217.524 56.8684C217.3 55.9444 217.076 55.0204 216.824 54.0964C215.593 49.6164 212.794 46.6764 208.204 45.6964C203.194 44.6324 199.248 46.6204 196.169 50.4564C193.09 54.2924 191.719 58.8004 191.271 63.5884C190.627 70.5044 191.999 76.9444 196.393 82.4884C198.94 85.7084 202.075 88.0044 206.469 87.9484C210.807 87.8924 214.613 85.3164 216.181 81.2004C216.712 79.8004 217.076 78.3444 217.44 76.8604C217.664 75.9644 218.056 75.5164 219.035 75.6004C220.071 75.7124 219.959 76.4404 219.959 77.1124C219.959 79.2124 219.931 81.3124 219.959 83.4124C219.959 84.3364 219.567 84.9244 218.924 85.4844C210.611 92.7364 197.317 92.1484 188.864 85.6244C175.122 75.0684 177.725 51.4924 195.246 44.4644C203.642 41.1044 211.423 42.2244 218.616 47.6564C219.595 48.3844 220.099 49.1684 219.959 50.4004C219.875 51.2964 219.959 52.2204 219.959 53.1444V53.1724Z" fill="black"/>
<path d="M273.052 91.0563C263.816 91.0563 255.84 84.0563 254.692 75.0963C253.656 66.9763 256.147 60.2283 263.088 55.6643C272.66 49.3643 285.255 53.5083 289.593 64.1483C293.819 74.5363 289.062 86.0723 278.93 89.9643C276.943 90.7203 274.899 91.1683 273.052 91.0283V91.0563ZM264.068 72.4083C263.928 73.6963 264.208 75.5163 264.404 77.3083C264.74 80.2763 265.495 83.1323 267.259 85.6243C269.974 89.4323 275.291 89.5443 278.146 85.8483C279.042 84.6723 279.713 83.3843 280.133 81.9843C281.757 76.7203 281.841 71.3163 281.085 65.9123C280.693 63.0003 279.965 60.2003 278.09 57.7923C275.291 54.2083 270.253 54.2083 267.483 57.7923C266.587 58.9123 265.971 60.1723 265.523 61.5163C264.376 64.8763 264.096 68.3483 264.068 72.4083Z" fill="black"/>
<path d="M357.017 82.8521C357.017 81.7041 357.017 80.5842 357.017 79.4361C357.017 78.7362 356.905 77.8961 358.024 77.8401C359.088 77.7841 359.116 78.5681 359.2 79.2961C359.48 81.8161 360.375 84.0841 362.335 85.7921C365.385 88.4521 368.884 89.0401 372.69 87.8362C374.425 87.2761 375.517 85.9881 375.797 84.1681C376.133 82.0961 375.713 80.2481 373.95 78.9321C372.718 78.0082 371.319 77.2801 369.947 76.5801C367.428 75.2641 364.797 74.2001 362.446 72.6041C357.017 68.9361 356.065 61.9641 360.515 57.3441C363.706 54.0401 367.792 52.9481 372.298 53.2841C374.901 53.4801 377.392 54.2361 379.827 55.2161C380.751 55.5801 381.199 56.0841 381.171 57.1481C381.115 59.2481 381.171 61.3481 381.171 63.4201C381.171 64.1481 381.115 64.7641 380.107 64.7921C379.099 64.8201 378.68 64.4281 378.652 63.4481C378.624 61.9641 378.148 60.5921 377.42 59.3041C375.209 55.4121 369.22 54.4321 366.309 57.4561C364.238 59.6121 364.518 62.7481 367.009 64.4281C369.583 66.1641 372.494 67.3121 375.209 68.8241C377.084 69.8881 378.959 70.9521 380.359 72.6041C384.725 77.7561 383.326 85.4001 377.42 88.8441C373.502 91.1401 369.304 91.3362 364.937 90.6082C362.642 90.2161 360.431 89.4601 358.36 88.3681C357.409 87.8641 356.933 87.1641 356.989 86.0721C357.045 84.9801 356.989 83.8881 356.989 82.7961L357.017 82.8521Z" fill="black"/>
<path d="M238.599 60.5362C239.858 58.9122 241.09 57.2882 242.377 55.6922C245.68 51.6602 250.214 51.6882 253.573 55.7202C253.965 56.1962 254.132 56.6162 253.853 57.2042C252.901 59.2202 251.977 61.2642 251.054 63.2802C250.662 64.1482 250.298 64.1762 249.738 63.3922C248.451 61.5722 246.912 60.0602 244.644 59.5002C243.945 59.3322 243.301 59.3602 242.629 59.5842C240.194 60.4242 238.263 63.0282 238.263 65.6042C238.263 71.7642 238.263 77.8962 238.263 84.0562C238.263 87.1922 239.159 88.0882 242.349 88.2002C242.853 88.2002 243.357 88.2002 243.861 88.2562C244.449 88.3122 244.56 88.7322 244.56 89.2362C244.56 89.7402 244.393 90.1322 243.805 90.1882C243.609 90.1882 243.441 90.2162 243.245 90.2162C237.368 90.2162 231.462 90.2162 225.585 90.2162C225.109 90.2162 224.493 90.3282 224.325 89.6842C224.101 88.8442 224.297 88.3122 225.333 88.2002C228.495 87.8922 228.859 87.4722 228.887 84.2802C228.887 75.9922 228.887 67.7042 228.887 59.4162C228.887 56.4482 228.439 55.9442 225.529 55.5522C224.857 55.4682 224.241 55.4122 224.269 54.5162C224.269 53.5082 224.997 53.5082 225.696 53.5082C229.391 53.5082 233.085 53.5362 236.808 53.5082C237.955 53.5082 238.319 53.9842 238.291 55.0482C238.235 56.8682 238.291 58.6602 238.291 60.4802C238.403 60.4802 238.515 60.5362 238.599 60.5642V60.5362Z" fill="black"/>
<path d="M160.12 65.38C160.12 71.708 160.12 78.036 160.12 84.364C160.12 87.5 160.428 87.78 163.563 88.2C164.207 88.284 164.543 88.536 164.543 89.236C164.543 89.936 164.207 90.216 163.535 90.216C158.049 90.216 152.564 90.216 147.106 90.216C146.462 90.216 146.07 89.964 146.07 89.264C146.07 88.592 146.378 88.256 147.05 88.228C147.554 88.228 148.058 88.2 148.533 88.088C149.625 87.864 150.325 87.192 150.437 86.044C150.549 85.064 150.688 84.056 150.688 83.048C150.688 72.296 150.688 61.544 150.688 50.792C150.688 50.596 150.688 50.428 150.688 50.232C150.604 46.704 150.017 46.06 146.518 45.696C145.791 45.612 144.951 45.696 145.063 44.576C145.175 43.484 146.014 43.652 146.714 43.652C150.604 43.652 154.467 43.68 158.357 43.624C159.729 43.624 160.064 44.156 160.064 45.416C160.037 52.052 160.064 58.716 160.064 65.38H160.12Z" fill="black"/>
<path d="M349.096 69.9161C349.096 74.4802 349.096 79.0162 349.096 83.5802C349.096 84.1122 349.096 84.6722 349.152 85.2042C349.432 87.4722 350.019 88.0042 352.426 88.2001C352.902 88.2281 353.462 88.1442 353.686 88.7602C353.994 89.6002 353.546 90.1881 352.51 90.1881C349.096 90.1881 345.653 90.1881 342.239 90.1881C340.28 90.1881 338.32 90.1881 336.361 90.1881C335.661 90.1881 335.074 90.0762 335.074 89.1802C335.074 88.2842 335.661 88.2001 336.361 88.1721C339.104 87.9762 339.692 87.3601 339.692 84.6161C339.692 76.1321 339.692 67.6761 339.692 59.1921C339.692 56.4201 339.216 55.8881 336.417 55.5241C335.717 55.4401 335.018 55.4402 335.046 54.4322C335.074 53.3962 335.829 53.4802 336.529 53.4802C340.224 53.4802 343.918 53.4802 347.64 53.4802C348.788 53.4802 349.124 53.9281 349.124 55.0201C349.096 59.9761 349.124 64.9601 349.124 69.9161H349.096Z" fill="black"/>
<path d="M338.824 43.1762C338.824 40.3202 341.231 37.9682 344.198 37.9402C347.165 37.9122 349.628 40.3202 349.628 43.2602C349.628 46.1722 347.081 48.6362 344.17 48.5802C341.175 48.5242 338.824 46.1162 338.824 43.1482V43.1762Z" fill="black"/>
<path d="M67.0031 79.6323C67.0031 79.9403 66.9472 80.2763 67.0031 80.5843C67.5349 83.3283 66.1355 84.8963 63.9804 86.3523C56.0318 91.7563 43.9409 91.2243 36.1042 85.0643C28.6314 79.1843 25.9445 71.3443 27.5118 62.2443C29.0512 53.2003 34.285 46.7603 43.0733 43.5123C51.0779 40.5443 58.4947 41.7483 65.3518 46.7323C66.4714 47.5443 67.1151 48.4123 67.0031 49.8963C66.8632 51.8563 66.9752 53.8163 66.9752 55.7763C66.9752 56.4763 66.8912 57.0363 65.9956 57.0923C65.1839 57.1483 64.7361 56.8683 64.5402 56.0283C64.2323 54.7123 63.8685 53.3683 63.4207 52.0803C60.8457 44.8843 51.8336 42.3363 45.8161 47.1243C41.8418 50.2603 39.8826 54.5723 38.875 59.3603C37.1678 67.3963 38.2593 74.9563 43.3252 81.6483C45.5642 84.5883 48.391 86.7443 52.2534 87.1923C56.7595 87.7243 61.2376 85.2043 63.0008 81.0603C63.6726 79.4923 64.1204 77.8963 64.4842 76.2443C64.6521 75.3763 65.016 74.8163 66.0236 74.9003C67.1431 74.9843 66.9472 75.8243 66.9752 76.5243C66.9752 77.5603 66.9752 78.6243 66.9752 79.6603L67.0031 79.6323Z" fill="black"/>
<path d="M47.1889 66.164C47.1889 64.708 47.133 63.252 47.1889 61.796C47.3009 59.388 48.8962 58.492 51.0233 59.668C53.5702 61.096 56.0892 62.552 58.6081 64.036C60.6233 65.24 60.6792 67.088 58.6641 68.292C56.1172 69.804 53.5422 71.288 50.9673 72.716C48.8402 73.892 47.2729 72.968 47.1889 70.532C47.133 69.076 47.1889 67.62 47.1889 66.164ZM49.6519 65.968C49.6519 67.2 49.6519 68.432 49.6519 69.664C49.6519 70.392 49.8758 70.7 50.6315 70.28C52.6746 69.104 54.7457 67.928 56.8169 66.752C57.4606 66.388 57.4606 66.052 56.8169 65.688C54.7178 64.484 52.6186 63.28 50.5475 62.048C49.9038 61.684 49.6239 61.824 49.6519 62.552C49.6519 63.7 49.6519 64.82 49.6519 65.968Z" fill="black"/>
</svg>
