<svg fill="none" height="76" viewBox="0 0 289 76" width="289" xmlns="http://www.w3.org/2000/svg" xmlns:xlink="http://www.w3.org/1999/xlink"><clipPath id="a"><path d="m0 0h289v76h-289z"/></clipPath><mask id="b" height="76" maskUnits="userSpaceOnUse" width="289" x="0" y="0"><path d="m289 0h-289v76h289z" fill="#fff"/></mask><g clip-path="url(#a)"><g fill="#000" mask="url(#b)"><path d="m164.339 24.1349c.962-.4149 1.632-.7434 2.319-1.0027 6.272-2.2648 12.475-2.7489 18.506.7261 4.141 2.3858 7.114 5.9299 8.695 10.3903 3.935 11.0646 3.368 21.8526-3.557 31.6206-4.502 6.3448-11.169 9.2493-18.798 9.8371-7.578.5878-15.035-.3976-22.527-2.2129v-1.4695c.069-16.8736.138-33.7298.172-50.6033 0-2.8353-.189-5.6706-.361-8.5059-.052-.8126-.326-1.6078-.584-2.4031-.584-1.88445-1.753-3.12922-3.78-3.42312-.43-.06916-.842-.22475-1.255-.27662-.996-.13831-1.203-.76069-1.22-1.67698 0-.93357.533-1.10646 1.237-1.22748 6.667-1.27934 13.334-2.5414 19.984-3.838032 1.031-.207461 1.392.051865 1.375 1.158322-.086 7.08827-.12 14.19381-.172 21.28211v1.6424zm15.653 23.4777c0-.6224 0-1.2621 0-1.8845-.103-4.6678-.842-9.2147-3.299-13.2429-2.818-4.6333-6.203-5.7052-11.117-4.4777-.928.242-1.22.6569-1.22 1.6251.103 12.7589.154 25.5177.223 38.2939 0 .8644.017 1.7461.172 2.5933.069.363.464.8817.79.9336 2.973.5359 5.774.121 7.905-2.213 1.202-1.3139 2.285-2.818 3.075-4.4085 2.681-5.394 3.523-11.2202 3.454-17.202z"/><path d="m.0868906 1.34863h58.6454094c.0687.72612.1718 1.45223.189 2.19564.1031 5.87807.189 11.73883.3265 17.61693.0172.8298-.2406 1.1583-1.0138 1.3831-2.6462.7779-2.6462.8125-3.6428-1.7807-1.1684-3.0601-2.5087-6.051-4.6222-8.5924-2.6462-3.19836-6.014-4.99636-10.2067-5.04823-3.7631-.05186-7.5433-.05186-11.3064-.12102-.7388 0-1.0481.20747-1.0653.98545-.1718 9.0591-.3437 18.1183-.5327 27.1774 0 .1556.0344.2939.0859.536 1.6152 0 3.2132.0173 4.8113 0 .8935 0 1.8042-.1383 2.6977-.1729 2.8352-.0692 4.8799-1.4695 6.0999-3.9418.7561-1.5386 1.2372-3.2156 1.7183-4.8753.2406-.8299.5671-1.2102 1.4434-1.1238.6873.0519 1.409 0 2.1822 0v24.93c-.9622 0-1.9245.0691-2.8695-.0346-.2578-.0346-.5671-.5532-.6873-.899-.5671-1.5905-.9795-3.2502-1.6668-4.7716-1.1684-2.5587-3.1273-4.0455-6.0484-4.1492-2.5431-.0692-5.069-.2767-7.6464-.4323-.0515.3977-.1203.6224-.1031.8472.2578 7.0537.4468 14.0901.842 21.1265.1031 1.7288.7388 3.4577 1.3746 5.0828.6358 1.6596 1.9417 2.7315 3.7631 3.06 1.3574.2421 2.6977.4841 4.038.7607 1.1169.242 1.2715.6915 1.1856 2.3858-.0516 1.0546-.6701 1.0546-1.4262 1.0546-11.7359 0-23.4719 0-35.20786 0-.6014 0-1.4089982.1902-1.323083-.8298.068731-.9163-.584221-2.1611.910693-2.5587.9107-.2421 1.83858-.4495 2.76646-.5878 2.818-.4322 4.62221-2.0919 5.22361-4.7716.60141-2.6279 1.09968-5.3595 1.13408-8.0392.1203-13.3985.0859-26.7971.0344-40.1956 0-1.8326-.30933-3.6997-.6358-5.515-.89352-4.80621-2.80083-6.50047-7.62923-7.01913-.27493-.03457-.54986-.06915-.82479-.06915-.721679-.01729-1.0309723-.36306-.979423-1.10646.051548-.77798 0-1.57325 0-2.48954z"/><path d="m76.688 75.7927c-6.5639.2593-12.2171-1.4696-16.9768-5.7225-3.0413-2.697-5.1205-6.051-6.392-9.9063-2.3713-7.192-2.5603-14.4704-.4296-21.7489 2.8867-9.8889 11.3064-16.6833 21.5302-17.6342 3.7975-.3457 7.5262-.1037 11.1861.9163 6.5124 1.8326 11.3236 5.8089 14.0557 11.9809 3.8834 8.7307 4.2614 17.7898.7214 26.6588-3.9003 9.7853-11.4264 14.8853-21.9595 15.4213-.6702.0346-1.3403 0-1.7355 0zm-9.0211-27.8344c-.1031 4.6679.1719 9.8025 1.6496 14.7989.7217 2.4204 1.6152 4.7716 3.2991 6.7252 2.6634 3.0946 6.5295 3.1983 9.3647.2766 1.495-1.5387 2.4744-3.4231 2.8696-5.4804.6701-3.5442 1.2543-7.1229 1.5121-10.7189.4124-5.9472.2405-11.8944-1.0138-17.7552-.7389-3.4231-1.8901-6.6733-4.4676-9.1975-2.9211-2.8526-7.0622-2.5586-9.3303.8472-1.0654 1.6078-1.8214 3.4922-2.3884 5.3421-1.409 4.7716-1.5121 9.6988-1.4778 15.1447z"/><path d="m246.456 46.212h-30.809c.241 2.3167.344 4.5123.705 6.6561.842 4.7716 2.904 8.8689 6.856 11.8598 1.924 1.4523 4.038 2.4031 6.426 2.7316 4.811.6915 9.382.1729 13.506-2.697 1.22-.8471 1.959-.6224 2.388.778.155.5186-.171 1.3831-.567 1.8326-2.199 2.5587-4.742 4.7543-7.887 6.0336-9.897 4.0801-19.382 3.596-27.922-3.3021-5.447-4.4085-8.179-10.4595-8.883-17.4094-.653-6.5178.051-12.8108 3.075-18.7407 4.743-9.3012 13.918-13.7616 23.799-13.2602 10.739.5532 16.633 7.5896 18.592 16.9772.567 2.7316.945 5.4977.687 8.5232zm-30.654-4.7025h15.121c-.189-2.3685-.275-4.4777-.533-6.5868-.326-2.697-.807-5.394-2.268-7.7626-1.667-2.7315-4.467-3.1637-6.89-1.0891-.481.3976-.928.8644-1.272 1.383-2.921 4.2357-3.694 9.1111-4.158 14.0555z"/><path d="m249.428 64.9877c0-2.161.086-4.3394-.034-6.5004-.069-1.1757.378-1.6079 1.426-1.8326 1.031-.2248 1.477.0691 1.924 1.0546 1.134 2.4549 2.251 4.9618 3.729 7.2093 2.749 4.2183 6.718 6.1374 11.805 5.394 2.783-.3977 5.275-2.6106 5.962-5.3767.808-3.233.052-5.9127-2.56-7.6243-2.028-1.3312-4.262-2.3339-6.444-3.3712-1.838-.8817-3.763-1.5733-5.636-2.3685-11.908-5.1001-11.461-19.657-3.505-26.192 3.797-3.1119 8.196-4.4259 12.956-4.6679 5.378-.2593 10.636.4495 15.757 2.2302.893.3112 1.271.7261 1.288 1.7461 0 3.9072.086 7.7971.258 11.7043.052 1.3312-.876 1.2448-1.632 1.556-.859.3458-1.203-.2075-1.495-.8644-.945-2.0746-1.787-4.2184-2.887-6.1893-1.632-2.939-4.089-4.9445-7.475-5.636-3.402-.7089-6.426.5705-7.835 3.5441-1.134 2.3858-1.512 6.3449 1.598 8.5751 2.337 1.6769 4.949 3.0082 7.509 4.3567 2.492 1.3139 5.155 2.3339 7.612 3.6997 4.966 2.7661 7.234 7.0191 7.234 12.828 0 7.2957-4.313 13.2948-10.791 15.8189-2.698 1.0546-5.447 1.6252-8.368 1.7289-6.048.2074-11.994-.3112-17.784-2.1265-2.268-.7088-2.286-.6915-2.32-2.9909-.034-1.8844 0-3.7862 0-5.6706h-.309z"/><path d="m133.685 71.3669v3.0947c-.361.0345-.636.0691-.894.0691-9.622 0-19.245 0-28.85-.0173-.447 0-1.289-.2074-1.306-.3976-.103-.8817 0-1.7807.069-2.6624 0-.0865.326-.1556.515-.2075.258-.0691.533-.1383.808-.1729 3.196-.363 5.035-1.5559 5.309-6.0163.619-10.3558.705-20.7116.052-31.0847-.052-.778-.223-1.5559-.412-2.3166-.464-1.9018-1.616-3.1119-3.592-3.4231-.549-.0865-1.082-.2248-1.615-.2939-.739-.1038-1.323-.2767-1.306-1.2794 0-.9681.241-1.5041 1.289-1.7115 6.736-1.314 13.454-2.697 20.19-4.0455.378-.0692.773-.0692 1.168-.1038v10.4941c.413-.7088.808-1.3658 1.203-2.0227 2.114-3.5442 4.88-6.3622 8.798-7.8836 3.007-1.1583 6.065-1.1237 9.107-.1037 1.529.5187 1.667.8471 1.117 2.3339-1.461 3.9418-2.956 7.8836-4.433 11.8253-.138.3631-.327.6916-.568 1.1757-.996-.415-1.924-.8126-2.835-1.2102-3.093-1.3658-6.254-1.7635-9.502-.6224-.739.2593-1.495.5705-2.079 1.0546-.447.3803-.876 1.0719-.911 1.6597-.378 9.4222-.464 18.8271.447 28.232.086.8817.361 1.7807.687 2.6106.533 1.3485 1.564 2.1437 2.99 2.3685 1.478.2247 2.956.3976 4.571.6224z"/></g></g></svg>