<svg fill="none" height="96" viewBox="0 0 263 96" width="263" xmlns="http://www.w3.org/2000/svg"><g fill="#000"><path d="m202.214 8.83224h39.71c6.212 0 9.446 3.19996 9.446 9.27996v42.1334c0 6.144-2.956 9.1093-9.167 9.1093-22.554.0213-45.129 0-67.683 0-4.477 0-4.477 0-4.477 4.48v9.408c0 .5333.043 1.152-.514 1.4293-.621.2987-1.006-.2346-1.371-.5973-4.54-4.48-9.081-8.9813-13.622-13.4827-1.028-1.024-1.049-2.3253-1.049-3.6266 0-16.64-.043-33.28.021-49.92 0-5.1627 3.213-8.21336 8.375-8.21336 13.451-.02134 26.902 0 40.353 0zm4.155 30.07996c0 5.0774.107 10.1334-.042 15.2107-.086 2.752 1.092 3.5413 3.684 3.52 2.591-.0213 4.176-.6187 4.005-3.6267-.15-2.7946-.043-5.6106-.107-8.4053-.043-2.0267.878-2.9653 2.934-2.944 3.149.0213 6.297.0853 9.424-.1067 5.205-.32 9.446-3.456 10.645-7.6373 2.164-7.5307-2.913-13.7387-11.908-14.2293-5.184-.2774-10.388-.0427-15.593-.128-2.249-.0427-3.084.9386-3.063 3.1146.064 5.0774.021 10.1334 0 15.2107zm-6.575-3.7546c0-3.5627 0-7.1254 0-10.688 0-2.0694.043-3.904-2.935-3.904-2.934 0-2.955 1.8346-2.934 3.904 0 6.6986.129 13.3973-.064 20.0746-.171 6.016-3.192 8.704-9.039 8.576-5.569-.1066-7.882-2.6453-7.925-8.7466-.043-6.912-.085-13.824 0-20.736.043-2.816-1.52-3.136-3.748-3.0934-2.056.0427-3.962-.064-3.92 2.9014.086 7.3386-.15 14.6986.129 22.016.278 7.2106 3.877 11.2426 10.538 12.3946 3.106.5334 6.276.5547 9.381-.0426 6.961-1.3227 10.303-5.2694 10.474-12.3307.086-3.456 0-6.912 0-10.368z"/><path d="m32.341 55.7442c0-7.8934.0857-15.7867-.0428-23.6587-.0429-2.9227.9638-4.032 3.9624-3.9467 6.19.192 12.3586.064 18.5486.0854 3.5127 0 6.8968.704 10.131 2.0693 6.2971 2.688 9.2958 7.488 9.2529 14.2507-.0642 6.6986-3.3841 11.2-9.467 13.824-4.6051 1.984-9.4885 2.0266-14.3934 1.9626-2.7202-.0426-5.4403.1067-8.1391-.0426-2.4631-.128-3.2128.9386-3.17 3.264.1071 5.504-.0428 11.0293.0643 16.5333.0643 2.5813-.8139 3.7333-3.5555 3.6907-2.7202-.0214-3.2342-1.4294-3.2342-3.7121.0428-8.1066 0-16.2133 0-24.3199zm6.7255-11.6907v8.4267c0 1.344.4069 2.4106 1.9705 2.4106 5.6331 0 11.3091.5974 16.8993-.3626 6.1686-1.0667 9.5528-5.056 9.4243-10.5814-.1286-5.8666-3.2557-9.1306-9.7241-10.1973-5.2904-.8747-10.6023-.5973-15.9141-.6187-1.9919 0-2.6773.9814-2.6345 2.816.0428 2.7094 0 5.3974 0 8.1067z"/><path d="m124.206 43.1149c11.48.0853 19.727 8.8747 19.598 20.9067-.128 11.7973-8.653 20.7146-19.748 20.608-12.23-.1067-20.241-8.448-20.155-21.0134.086-12.2026 8.375-20.5866 20.305-20.5013zm13.087 20.8853h.064c-.064-1.408-.064-2.816-.214-4.2026-.75-6.4214-5.269-11.2854-11.052-11.8614-7.54-.768-13.023 2.56-15.186 9.3014-1.178 3.6693-1.285 7.4666-.471 11.2213 1.778 8.256 6.918 11.8827 15.593 11.1147 6.618-.576 10.987-5.888 11.244-13.632.022-.64 0-1.3014 0-1.9414z"/><path d="m87.0445 49.7281c2.6131-2.368 4.7336-4.3733 7.4537-5.6107 1.8206-.832 3.7269-1.0453 5.6978-.9813 1.949.064 2.634 1.1307 2.591 2.944-.043 1.7707-.878 2.5813-2.634 2.4533-3.0417-.2133-5.7833.6614-8.3321 2.2614-3.0415 1.92-4.7549 4.48-4.6479 8.2773.1714 6.8053.0429 13.6107.0429 20.416 0 2.0907.2356 4.2027-2.9558 4.224-3.1271.0213-3.1057-1.9413-3.1057-4.1173 0-10.5814 0-21.1627 0-31.744 0-2.176-.0643-4.2027 3.1057-4.0534 2.9986.128 2.8059 2.048 2.6345 4.096-.0428.4054.0643.8107.1499 1.8134z"/><path d="m21.5263 69.3762c0 3.776-.0642 7.552 0 11.328.0429 2.2827-1.0281 3.0294-3.1699 3.008-1.992-.0213-3.0201-.8106-2.9987-2.88.0215-7.6586.0215-15.3173 0-22.976 0-2.3466 1.3923-2.8586 3.3842-2.8586 2.1419 0 2.8058 1.088 2.7844 3.0506-.0642 3.776 0 7.552 0 11.328z"/><path d="m18.6125 43.0511c2.3346-.3413 3.5126.5547 3.4912 3.1574-.0214 2.496-1.1137 3.456-3.5126 3.52-2.5703.0426-3.3628-1.152-3.3199-3.584.0214-2.3254.8353-3.4987 3.3627-3.1147z"/><path d="m213.994 31.5736c0-6.5493.45-6.9546 7.068-6.2506 1.285.128 2.592.256 3.856.5546 2.891.6614 4.455 2.5814 4.69 5.4827.214 2.752-1.628 5.2267-4.498 5.9947-1.349.3626-2.763.5333-4.176.6613-6.661.5547-6.961.2347-6.961-6.4213z"/></g></svg>