<svg width="133" height="61" viewBox="0 0 133 61" fill="none" xmlns="http://www.w3.org/2000/svg">
<g clip-path="url(#clip0_120_425)">
<path d="M40.06 16.46C35.86 12.12 30.33 9.92004 23.62 9.92004C16.91 9.92004 10.89 12.07 6.56 16.32C2.21 20.59 0 26.22 0 33.05V51.85C0 56.13 3.49 59.62 7.77 59.62C12.05 59.62 15.54 56.13 15.54 51.85V33.11C15.54 30.4 16.24 28.33 17.67 26.79C19.05 25.31 20.83 24.62 23.28 24.62C25.73 24.62 27.34 25.29 28.67 26.74C30.07 28.26 30.74 30.32 30.74 33.05L30.8 51.87C30.81 56.14 34.3 59.62 38.58 59.62C42.86 59.62 46.35 56.13 46.35 51.85V33.32C46.35 26.43 44.24 20.75 40.07 16.45L40.06 16.46Z" fill="white"/>
<path d="M92.81 53.15C97.03 57.47 102.56 59.66 109.27 59.63C116.26 59.61 122 57.43 126.31 53.17C130.65 48.89 132.83 43.25 132.81 36.41L132.75 17.61C132.74 13.33 129.24 9.84996 124.95 9.86996C120.67 9.87996 117.19 13.38 117.21 17.67L117.27 36.41C117.27 39.12 116.59 41.19 115.16 42.74C113.79 44.23 112.01 44.92 109.56 44.93C107.21 44.93 105.5 44.27 104.17 42.83C102.77 41.31 102.08 39.25 102.07 36.52L101.95 17.7C101.92 13.43 98.43 9.96996 94.14 9.97996C89.85 9.98996 86.38 13.49 86.4 17.78L86.46 36.31C86.48 43.2 88.61 48.87 92.8 53.16L92.81 53.15Z" fill="white"/>
<path d="M75.0501 2.36C74.9801 2.29 74.9201 2.22 74.8501 2.15C73.5501 0.83 71.7401 0 69.7301 0C67.4401 0 65.4001 1.08 64.0901 2.75L52.4201 14.23C49.6501 17 49.4701 21.51 52.1601 24.35C54.9401 27.3 59.6101 27.35 62.4501 24.5L62.5501 24.4V53.14C62.5501 57.05 65.6101 60.37 69.5201 60.48C73.5701 60.59 76.9001 57.33 76.9001 53.31V7.98C77.1101 5.99 76.4901 3.93 75.0401 2.36H75.0501Z" fill="white"/>
</g>
<defs>
<clipPath id="clip0_120_425">
<rect width="132.82" height="60.47" fill="white"/>
</clipPath>
</defs>
</svg>
