<svg fill="none" height="80" viewBox="0 0 177 80" width="177" xmlns="http://www.w3.org/2000/svg" xmlns:xlink="http://www.w3.org/1999/xlink"><clipPath id="a"><path d="m0 0h177v80h-177z"/></clipPath><g clip-path="url(#a)" fill="#070707"><path d="m53.3852 21.7761c-5.5971-5.7417-12.9665-8.6522-21.9085-8.6522-8.9419 0-16.9644 2.8444-22.73464 8.467-5.79695 5.6491-8.74206 13.0974-8.74206 22.1333v24.8718c0 5.6624 4.65088 10.2795 10.3545 10.2795 5.7037 0 10.3546-4.6171 10.3546-10.2795v-24.7924c0-3.5853.9328-6.3238 2.8385-8.3612 1.839-1.958 4.2111-2.8708 7.476-2.8708 3.265 0 5.4105.8864 7.1829 2.8047 1.8657 2.0109 2.7586 4.7362 2.7586 8.3479l.0799 24.8983c.0133 5.6491 4.6642 10.253 10.3679 10.253s10.3545-4.6171 10.3545-10.2795v-24.5146c0-9.1153-2.8118-16.6297-8.3689-22.3185z"/><path d="m123.681 70.3159c5.624 5.7152 12.994 8.6125 21.936 8.5728 9.315-.0264 16.964-2.9105 22.708-8.5464 5.783-5.6623 8.688-13.1238 8.662-22.1729l-.08-24.8719c-.014-5.6623-4.678-10.2662-10.395-10.2398-5.703.0133-10.341 4.6437-10.314 10.3192l.08 24.7925c0 3.5852-.907 6.3238-2.812 8.3744-1.826 1.9712-4.198 2.884-7.463 2.8973-3.132 0-5.41-.8732-7.183-2.7783-1.866-2.0109-2.785-4.7362-2.798-8.3479l-.16-24.8983c-.04-5.6491-4.691-10.2266-10.408-10.2133-5.717.0132-10.341 4.6436-10.315 10.3191l.08 24.5147c.027 9.1152 2.865 16.6165 8.449 22.292z"/><path d="m100.014 3.12221c-.0934-.09261-.1734-.18522-.2667-.27782-1.7324-1.74632-4.1444-2.84439-6.823-2.84439-3.0518 0-5.7703 1.42881-7.5161 3.63817l-15.5518 15.18773c-3.6914 3.6646-3.9312 9.6312-.3465 13.3884 3.7048 3.9028 9.9281 3.9689 13.7128.1985l.1333-.1323v38.0221c0 5.1728 4.0778 9.5651 9.2884 9.7106 5.3972.1456 9.8346-4.1673 9.8346-9.4857v-59.9702c.28-2.63271-.546-5.35803-2.478-7.43509z"/></g></svg>